<svg width="22" height="21" viewBox="0 0 22 21" fill="none" xmlns="http://www.w3.org/2000/svg">
<path d="M21.4218 8.13233C21.3282 7.83834 21.1481 7.57941 20.9051 7.38931C20.662 7.1992 20.3674 7.08676 20.0595 7.06665L14.4916 6.677L12.4262 1.47607C12.3144 1.18854 12.1184 0.941482 11.8638 0.767267C11.6092 0.593052 11.3079 0.499808 10.9994 0.499756H10.998C10.69 0.500305 10.3893 0.593786 10.1352 0.767975C9.88121 0.942164 9.68566 1.18895 9.57414 1.47607L7.47795 6.70703L1.94084 7.06665C1.63296 7.08676 1.33829 7.1992 1.09527 7.3893C0.852255 7.57941 0.672179 7.83834 0.578538 8.13233C0.479753 8.43048 0.473033 8.75148 0.559253 9.05351C0.645473 9.35554 0.820637 9.62461 1.06194 9.82569L5.3217 13.4263L4.05461 18.4104C3.96728 18.7461 3.98334 19.1004 4.10069 19.4269C4.21804 19.7533 4.43122 20.0367 4.71233 20.24C4.98372 20.4374 5.30827 20.5486 5.64373 20.5591C5.97919 20.5695 6.31002 20.4788 6.59318 20.2986L10.9877 17.5147C10.9936 17.5103 10.9994 17.5073 11.0126 17.5147L15.7411 20.5103C15.9978 20.6743 16.2981 20.757 16.6026 20.7476C16.907 20.7382 17.2016 20.6371 17.4477 20.4575C17.7024 20.2734 17.8956 20.0167 18.0019 19.7209C18.1083 19.4252 18.1229 19.1042 18.0439 18.8001L16.6977 13.3552L20.9384 9.82569C21.1797 9.62461 21.3549 9.35554 21.4411 9.05351C21.5273 8.75148 21.5206 8.43048 21.4218 8.13233Z" fill="#FD8949"/>
</svg>
