<svg width="28" height="28" viewBox="0 0 28 28" fill="none" xmlns="http://www.w3.org/2000/svg">
<path fill-rule="evenodd" clip-rule="evenodd" d="M5.40013 3.65013C6.0565 2.99375 6.94674 2.625 7.875 2.625H22.75C23.2332 2.625 23.625 3.01675 23.625 3.5V21.875C23.625 22.3582 23.2332 22.75 22.75 22.75H7.875C7.41087 22.75 6.96575 22.9344 6.63756 23.2626C6.30937 23.5908 6.125 24.0359 6.125 24.5C6.125 24.9832 5.73325 25.375 5.25 25.375C4.76675 25.375 4.375 24.9832 4.375 24.5V6.125C4.375 5.19674 4.74375 4.3065 5.40013 3.65013ZM6.125 21.4689C6.65254 21.1643 7.2553 21 7.875 21H21.875V4.375H7.875C7.41087 4.375 6.96575 4.55937 6.63756 4.88756C6.30937 5.21575 6.125 5.66087 6.125 6.125V21.4689Z" fill="#272C20"/>
<path fill-rule="evenodd" clip-rule="evenodd" d="M5.25 23.625C5.73325 23.625 6.125 24.0168 6.125 24.5H21C21.4832 24.5 21.875 24.8918 21.875 25.375C21.875 25.8582 21.4832 26.25 21 26.25H5.25C4.76675 26.25 4.375 25.8582 4.375 25.375V24.5C4.375 24.0168 4.76675 23.625 5.25 23.625Z" fill="#272C20"/>
<path fill-rule="evenodd" clip-rule="evenodd" d="M12.25 2.625C12.7332 2.625 13.125 3.01675 13.125 3.5V12.2498L15.2242 10.6751C15.5352 10.4417 15.963 10.4416 16.2742 10.6749L18.375 12.2502V3.5C18.375 3.01675 18.7668 2.625 19.25 2.625C19.7332 2.625 20.125 3.01675 20.125 3.5V14C20.125 14.3314 19.9378 14.6344 19.6414 14.7826C19.3449 14.9308 18.9902 14.8989 18.7251 14.7001L15.7493 12.4688L12.7751 14.6999C12.5099 14.8988 12.1552 14.9309 11.8587 14.7826C11.5623 14.6344 11.375 14.3314 11.375 14V3.5C11.375 3.01675 11.7668 2.625 12.25 2.625Z" fill="#272C20"/>
</svg>
