<svg width="28" height="28" viewBox="0 0 28 28" fill="none" xmlns="http://www.w3.org/2000/svg">
<path fill-rule="evenodd" clip-rule="evenodd" d="M3.5 7.875C3.5 6.9085 4.2835 6.125 5.25 6.125H22.75C23.7165 6.125 24.5 6.9085 24.5 7.875V21.875C24.5 22.8415 23.7165 23.625 22.75 23.625H5.25C4.2835 23.625 3.5 22.8415 3.5 21.875V7.875ZM22.75 7.875H5.25V21.875H22.75V7.875Z" fill="#272C20"/>
<path fill-rule="evenodd" clip-rule="evenodd" d="M14 3.5C13.0717 3.5 12.1815 3.86875 11.5251 4.52513C10.8687 5.1815 10.5 6.07174 10.5 7C10.5 7.48325 10.1082 7.875 9.625 7.875C9.14175 7.875 8.75 7.48325 8.75 7C8.75 5.60761 9.30312 4.27226 10.2877 3.28769C11.2723 2.30312 12.6076 1.75 14 1.75C15.3924 1.75 16.7277 2.30312 17.7123 3.28769C18.6969 4.27226 19.25 5.60761 19.25 7C19.25 7.48325 18.8582 7.875 18.375 7.875C17.8918 7.875 17.5 7.48325 17.5 7C17.5 6.07174 17.1313 5.1815 16.4749 4.52513C15.8185 3.86875 14.9283 3.5 14 3.5Z" fill="#272C20"/>
</svg>
