<svg width="52" height="33" viewBox="0 0 52 33" fill="none" xmlns="http://www.w3.org/2000/svg">
<path d="M0.000136625 14.7224C0.299005 13.9914 0.611032 13.2658 0.894706 12.5286C2.3299 8.79845 3.7579 5.06533 5.18834 1.3332C5.67131 0.0730646 6.40878 -0.265815 7.62623 0.222423C8.85372 0.714705 10.0774 1.21675 11.305 1.70889C12.066 2.01402 12.4682 2.55944 12.4656 3.41835C12.4652 3.54205 12.5871 3.72418 12.6994 3.78094C13.6637 4.26918 14.6599 4.51058 15.765 4.53094C17.8879 4.56998 20.0345 4.52982 22.0989 5.21929C22.2213 5.26016 22.4169 5.18847 22.5327 5.10355C22.7231 4.96381 22.8799 4.77387 23.0441 4.59843C24.0763 3.49617 25.3286 3.10736 26.7865 3.36145C27.6031 3.50384 28.4221 3.6313 29.2397 3.76643C29.7891 3.85722 30.0963 4.1908 30.051 4.64529C30.0028 5.12781 29.6168 5.40254 29.0392 5.3197C28.1186 5.18764 27.2015 5.02908 26.2828 4.88251C25.5092 4.75909 24.8378 4.98557 24.2876 5.54702C22.0857 7.79436 19.7623 9.88984 17.1707 11.6579C16.7182 11.9666 16.7194 12.2585 17.1345 12.6109C18.0143 13.3578 19.0094 13.4224 20.0551 13.0999C21.4153 12.6802 22.5227 11.8244 23.5775 10.8883C24.5682 10.0092 25.4198 10.0268 26.3384 10.9543C28.4736 13.1104 31.0101 14.083 34.0027 13.6607C34.4434 13.5985 34.7794 13.7111 35.1267 13.9773C37.1332 15.5154 39.1517 17.0371 41.198 18.5884C42.2749 17.8776 43.3514 17.167 44.4649 16.4319C43.0209 12.6687 41.586 8.9287 40.1346 5.14636C39.637 5.33044 39.1669 5.4692 38.7259 5.67406C37.2048 6.38097 35.6395 6.52001 34.0178 6.14375C33.6229 6.05213 33.2166 6.01378 32.8173 5.94043C32.3012 5.84546 32.0345 5.51648 32.0838 5.05306C32.1322 4.59774 32.4776 4.329 33.0017 4.39092C33.5553 4.45633 34.1092 4.53944 34.6543 4.65728C35.7127 4.88613 36.7342 4.81208 37.7364 4.38269C38.2504 4.16235 38.7854 3.99333 39.2977 3.76908C39.4072 3.72111 39.5267 3.53536 39.5273 3.41249C39.5309 2.58203 39.8978 2.03717 40.65 1.7365C41.9566 1.21438 43.2541 0.667846 44.5609 0.146139C45.5046 -0.230673 46.3319 0.133448 46.7092 1.09709C47.3586 2.75635 47.9937 4.4216 48.6279 6.08713C48.8378 6.63813 48.6774 7.08132 48.2293 7.25369C47.8092 7.41518 47.4245 7.20028 47.2151 6.66058C46.6334 5.16044 46.0607 3.65668 45.4829 2.15501C45.4091 1.96312 45.3261 1.77513 45.2352 1.55619C43.8338 2.12601 42.4569 2.68592 41.0481 3.25881C42.7957 7.81235 44.5235 12.3146 46.276 16.8809C47.6852 16.3113 49.0608 15.7552 50.4781 15.1824C49.9404 13.7791 49.4157 12.4094 48.8908 11.0399C48.7855 10.7652 48.6655 10.4955 48.5778 10.2151C48.4431 9.78357 48.623 9.36409 48.9856 9.2118C49.383 9.04487 49.8086 9.20636 49.986 9.65876C50.6425 11.3336 51.2941 13.0109 51.9105 14.7015C52.1706 15.4148 51.8458 16.259 51.1672 16.5561C49.707 17.1956 48.2248 17.7838 46.7394 18.3599C46.2548 18.5479 45.7796 18.4132 45.343 18.1097C45.2224 18.0259 44.9824 17.9747 44.8761 18.0415C43.9684 18.6112 43.0787 19.2115 42.1927 19.7967C42.7555 22.777 41.4328 24.4042 38.6491 24.1915C38.0645 26.3567 37.272 26.9883 34.9989 27.0632C34.9044 28.0807 34.5112 28.9559 33.6507 29.5437C32.8096 30.1182 31.8932 30.212 30.8991 29.9049C30.6061 31.3531 29.824 32.2993 28.4058 32.6122C26.9626 32.9307 25.965 32.0505 24.8942 31.2004C24.691 31.4398 24.4944 31.6685 24.3008 31.9C23.5398 32.8098 22.5911 33.1978 21.4451 32.9027C20.3038 32.6089 19.6297 31.8292 19.3756 30.6478C19.3484 30.5219 19.194 30.3345 19.0919 30.3297C17.431 30.2525 16.5479 29.2986 16.2353 27.6968C14.275 27.4345 13.5056 26.7559 13.1809 25.0131C10.5073 24.5568 9.50708 22.9367 10.5171 20.5977C10.3447 20.4679 10.1672 20.318 9.97498 20.1922C8.99087 19.5482 8.00894 18.9 7.00963 18.2816C6.86407 18.1916 6.62882 18.2409 6.43591 18.248C5.99419 18.2642 5.50729 18.4309 5.1197 18.2939C3.73117 17.8033 2.37847 17.2063 1.00771 16.6614C0.492462 16.4567 0.237955 16.0202 0 15.5581C0.000135664 15.2793 0.000136625 15.0009 0.000136625 14.7224ZM11.8477 5.17857C10.377 9.01168 8.90649 12.8437 7.43331 16.6831C8.82577 17.5915 10.1646 18.4652 11.5273 19.3542C11.9437 18.8604 12.3358 18.3592 12.7646 17.894C14.226 16.3087 16.8076 16.9292 17.4269 19.0077C17.4902 19.22 17.5299 19.44 17.578 19.6457C19.4469 19.7984 20.1465 20.4091 20.6678 22.3248C22.4016 22.3567 23.4167 23.2731 23.724 25.0308C25.0261 24.9929 25.995 25.527 26.5187 26.7375C27.0426 27.9485 26.7212 29.0397 25.853 30.0526C26.3951 30.3954 26.8676 30.7799 27.4027 31.011C28.0912 31.3083 28.8727 30.9292 29.2002 30.254C29.53 29.574 29.3672 28.9116 28.7512 28.422C28.363 28.1135 27.9691 27.8123 27.59 27.4925C27.1782 27.1451 27.1069 26.7237 27.3751 26.3549C27.6497 25.9774 28.097 25.9444 28.5395 26.2754C28.731 26.4187 28.9125 26.5757 29.1015 26.7223C29.7495 27.2247 30.3828 27.7499 31.0523 28.2203C31.7787 28.7304 32.6956 28.5572 33.1741 27.8714C33.6575 27.1787 33.4966 26.2948 32.7812 25.7258C32.1524 25.2256 31.5172 24.7339 30.894 24.2265C30.4877 23.8958 30.4087 23.4519 30.6662 23.0887C30.9424 22.6991 31.3733 22.6609 31.8259 22.9953C32.0455 23.1576 32.254 23.3357 32.4697 23.5039C33.211 24.0818 33.9337 24.6874 34.7005 25.227C35.4164 25.7309 36.3571 25.5227 36.8123 24.8279C37.2781 24.1175 37.1184 23.2895 36.4083 22.727C35.658 22.1325 34.9037 21.5433 34.1607 20.9393C33.8702 20.7032 33.7029 20.3566 33.9213 20.0249C34.0692 19.8 34.3643 19.61 34.6239 19.5538C34.8053 19.5146 35.0628 19.695 35.2446 19.8348C36.2879 20.6362 37.3113 21.465 38.3562 22.2642C39.1608 22.8797 40.0593 22.7713 40.6006 22.0274C41.1136 21.3226 40.9296 20.3392 40.1451 19.7406C38.2572 18.3003 36.364 16.8673 34.4609 15.4484C34.2901 15.3211 34.0249 15.2486 33.814 15.2688C30.5215 15.5837 27.7246 14.4812 25.3659 12.1502C25.036 11.8241 24.8438 11.8104 24.5016 12.123C23.3573 13.1685 22.1126 14.0641 20.6349 14.5531C19.1154 15.0561 17.6644 14.9635 16.3418 13.9599C14.9157 12.8776 14.9825 11.3332 16.4139 10.2708C17.8655 9.19353 19.2513 8.02251 20.6698 6.89793C20.7863 6.80548 20.9337 6.75416 21.0668 6.68373C21.0248 6.6002 20.983 6.51652 20.9411 6.43299C19.9044 6.34387 18.8686 6.23844 17.8306 6.16997C16.5668 6.08658 15.2914 6.10959 14.0399 5.93973C13.3072 5.83988 12.6111 5.454 11.8477 5.17857ZM10.9478 3.25449C9.53407 2.68104 8.1583 2.12322 6.74536 1.55005C4.99611 6.10917 3.26015 10.6336 1.51618 15.179C2.94215 15.7565 4.3034 16.3079 5.7177 16.8808C7.46696 12.3232 9.19817 7.81305 10.9478 3.25449ZM13.0097 23.4064C13.141 23.3501 13.4732 23.3091 13.6447 23.1166C14.4078 22.2599 15.1578 21.3861 15.8454 20.4654C16.2216 19.9618 16.0301 19.2319 15.5433 18.8374C15.0791 18.4613 14.3734 18.4427 13.9654 18.8953C13.2313 19.7094 12.5343 20.5612 11.8579 21.4269C11.5614 21.8064 11.5781 22.2772 11.7945 22.7097C12.012 23.1453 12.3776 23.3683 13.0097 23.4064ZM14.6482 24.7628C14.7243 25.319 15.0315 25.7886 15.4945 25.9813C16.0061 26.1941 16.5179 26.0824 16.9185 25.6175C17.5459 24.8895 18.1616 24.1503 18.7609 23.3977C19.2562 22.7755 19.1932 22.0078 18.6435 21.541C18.0981 21.078 17.3614 21.1572 16.8424 21.7625C16.2391 22.466 15.6413 23.1755 15.0719 23.9079C14.8817 24.1525 14.7867 24.4756 14.6482 24.7628ZM22.2746 31.4355C22.402 31.3734 22.7208 31.3125 22.8956 31.1161C23.636 30.2845 24.3609 29.4348 25.036 28.547C25.4155 28.0479 25.2599 27.307 24.7951 26.9012C24.3311 26.4961 23.5972 26.4606 23.1781 26.9259C22.4332 27.7526 21.7259 28.6183 21.0474 29.5036C20.7561 29.8835 20.7952 30.3601 21.0311 30.7852C21.2674 31.2112 21.6409 31.4173 22.2746 31.4355ZM19.0863 28.8137C19.351 28.6791 19.6822 28.6074 19.8684 28.3991C20.5877 27.5944 21.285 26.7656 21.9423 25.9067C22.3416 25.3849 22.2029 24.6407 21.7162 24.2212C21.235 23.8066 20.5343 23.7764 20.1023 24.2537C19.3671 25.0665 18.6712 25.9195 17.9973 26.7872C17.6887 27.1846 17.7064 27.6664 17.9618 28.1114C18.2041 28.5337 18.5716 28.7459 19.0863 28.8137Z" fill="#587E27"/>
<path d="M0.000136625 14.7224C0.299005 13.9914 0.611032 13.2658 0.894706 12.5286C2.3299 8.79845 3.7579 5.06533 5.18834 1.3332C5.67131 0.0730646 6.40878 -0.265815 7.62623 0.222423C8.85372 0.714705 10.0774 1.21675 11.305 1.70889C12.066 2.01402 12.4682 2.55944 12.4656 3.41835C12.4652 3.54205 12.5871 3.72418 12.6994 3.78094C13.6637 4.26918 14.6599 4.51058 15.765 4.53094C17.8879 4.56998 20.0345 4.52982 22.0989 5.21929C22.2213 5.26016 22.4169 5.18847 22.5327 5.10355C22.7231 4.96381 22.8799 4.77387 23.0441 4.59843C24.0763 3.49617 25.3286 3.10736 26.7865 3.36145C27.6031 3.50384 28.4221 3.6313 29.2397 3.76643C29.7891 3.85722 30.0963 4.1908 30.051 4.64529C30.0028 5.12781 29.6168 5.40254 29.0392 5.3197C28.1186 5.18764 27.2015 5.02908 26.2828 4.88251C25.5092 4.75909 24.8378 4.98557 24.2876 5.54702C22.0857 7.79436 19.7623 9.88984 17.1707 11.6579C16.7182 11.9666 16.7194 12.2585 17.1345 12.6109C18.0143 13.3578 19.0094 13.4224 20.0551 13.0999C21.4153 12.6802 22.5227 11.8244 23.5775 10.8883C24.5682 10.0092 25.4198 10.0268 26.3384 10.9543C28.4736 13.1104 31.0101 14.083 34.0027 13.6607C34.4434 13.5985 34.7794 13.7111 35.1267 13.9773C37.1332 15.5154 39.1517 17.0371 41.198 18.5884C42.2749 17.8776 43.3514 17.167 44.4649 16.4319C43.0209 12.6687 41.586 8.9287 40.1346 5.14636C39.637 5.33044 39.1669 5.4692 38.7259 5.67406C37.2048 6.38097 35.6395 6.52001 34.0178 6.14375C33.6229 6.05213 33.2166 6.01378 32.8173 5.94043C32.3012 5.84546 32.0345 5.51648 32.0838 5.05306C32.1322 4.59774 32.4776 4.329 33.0017 4.39092C33.5553 4.45633 34.1092 4.53944 34.6543 4.65728C35.7127 4.88613 36.7342 4.81208 37.7364 4.38269C38.2504 4.16235 38.7854 3.99333 39.2977 3.76908C39.4072 3.72111 39.5267 3.53536 39.5273 3.41249C39.5309 2.58203 39.8978 2.03717 40.65 1.7365C41.9566 1.21438 43.2541 0.667846 44.5609 0.146139C45.5046 -0.230673 46.3319 0.133448 46.7092 1.09709C47.3586 2.75635 47.9937 4.4216 48.6279 6.08713C48.8378 6.63813 48.6774 7.08132 48.2293 7.25369C47.8092 7.41518 47.4245 7.20028 47.2151 6.66058C46.6334 5.16044 46.0607 3.65668 45.4829 2.15501C45.4091 1.96312 45.3261 1.77513 45.2352 1.55619C43.8338 2.12601 42.4569 2.68592 41.0481 3.25881C42.7957 7.81235 44.5235 12.3146 46.276 16.8809C47.6852 16.3113 49.0608 15.7552 50.4781 15.1824C49.9404 13.7791 49.4157 12.4094 48.8908 11.0399C48.7855 10.7652 48.6655 10.4955 48.5778 10.2151C48.4431 9.78357 48.623 9.36409 48.9856 9.2118C49.383 9.04487 49.8086 9.20636 49.986 9.65876C50.6425 11.3336 51.2941 13.0109 51.9105 14.7015C52.1706 15.4148 51.8458 16.259 51.1672 16.5561C49.707 17.1956 48.2248 17.7838 46.7394 18.3599C46.2548 18.5479 45.7796 18.4132 45.343 18.1097C45.2224 18.0259 44.9824 17.9747 44.8761 18.0415C43.9684 18.6112 43.0787 19.2115 42.1927 19.7967C42.7555 22.777 41.4328 24.4042 38.6491 24.1915C38.0645 26.3567 37.272 26.9883 34.9989 27.0632C34.9044 28.0807 34.5112 28.9559 33.6507 29.5437C32.8096 30.1182 31.8932 30.212 30.8991 29.9049C30.6061 31.3531 29.824 32.2993 28.4058 32.6122C26.9626 32.9307 25.965 32.0505 24.8942 31.2004C24.691 31.4398 24.4944 31.6685 24.3008 31.9C23.5398 32.8098 22.5911 33.1978 21.4451 32.9027C20.3038 32.6089 19.6297 31.8292 19.3756 30.6478C19.3484 30.5219 19.194 30.3345 19.0919 30.3297C17.431 30.2525 16.5479 29.2986 16.2353 27.6968C14.275 27.4345 13.5056 26.7559 13.1809 25.0131C10.5073 24.5568 9.50708 22.9367 10.5171 20.5977C10.3447 20.4679 10.1672 20.318 9.97498 20.1922C8.99087 19.5482 8.00894 18.9 7.00963 18.2816C6.86407 18.1916 6.62882 18.2409 6.43591 18.248C5.99419 18.2642 5.50729 18.4309 5.1197 18.2939C3.73117 17.8033 2.37847 17.2063 1.00771 16.6614C0.492462 16.4567 0.237955 16.0202 0 15.5581C0.000135664 15.2793 0.000136625 15.0009 0.000136625 14.7224ZM11.8477 5.17857C10.377 9.01168 8.90649 12.8437 7.43331 16.6831C8.82577 17.5915 10.1646 18.4652 11.5273 19.3542C11.9437 18.8604 12.3358 18.3592 12.7646 17.894C14.226 16.3087 16.8076 16.9292 17.4269 19.0077C17.4902 19.22 17.5299 19.44 17.578 19.6457C19.4469 19.7984 20.1465 20.4091 20.6678 22.3248C22.4016 22.3567 23.4167 23.2731 23.724 25.0308C25.0261 24.9929 25.995 25.527 26.5187 26.7375C27.0426 27.9485 26.7212 29.0397 25.853 30.0526C26.3951 30.3954 26.8676 30.7799 27.4027 31.011C28.0912 31.3083 28.8727 30.9292 29.2002 30.254C29.53 29.574 29.3672 28.9116 28.7512 28.422C28.363 28.1135 27.9691 27.8123 27.59 27.4925C27.1782 27.1451 27.1069 26.7237 27.3751 26.3549C27.6497 25.9774 28.097 25.9444 28.5395 26.2754C28.731 26.4187 28.9125 26.5757 29.1015 26.7223C29.7495 27.2247 30.3828 27.7499 31.0523 28.2203C31.7787 28.7304 32.6956 28.5572 33.1741 27.8714C33.6575 27.1787 33.4966 26.2948 32.7812 25.7258C32.1524 25.2256 31.5172 24.7339 30.894 24.2265C30.4877 23.8958 30.4087 23.4519 30.6662 23.0887C30.9424 22.6991 31.3733 22.6609 31.8259 22.9953C32.0455 23.1576 32.254 23.3357 32.4697 23.5039C33.211 24.0818 33.9337 24.6874 34.7005 25.227C35.4164 25.7309 36.3571 25.5227 36.8123 24.8279C37.2781 24.1175 37.1184 23.2895 36.4083 22.727C35.658 22.1325 34.9037 21.5433 34.1607 20.9393C33.8702 20.7032 33.7029 20.3566 33.9213 20.0249C34.0692 19.8 34.3643 19.61 34.6239 19.5538C34.8053 19.5146 35.0628 19.695 35.2446 19.8348C36.2879 20.6362 37.3113 21.465 38.3562 22.2642C39.1608 22.8797 40.0593 22.7713 40.6006 22.0274C41.1136 21.3226 40.9296 20.3392 40.1451 19.7406C38.2572 18.3003 36.364 16.8673 34.4609 15.4484C34.2901 15.3211 34.0249 15.2486 33.814 15.2688C30.5215 15.5837 27.7246 14.4812 25.3659 12.1502C25.036 11.8241 24.8438 11.8104 24.5016 12.123C23.3573 13.1685 22.1126 14.0641 20.6349 14.5531C19.1154 15.0561 17.6644 14.9635 16.3418 13.9599C14.9157 12.8776 14.9825 11.3332 16.4139 10.2708C17.8655 9.19353 19.2513 8.02251 20.6698 6.89793C20.7863 6.80548 20.9337 6.75416 21.0668 6.68373C21.0248 6.6002 20.983 6.51652 20.9411 6.43299C19.9044 6.34387 18.8686 6.23844 17.8306 6.16997C16.5668 6.08658 15.2914 6.10959 14.0399 5.93973C13.3072 5.83988 12.6111 5.454 11.8477 5.17857ZM10.9478 3.25449C9.53407 2.68104 8.1583 2.12322 6.74536 1.55005C4.99611 6.10917 3.26015 10.6336 1.51618 15.179C2.94215 15.7565 4.3034 16.3079 5.7177 16.8808C7.46696 12.3232 9.19817 7.81305 10.9478 3.25449ZM13.0097 23.4064C13.141 23.3501 13.4732 23.3091 13.6447 23.1166C14.4078 22.2599 15.1578 21.3861 15.8454 20.4654C16.2216 19.9618 16.0301 19.2319 15.5433 18.8374C15.0791 18.4613 14.3734 18.4427 13.9654 18.8953C13.2313 19.7094 12.5343 20.5612 11.8579 21.4269C11.5614 21.8064 11.5781 22.2772 11.7945 22.7097C12.012 23.1453 12.3776 23.3683 13.0097 23.4064ZM14.6482 24.7628C14.7243 25.319 15.0315 25.7886 15.4945 25.9813C16.0061 26.1941 16.5179 26.0824 16.9185 25.6175C17.5459 24.8895 18.1616 24.1503 18.7609 23.3977C19.2562 22.7755 19.1932 22.0078 18.6435 21.541C18.0981 21.078 17.3614 21.1572 16.8424 21.7625C16.2391 22.466 15.6413 23.1755 15.0719 23.9079C14.8817 24.1525 14.7867 24.4756 14.6482 24.7628ZM22.2746 31.4355C22.402 31.3734 22.7208 31.3125 22.8956 31.1161C23.636 30.2845 24.3609 29.4348 25.036 28.547C25.4155 28.0479 25.2599 27.307 24.7951 26.9012C24.3311 26.4961 23.5972 26.4606 23.1781 26.9259C22.4332 27.7526 21.7259 28.6183 21.0474 29.5036C20.7561 29.8835 20.7952 30.3601 21.0311 30.7852C21.2674 31.2112 21.6409 31.4173 22.2746 31.4355ZM19.0863 28.8137C19.351 28.6791 19.6822 28.6074 19.8684 28.3991C20.5877 27.5944 21.285 26.7656 21.9423 25.9067C22.3416 25.3849 22.2029 24.6407 21.7162 24.2212C21.235 23.8066 20.5343 23.7764 20.1023 24.2537C19.3671 25.0665 18.6712 25.9195 17.9973 26.7872C17.6887 27.1846 17.7064 27.6664 17.9618 28.1114C18.2041 28.5337 18.5716 28.7459 19.0863 28.8137Z" fill="black" fill-opacity="0.2"/>
</svg>
