<svg width="56" height="56" viewBox="0 0 56 56" fill="none" xmlns="http://www.w3.org/2000/svg">
<path d="M2 18.4663C2.2217 18.0932 2.53158 17.8537 2.99668 17.9976C3.46408 18.1421 3.52758 18.5206 3.52717 18.9406C3.52161 24.7602 3.52337 30.5799 3.52337 36.3995C3.52337 36.5929 3.52337 36.7862 3.52337 37.0205C14.2798 37.0205 25.0134 37.0205 35.807 37.0205C35.807 36.8386 35.807 36.6654 35.807 36.4922C35.807 29.1487 35.8073 21.8052 35.8068 14.4618C35.8066 13.315 35.3866 12.9122 34.1936 12.9101C33.7704 12.9094 33.3471 12.9178 32.9242 12.9075C32.3736 12.8942 32.048 12.6063 32.0571 12.1603C32.0659 11.7322 32.3799 11.463 32.9074 11.4539C33.4489 11.4447 33.9907 11.4443 34.5322 11.4535C36.1363 11.4811 37.2988 12.5941 37.3268 14.1413C37.3425 15.0126 37.3296 15.8842 37.3296 16.8091C37.7103 16.8091 38.0441 16.8091 38.3778 16.8091C40.1382 16.8091 41.8985 16.8081 43.6589 16.8094C45.579 16.8108 46.7551 17.9322 46.7578 19.7809C46.7631 23.2662 46.7594 26.7516 46.7594 30.2368C46.7594 30.4129 46.7594 30.589 46.7594 30.8365C46.9743 30.8365 47.1533 30.8365 47.3321 30.8365C48.5339 30.8365 49.7357 30.8301 50.9374 30.8381C52.7825 30.8503 53.9949 32.0099 53.9971 33.7656C54.001 36.8943 54.001 40.0231 53.9971 43.1516C53.9949 44.896 52.8 46.0415 50.9787 46.0565C50.5571 46.06 50.1354 46.057 49.6863 46.057C49.6433 46.1797 49.6043 46.2817 49.5717 46.3856C48.9626 48.3238 47.2454 49.5857 45.2258 49.5779C43.2299 49.5702 41.4984 48.3137 40.9254 46.4024C40.8159 46.0372 40.6085 46.0558 40.3338 46.056C37.3886 46.0576 34.4434 46.057 31.4982 46.057C31.3628 46.057 31.2273 46.0604 31.092 46.0558C30.523 46.0365 30.2069 45.7767 30.204 45.3294C30.2012 44.8762 30.5072 44.6063 31.0813 44.6023C32.4523 44.5926 33.8233 44.5985 35.1943 44.5981C35.3765 44.5981 35.5588 44.5981 35.7738 44.5981C35.7738 42.5604 35.7738 40.5762 35.7738 38.5562C25.0434 38.5562 14.3219 38.5562 3.55702 38.5562C3.54617 38.6895 3.52514 38.8284 3.52487 38.9672C3.52243 40.3775 3.52093 41.7878 3.52433 43.1982C3.52663 44.1445 3.99268 44.5854 4.99153 44.598C5.00849 44.5983 5.02559 44.5963 5.04227 44.5984C5.96053 44.7148 6.5301 44.564 6.89385 43.5221C7.47997 41.8431 9.35502 40.8765 11.1694 40.9955C13.121 41.1235 14.6985 42.3016 15.2115 44.0834C15.3384 44.5241 15.539 44.6102 15.976 44.6081C19.6659 44.5909 23.3559 44.5979 27.0459 44.5985C27.8584 44.5987 28.1927 44.8036 28.2064 45.304C28.2207 45.8244 27.8614 46.057 27.0385 46.057C23.3486 46.0574 19.6587 46.0571 15.9687 46.0571C15.7687 46.0571 15.5687 46.0571 15.3687 46.0571C15.402 46.0925 15.4352 46.1277 15.4683 46.163C15.0753 46.8122 14.7708 47.5338 14.271 48.096C13.1504 49.3564 11.6618 49.8221 9.97316 49.4636C8.29077 49.1066 7.15788 48.0948 6.64882 46.5085C6.5297 46.1373 6.37 46.0197 5.9859 46.05C5.5824 46.0818 5.17374 46.0671 4.76794 46.0541C3.50126 46.0135 2.54746 45.3398 2.12265 44.2007C2.09036 44.1141 2.04125 44.0333 2 43.9497C2 35.4554 2 26.9609 2 18.4663ZM52.4748 39.0013C51.7284 39.0013 51.0385 39.0132 50.3491 38.9982C49.5842 38.9817 48.98 38.6471 48.5604 38.0445C48.07 37.3403 48.0246 36.5812 48.4237 35.83C48.8348 35.0565 49.5351 34.6682 50.432 34.6361C51.1009 34.6122 51.7716 34.6314 52.4748 34.6314C52.4748 34.4529 52.4738 34.3417 52.4749 34.2306C52.491 32.6778 52.1006 32.296 50.4955 32.2959C47.1105 32.2959 43.7255 32.2972 40.3407 32.2947C39.6156 32.2942 39.3711 32.0565 39.3707 31.3585C39.3688 27.7924 39.3688 24.2264 39.3706 20.6603C39.371 19.9399 39.6117 19.7157 40.3812 19.7141C41.6506 19.7114 42.92 19.7133 44.1893 19.7133C44.5224 19.7133 44.8553 19.7133 45.1713 19.7133C45.3598 18.9689 44.6293 18.2506 43.8209 18.2605C41.7734 18.2857 39.7252 18.268 37.6773 18.2707C37.5666 18.2708 37.4558 18.3 37.3584 18.3137C37.3584 27.08 37.3584 35.8117 37.3584 44.5985C38.3628 44.5985 39.3407 44.5827 40.3176 44.6066C40.6903 44.6157 40.8276 44.5041 40.9239 44.1502C41.4311 42.2887 43.2115 40.9957 45.226 40.9815C47.2134 40.9675 48.9709 42.2274 49.541 44.074C49.5923 44.24 49.6466 44.4052 49.7059 44.5909C50.2193 44.5909 50.7099 44.6171 51.1963 44.5849C51.9715 44.5333 52.4571 44.0246 52.4714 43.2709C52.4851 42.5417 52.4748 41.8121 52.4749 41.0827C52.4749 40.4069 52.4748 39.7312 52.4748 39.0013ZM40.9218 21.1722C40.9218 24.4283 40.9218 27.6096 40.9218 30.8079C42.3598 30.8079 43.7695 30.8079 45.1931 30.8079C45.1931 27.5876 45.1931 24.3965 45.1931 21.1722C43.9016 21.1722 42.6526 21.1722 41.4034 21.1722C41.2546 21.1722 41.1058 21.1722 40.9218 21.1722ZM13.8846 45.2738C13.8821 43.7019 12.5455 42.429 10.9112 42.4422C9.26317 42.4554 7.9642 43.722 7.9756 45.3045C7.98672 46.8511 9.30536 48.1126 10.9173 48.119C12.5422 48.1254 13.887 46.836 13.8846 45.2738ZM42.2903 45.3002C42.302 46.8702 43.651 48.1421 45.2793 48.1188C46.8876 48.0956 48.2049 46.8167 48.2052 45.2783C48.2054 43.7136 46.8635 42.4335 45.2313 42.4415C43.5881 42.4493 42.2785 43.7223 42.2903 45.3002ZM52.448 36.1014C51.7355 36.1014 51.0468 36.073 50.3626 36.1125C49.9718 36.135 49.7193 36.3933 49.7044 36.7909C49.6897 37.1806 49.892 37.49 50.2928 37.5168C51.0067 37.5643 51.7265 37.5301 52.4482 37.5301C52.448 37.0318 52.448 36.5866 52.448 36.1014Z" fill="#587E27"/>
<path d="M2 18.4663C2.2217 18.0932 2.53158 17.8537 2.99668 17.9976C3.46408 18.1421 3.52758 18.5206 3.52717 18.9406C3.52161 24.7602 3.52337 30.5799 3.52337 36.3995C3.52337 36.5929 3.52337 36.7862 3.52337 37.0205C14.2798 37.0205 25.0134 37.0205 35.807 37.0205C35.807 36.8386 35.807 36.6654 35.807 36.4922C35.807 29.1487 35.8073 21.8052 35.8068 14.4618C35.8066 13.315 35.3866 12.9122 34.1936 12.9101C33.7704 12.9094 33.3471 12.9178 32.9242 12.9075C32.3736 12.8942 32.048 12.6063 32.0571 12.1603C32.0659 11.7322 32.3799 11.463 32.9074 11.4539C33.4489 11.4447 33.9907 11.4443 34.5322 11.4535C36.1363 11.4811 37.2988 12.5941 37.3268 14.1413C37.3425 15.0126 37.3296 15.8842 37.3296 16.8091C37.7103 16.8091 38.0441 16.8091 38.3778 16.8091C40.1382 16.8091 41.8985 16.8081 43.6589 16.8094C45.579 16.8108 46.7551 17.9322 46.7578 19.7809C46.7631 23.2662 46.7594 26.7516 46.7594 30.2368C46.7594 30.4129 46.7594 30.589 46.7594 30.8365C46.9743 30.8365 47.1533 30.8365 47.3321 30.8365C48.5339 30.8365 49.7357 30.8301 50.9374 30.8381C52.7825 30.8503 53.9949 32.0099 53.9971 33.7656C54.001 36.8943 54.001 40.0231 53.9971 43.1516C53.9949 44.896 52.8 46.0415 50.9787 46.0565C50.5571 46.06 50.1354 46.057 49.6863 46.057C49.6433 46.1797 49.6043 46.2817 49.5717 46.3856C48.9626 48.3238 47.2454 49.5857 45.2258 49.5779C43.2299 49.5702 41.4984 48.3137 40.9254 46.4024C40.8159 46.0372 40.6085 46.0558 40.3338 46.056C37.3886 46.0576 34.4434 46.057 31.4982 46.057C31.3628 46.057 31.2273 46.0604 31.092 46.0558C30.523 46.0365 30.2069 45.7767 30.204 45.3294C30.2012 44.8762 30.5072 44.6063 31.0813 44.6023C32.4523 44.5926 33.8233 44.5985 35.1943 44.5981C35.3765 44.5981 35.5588 44.5981 35.7738 44.5981C35.7738 42.5604 35.7738 40.5762 35.7738 38.5562C25.0434 38.5562 14.3219 38.5562 3.55702 38.5562C3.54617 38.6895 3.52514 38.8284 3.52487 38.9672C3.52243 40.3775 3.52093 41.7878 3.52433 43.1982C3.52663 44.1445 3.99268 44.5854 4.99153 44.598C5.00849 44.5983 5.02559 44.5963 5.04227 44.5984C5.96053 44.7148 6.5301 44.564 6.89385 43.5221C7.47997 41.8431 9.35502 40.8765 11.1694 40.9955C13.121 41.1235 14.6985 42.3016 15.2115 44.0834C15.3384 44.5241 15.539 44.6102 15.976 44.6081C19.6659 44.5909 23.3559 44.5979 27.0459 44.5985C27.8584 44.5987 28.1927 44.8036 28.2064 45.304C28.2207 45.8244 27.8614 46.057 27.0385 46.057C23.3486 46.0574 19.6587 46.0571 15.9687 46.0571C15.7687 46.0571 15.5687 46.0571 15.3687 46.0571C15.402 46.0925 15.4352 46.1277 15.4683 46.163C15.0753 46.8122 14.7708 47.5338 14.271 48.096C13.1504 49.3564 11.6618 49.8221 9.97316 49.4636C8.29077 49.1066 7.15788 48.0948 6.64882 46.5085C6.5297 46.1373 6.37 46.0197 5.9859 46.05C5.5824 46.0818 5.17374 46.0671 4.76794 46.0541C3.50126 46.0135 2.54746 45.3398 2.12265 44.2007C2.09036 44.1141 2.04125 44.0333 2 43.9497C2 35.4554 2 26.9609 2 18.4663ZM52.4748 39.0013C51.7284 39.0013 51.0385 39.0132 50.3491 38.9982C49.5842 38.9817 48.98 38.6471 48.5604 38.0445C48.07 37.3403 48.0246 36.5812 48.4237 35.83C48.8348 35.0565 49.5351 34.6682 50.432 34.6361C51.1009 34.6122 51.7716 34.6314 52.4748 34.6314C52.4748 34.4529 52.4738 34.3417 52.4749 34.2306C52.491 32.6778 52.1006 32.296 50.4955 32.2959C47.1105 32.2959 43.7255 32.2972 40.3407 32.2947C39.6156 32.2942 39.3711 32.0565 39.3707 31.3585C39.3688 27.7924 39.3688 24.2264 39.3706 20.6603C39.371 19.9399 39.6117 19.7157 40.3812 19.7141C41.6506 19.7114 42.92 19.7133 44.1893 19.7133C44.5224 19.7133 44.8553 19.7133 45.1713 19.7133C45.3598 18.9689 44.6293 18.2506 43.8209 18.2605C41.7734 18.2857 39.7252 18.268 37.6773 18.2707C37.5666 18.2708 37.4558 18.3 37.3584 18.3137C37.3584 27.08 37.3584 35.8117 37.3584 44.5985C38.3628 44.5985 39.3407 44.5827 40.3176 44.6066C40.6903 44.6157 40.8276 44.5041 40.9239 44.1502C41.4311 42.2887 43.2115 40.9957 45.226 40.9815C47.2134 40.9675 48.9709 42.2274 49.541 44.074C49.5923 44.24 49.6466 44.4052 49.7059 44.5909C50.2193 44.5909 50.7099 44.6171 51.1963 44.5849C51.9715 44.5333 52.4571 44.0246 52.4714 43.2709C52.4851 42.5417 52.4748 41.8121 52.4749 41.0827C52.4749 40.4069 52.4748 39.7312 52.4748 39.0013ZM40.9218 21.1722C40.9218 24.4283 40.9218 27.6096 40.9218 30.8079C42.3598 30.8079 43.7695 30.8079 45.1931 30.8079C45.1931 27.5876 45.1931 24.3965 45.1931 21.1722C43.9016 21.1722 42.6526 21.1722 41.4034 21.1722C41.2546 21.1722 41.1058 21.1722 40.9218 21.1722ZM13.8846 45.2738C13.8821 43.7019 12.5455 42.429 10.9112 42.4422C9.26317 42.4554 7.9642 43.722 7.9756 45.3045C7.98672 46.8511 9.30536 48.1126 10.9173 48.119C12.5422 48.1254 13.887 46.836 13.8846 45.2738ZM42.2903 45.3002C42.302 46.8702 43.651 48.1421 45.2793 48.1188C46.8876 48.0956 48.2049 46.8167 48.2052 45.2783C48.2054 43.7136 46.8635 42.4335 45.2313 42.4415C43.5881 42.4493 42.2785 43.7223 42.2903 45.3002ZM52.448 36.1014C51.7355 36.1014 51.0468 36.073 50.3626 36.1125C49.9718 36.135 49.7193 36.3933 49.7044 36.7909C49.6897 37.1806 49.892 37.49 50.2928 37.5168C51.0067 37.5643 51.7265 37.5301 52.4482 37.5301C52.448 37.0318 52.448 36.5866 52.448 36.1014Z" fill="black" fill-opacity="0.2"/>
<path d="M2 13.6034C2.3472 12.5753 2.95137 11.7359 4.12171 11.5468C4.92831 11.4165 5.77141 11.4527 6.59564 11.4823C6.99209 11.4966 7.20185 11.8071 7.19533 12.2017C7.18896 12.5944 6.89522 12.8832 6.44192 12.903C5.93558 12.9251 5.42733 12.9053 4.92004 12.9116C3.99594 12.9229 3.5322 13.377 3.52379 14.2722C3.52162 14.4989 3.5151 14.7261 3.52528 14.9524C3.5436 15.3615 3.50249 15.7497 3.04308 15.9266C2.58924 16.1013 2.27814 15.852 2 15.5486C2 14.9003 2 14.2519 2 13.6034Z" fill="#587E27"/>
<path d="M2 13.6034C2.3472 12.5753 2.95137 11.7359 4.12171 11.5468C4.92831 11.4165 5.77141 11.4527 6.59564 11.4823C6.99209 11.4966 7.20185 11.8071 7.19533 12.2017C7.18896 12.5944 6.89522 12.8832 6.44192 12.903C5.93558 12.9251 5.42733 12.9053 4.92004 12.9116C3.99594 12.9229 3.5322 13.377 3.52379 14.2722C3.52162 14.4989 3.5151 14.7261 3.52528 14.9524C3.5436 15.3615 3.50249 15.7497 3.04308 15.9266C2.58924 16.1013 2.27814 15.852 2 15.5486C2 14.9003 2 14.2519 2 13.6034Z" fill="black" fill-opacity="0.2"/>
<path d="M19.648 31.7746C20.4723 30.9837 21.2224 30.2379 22.0065 29.5268C22.2538 29.3024 22.5705 29.1041 22.8926 29.006C27.6821 27.5473 30.886 23.1918 30.62 18.4708C30.3484 13.6484 26.7697 9.65194 21.8444 8.67102C15.6122 7.42983 9.53443 11.6331 8.79092 17.7197C8.4056 20.8741 9.35656 23.6392 11.5469 26.0178C11.5804 26.0544 11.6165 26.0887 11.65 26.1252C12.0411 26.5493 12.072 26.9797 11.7336 27.2826C11.3785 27.6004 10.9546 27.5465 10.5399 27.1238C9.45018 26.0129 8.61156 24.7472 8.03317 23.3283C5.09103 16.1117 9.99804 8.14138 18.0164 7.10679C25.0075 6.20474 31.4512 11.1234 32.084 17.8448C32.607 23.4002 29.1494 28.4966 23.6387 30.316C23.3494 30.4115 23.0633 30.5849 22.8418 30.7881C21.9992 31.5619 21.1865 32.3656 20.3569 33.1526C19.8411 33.6421 19.4862 33.6425 18.9744 33.1564C18.1214 32.346 17.2816 31.5227 16.4184 30.7222C16.2332 30.5504 15.9835 30.4297 15.7443 30.3262C15.1141 30.0532 14.4642 29.8204 13.8396 29.5368C13.38 29.3281 13.2294 28.9076 13.4202 28.5301C13.6078 28.1586 14.0424 28.0451 14.5081 28.2298C15.2247 28.5143 15.9508 28.7775 16.6621 29.0739C16.8871 29.1677 17.1035 29.3134 17.2787 29.4791C18.0606 30.2191 18.826 30.9751 19.648 31.7746Z" fill="#587E27"/>
<path d="M19.648 31.7746C20.4723 30.9837 21.2224 30.2379 22.0065 29.5268C22.2538 29.3024 22.5705 29.1041 22.8926 29.006C27.6821 27.5473 30.886 23.1918 30.62 18.4708C30.3484 13.6484 26.7697 9.65194 21.8444 8.67102C15.6122 7.42983 9.53443 11.6331 8.79092 17.7197C8.4056 20.8741 9.35656 23.6392 11.5469 26.0178C11.5804 26.0544 11.6165 26.0887 11.65 26.1252C12.0411 26.5493 12.072 26.9797 11.7336 27.2826C11.3785 27.6004 10.9546 27.5465 10.5399 27.1238C9.45018 26.0129 8.61156 24.7472 8.03317 23.3283C5.09103 16.1117 9.99804 8.14138 18.0164 7.10679C25.0075 6.20474 31.4512 11.1234 32.084 17.8448C32.607 23.4002 29.1494 28.4966 23.6387 30.316C23.3494 30.4115 23.0633 30.5849 22.8418 30.7881C21.9992 31.5619 21.1865 32.3656 20.3569 33.1526C19.8411 33.6421 19.4862 33.6425 18.9744 33.1564C18.1214 32.346 17.2816 31.5227 16.4184 30.7222C16.2332 30.5504 15.9835 30.4297 15.7443 30.3262C15.1141 30.0532 14.4642 29.8204 13.8396 29.5368C13.38 29.3281 13.2294 28.9076 13.4202 28.5301C13.6078 28.1586 14.0424 28.0451 14.5081 28.2298C15.2247 28.5143 15.9508 28.7775 16.6621 29.0739C16.8871 29.1677 17.1035 29.3134 17.2787 29.4791C18.0606 30.2191 18.826 30.9751 19.648 31.7746Z" fill="black" fill-opacity="0.2"/>
<path d="M19.6764 12.1211C23.6275 12.1288 26.8027 15.1724 26.8069 18.956C26.8111 22.7482 23.5835 25.8432 19.6443 25.8245C15.7091 25.8058 12.5143 22.7413 12.502 18.9737C12.4895 15.1928 15.7135 12.1134 19.6764 12.1211ZM19.6563 13.5816C16.5485 13.5864 14.0336 15.9885 14.0285 18.9569C14.0233 21.9337 16.5982 24.3915 19.69 24.361C22.8035 24.3303 25.2913 21.9223 25.2815 18.9488C25.2716 15.968 22.7655 13.577 19.6563 13.5816Z" fill="#587E27"/>
<path d="M19.6764 12.1211C23.6275 12.1288 26.8027 15.1724 26.8069 18.956C26.8111 22.7482 23.5835 25.8432 19.6443 25.8245C15.7091 25.8058 12.5143 22.7413 12.502 18.9737C12.4895 15.1928 15.7135 12.1134 19.6764 12.1211ZM19.6563 13.5816C16.5485 13.5864 14.0336 15.9885 14.0285 18.9569C14.0233 21.9337 16.5982 24.3915 19.69 24.361C22.8035 24.3303 25.2913 21.9223 25.2815 18.9488C25.2716 15.968 22.7655 13.577 19.6563 13.5816Z" fill="black" fill-opacity="0.2"/>
<path d="M40.9855 36.0834C40.6811 36.0834 40.3756 36.1 40.0729 36.0794C39.6625 36.0514 39.4166 35.8149 39.3803 35.4306C39.3412 35.0167 39.5713 34.7021 39.9907 34.6693C40.6613 34.6168 41.3427 34.6164 42.0138 34.6665C42.4322 34.6978 42.6646 35.0033 42.6293 35.4228C42.5942 35.8395 42.3292 36.062 41.8983 36.0831C41.5948 36.098 41.2898 36.086 40.9855 36.086C40.9855 36.0851 40.9855 36.0843 40.9855 36.0834Z" fill="#587E27"/>
<path d="M40.9855 36.0834C40.6811 36.0834 40.3756 36.1 40.0729 36.0794C39.6625 36.0514 39.4166 35.8149 39.3803 35.4306C39.3412 35.0167 39.5713 34.7021 39.9907 34.6693C40.6613 34.6168 41.3427 34.6164 42.0138 34.6665C42.4322 34.6978 42.6646 35.0033 42.6293 35.4228C42.5942 35.8395 42.3292 36.062 41.8983 36.0831C41.5948 36.098 41.2898 36.086 40.9855 36.086C40.9855 36.0851 40.9855 36.0843 40.9855 36.0834Z" fill="black" fill-opacity="0.2"/>
</svg>
