<svg width="57" height="56" viewBox="0 0 57 56" fill="none" xmlns="http://www.w3.org/2000/svg">
<g clip-path="url(#clip0)">
<path d="M54.9102 27.8193H54.2539V19.9443V12.9443C54.2539 10.6183 52.4292 8.71112 50.1362 8.57746L49.0125 3.93613C48.6723 2.53099 47.2523 1.66453 45.8475 2.0049L18.6053 8.59988C18.533 8.58052 18.4573 8.56926 18.3789 8.56926H4.37891C1.96653 8.56926 0.00390625 10.5319 0.00390625 12.9443V49.6943C0.00390625 52.1066 1.96653 54.0693 4.37891 54.0693H49.8789C52.2913 54.0693 54.2539 52.1066 54.2539 49.6943V41.8193H54.9102C55.5132 41.8193 56.0039 41.3286 56.0039 40.7255V28.913C56.0039 28.3099 55.5132 27.8193 54.9102 27.8193ZM52.5039 12.9443V12.9461C52.0651 12.6159 51.5623 12.367 51.0179 12.2201L50.5811 10.4154C51.6885 10.7233 52.5039 11.74 52.5039 12.9443ZM4.37891 10.3193H11.5032L4.20445 12.0862C4.19986 12.0871 4.19548 12.0885 4.191 12.0895L4.17295 12.0939C4.17066 12.0944 4.16836 12.0953 4.16606 12.0959C4.14091 12.1022 4.1163 12.1095 4.09202 12.1178C4.08764 12.1194 4.08348 12.121 4.07922 12.1225C4.0568 12.1307 4.03481 12.1396 4.01316 12.1495C4.00703 12.1524 4.00113 12.1553 3.99511 12.1582C3.97608 12.1675 3.95738 12.1773 3.93922 12.1879C3.93167 12.1923 3.92423 12.1969 3.9168 12.2016C3.90072 12.2117 3.88486 12.2222 3.86944 12.2332C3.86123 12.2391 3.85325 12.2451 3.84527 12.2513C3.83105 12.2622 3.81727 12.2735 3.80381 12.2853C3.79594 12.2922 3.78828 12.2992 3.78073 12.3063C3.76772 12.3185 3.75514 12.331 3.74289 12.3439C3.736 12.3511 3.72933 12.3586 3.72277 12.3661C3.71062 12.3799 3.69881 12.3941 3.68755 12.4086C3.68186 12.4159 3.67639 12.4233 3.67103 12.4306C3.65977 12.4462 3.64905 12.462 3.63877 12.4782C3.63417 12.4854 3.6298 12.4928 3.62542 12.5002C3.61547 12.5169 3.60617 12.534 3.59742 12.5514C3.59348 12.5593 3.58977 12.5671 3.58605 12.575C3.57806 12.5922 3.57063 12.6095 3.56373 12.6272C3.56013 12.6365 3.55673 12.6459 3.55345 12.6553C3.54777 12.6717 3.54241 12.6882 3.53759 12.7052C3.5342 12.717 3.53125 12.729 3.52841 12.741C3.52491 12.7557 3.52163 12.7704 3.51889 12.7852C3.51605 12.8003 3.51397 12.8156 3.51189 12.8308C3.51025 12.8433 3.50872 12.8557 3.50763 12.8682C3.50609 12.886 3.50533 12.9039 3.50489 12.9218C3.50467 12.9291 3.5038 12.9362 3.5038 12.9435C3.5038 12.9476 3.50434 12.9516 3.50445 12.9557C3.50467 12.9731 3.50577 12.9905 3.50708 13.0081C3.50806 13.0209 3.50894 13.0337 3.51036 13.0464C3.51211 13.061 3.51452 13.0755 3.51703 13.0902C3.51966 13.1055 3.52228 13.1208 3.52567 13.1359C3.52677 13.1406 3.5272 13.1453 3.5283 13.15C3.53038 13.1583 3.53333 13.1662 3.53552 13.1744C3.53967 13.1898 3.54405 13.2051 3.54908 13.2202C3.55367 13.234 3.5587 13.2474 3.56395 13.2608C3.56888 13.2735 3.5738 13.2859 3.57937 13.2983C3.58627 13.3138 3.5937 13.3289 3.60136 13.3439C3.60617 13.3532 3.61098 13.3626 3.61613 13.3717C3.62564 13.3886 3.6357 13.4051 3.6462 13.4212C3.65058 13.4279 3.65495 13.4346 3.65944 13.4411C3.67147 13.4585 3.68416 13.4754 3.69739 13.4918C3.70133 13.4967 3.70538 13.5017 3.70953 13.5066C3.72375 13.5234 3.73852 13.5397 3.75394 13.5554C3.75798 13.5596 3.76203 13.5638 3.7663 13.5678C3.78216 13.5833 3.79845 13.5982 3.81541 13.6124C3.82 13.6163 3.82459 13.6201 3.8293 13.6239C3.84625 13.6376 3.86364 13.6507 3.88169 13.6631C3.88694 13.6668 3.8923 13.6704 3.89766 13.6739C3.9157 13.6858 3.93419 13.697 3.953 13.7076C3.95869 13.7108 3.96438 13.7138 3.97006 13.7169C3.98953 13.7272 4.00944 13.7367 4.02967 13.7455C4.03503 13.7478 4.04039 13.7502 4.04586 13.7524C4.06741 13.7614 4.08928 13.7693 4.11159 13.7765C4.11586 13.7778 4.12012 13.7792 4.12439 13.7805C4.14878 13.788 4.17339 13.7943 4.19844 13.7996C4.20084 13.8 4.20314 13.8007 4.20555 13.8011C4.23289 13.8067 4.26056 13.8108 4.28845 13.8138C4.289 13.8138 4.28955 13.8139 4.29009 13.814C4.31919 13.817 4.3485 13.8185 4.37814 13.8185C4.37836 13.8185 4.37869 13.8185 4.37891 13.8185H4.38109C4.39203 13.8185 4.40275 13.8189 4.41369 13.8185H45.5039C45.9871 13.8185 46.3789 13.4267 46.3789 12.9435C46.3789 12.4603 45.9871 12.0685 45.5039 12.0685H11.7141L46.2591 3.70568C46.7265 3.59226 47.1986 3.88068 47.3117 4.34793L49.1808 12.0687H49.0043C48.5211 12.0687 48.1293 12.4605 48.1293 12.9437C48.1293 13.4269 48.5211 13.8187 49.0043 13.8187H49.8789C49.967 13.8187 50.054 13.8233 50.1399 13.8317C50.1738 13.8381 50.2082 13.8422 50.243 13.8445C51.5187 14.0224 52.5039 15.1198 52.5039 16.4437V16.4467C51.7722 15.8961 50.8631 15.5693 49.8789 15.5693H4.37891C2.93144 15.5693 1.75391 14.3916 1.75391 12.9443C1.75391 11.4969 2.93155 10.3193 4.37891 10.3193ZM52.5039 49.6943C52.5039 51.1416 51.3264 52.3193 49.8789 52.3193H4.37891C2.93144 52.3193 1.75391 51.1416 1.75391 49.6943V16.4419C2.48563 16.9924 3.39475 17.3193 4.37891 17.3193H49.8789C51.3263 17.3193 52.5039 18.4969 52.5039 19.9443V27.8193H39.7073C39.0438 27.8193 38.5039 28.3591 38.5039 29.0226V40.6159C38.5039 41.2794 39.0438 41.8193 39.7073 41.8193H52.5039V49.6943ZM54.2539 40.0693H40.2539V29.5693H53.3662C53.3705 29.5693 53.3746 29.5699 53.3789 29.5699C53.3832 29.5699 53.3873 29.5694 53.3916 29.5693H54.2539V40.0693Z" fill="#587E27"/>
<path d="M54.9102 27.8193H54.2539V19.9443V12.9443C54.2539 10.6183 52.4292 8.71112 50.1362 8.57746L49.0125 3.93613C48.6723 2.53099 47.2523 1.66453 45.8475 2.0049L18.6053 8.59988C18.533 8.58052 18.4573 8.56926 18.3789 8.56926H4.37891C1.96653 8.56926 0.00390625 10.5319 0.00390625 12.9443V49.6943C0.00390625 52.1066 1.96653 54.0693 4.37891 54.0693H49.8789C52.2913 54.0693 54.2539 52.1066 54.2539 49.6943V41.8193H54.9102C55.5132 41.8193 56.0039 41.3286 56.0039 40.7255V28.913C56.0039 28.3099 55.5132 27.8193 54.9102 27.8193ZM52.5039 12.9443V12.9461C52.0651 12.6159 51.5623 12.367 51.0179 12.2201L50.5811 10.4154C51.6885 10.7233 52.5039 11.74 52.5039 12.9443ZM4.37891 10.3193H11.5032L4.20445 12.0862C4.19986 12.0871 4.19548 12.0885 4.191 12.0895L4.17295 12.0939C4.17066 12.0944 4.16836 12.0953 4.16606 12.0959C4.14091 12.1022 4.1163 12.1095 4.09202 12.1178C4.08764 12.1194 4.08348 12.121 4.07922 12.1225C4.0568 12.1307 4.03481 12.1396 4.01316 12.1495C4.00703 12.1524 4.00113 12.1553 3.99511 12.1582C3.97608 12.1675 3.95738 12.1773 3.93922 12.1879C3.93167 12.1923 3.92423 12.1969 3.9168 12.2016C3.90072 12.2117 3.88486 12.2222 3.86944 12.2332C3.86123 12.2391 3.85325 12.2451 3.84527 12.2513C3.83105 12.2622 3.81727 12.2735 3.80381 12.2853C3.79594 12.2922 3.78828 12.2992 3.78073 12.3063C3.76772 12.3185 3.75514 12.331 3.74289 12.3439C3.736 12.3511 3.72933 12.3586 3.72277 12.3661C3.71062 12.3799 3.69881 12.3941 3.68755 12.4086C3.68186 12.4159 3.67639 12.4233 3.67103 12.4306C3.65977 12.4462 3.64905 12.462 3.63877 12.4782C3.63417 12.4854 3.6298 12.4928 3.62542 12.5002C3.61547 12.5169 3.60617 12.534 3.59742 12.5514C3.59348 12.5593 3.58977 12.5671 3.58605 12.575C3.57806 12.5922 3.57063 12.6095 3.56373 12.6272C3.56013 12.6365 3.55673 12.6459 3.55345 12.6553C3.54777 12.6717 3.54241 12.6882 3.53759 12.7052C3.5342 12.717 3.53125 12.729 3.52841 12.741C3.52491 12.7557 3.52163 12.7704 3.51889 12.7852C3.51605 12.8003 3.51397 12.8156 3.51189 12.8308C3.51025 12.8433 3.50872 12.8557 3.50763 12.8682C3.50609 12.886 3.50533 12.9039 3.50489 12.9218C3.50467 12.9291 3.5038 12.9362 3.5038 12.9435C3.5038 12.9476 3.50434 12.9516 3.50445 12.9557C3.50467 12.9731 3.50577 12.9905 3.50708 13.0081C3.50806 13.0209 3.50894 13.0337 3.51036 13.0464C3.51211 13.061 3.51452 13.0755 3.51703 13.0902C3.51966 13.1055 3.52228 13.1208 3.52567 13.1359C3.52677 13.1406 3.5272 13.1453 3.5283 13.15C3.53038 13.1583 3.53333 13.1662 3.53552 13.1744C3.53967 13.1898 3.54405 13.2051 3.54908 13.2202C3.55367 13.234 3.5587 13.2474 3.56395 13.2608C3.56888 13.2735 3.5738 13.2859 3.57937 13.2983C3.58627 13.3138 3.5937 13.3289 3.60136 13.3439C3.60617 13.3532 3.61098 13.3626 3.61613 13.3717C3.62564 13.3886 3.6357 13.4051 3.6462 13.4212C3.65058 13.4279 3.65495 13.4346 3.65944 13.4411C3.67147 13.4585 3.68416 13.4754 3.69739 13.4918C3.70133 13.4967 3.70538 13.5017 3.70953 13.5066C3.72375 13.5234 3.73852 13.5397 3.75394 13.5554C3.75798 13.5596 3.76203 13.5638 3.7663 13.5678C3.78216 13.5833 3.79845 13.5982 3.81541 13.6124C3.82 13.6163 3.82459 13.6201 3.8293 13.6239C3.84625 13.6376 3.86364 13.6507 3.88169 13.6631C3.88694 13.6668 3.8923 13.6704 3.89766 13.6739C3.9157 13.6858 3.93419 13.697 3.953 13.7076C3.95869 13.7108 3.96438 13.7138 3.97006 13.7169C3.98953 13.7272 4.00944 13.7367 4.02967 13.7455C4.03503 13.7478 4.04039 13.7502 4.04586 13.7524C4.06741 13.7614 4.08928 13.7693 4.11159 13.7765C4.11586 13.7778 4.12012 13.7792 4.12439 13.7805C4.14878 13.788 4.17339 13.7943 4.19844 13.7996C4.20084 13.8 4.20314 13.8007 4.20555 13.8011C4.23289 13.8067 4.26056 13.8108 4.28845 13.8138C4.289 13.8138 4.28955 13.8139 4.29009 13.814C4.31919 13.817 4.3485 13.8185 4.37814 13.8185C4.37836 13.8185 4.37869 13.8185 4.37891 13.8185H4.38109C4.39203 13.8185 4.40275 13.8189 4.41369 13.8185H45.5039C45.9871 13.8185 46.3789 13.4267 46.3789 12.9435C46.3789 12.4603 45.9871 12.0685 45.5039 12.0685H11.7141L46.2591 3.70568C46.7265 3.59226 47.1986 3.88068 47.3117 4.34793L49.1808 12.0687H49.0043C48.5211 12.0687 48.1293 12.4605 48.1293 12.9437C48.1293 13.4269 48.5211 13.8187 49.0043 13.8187H49.8789C49.967 13.8187 50.054 13.8233 50.1399 13.8317C50.1738 13.8381 50.2082 13.8422 50.243 13.8445C51.5187 14.0224 52.5039 15.1198 52.5039 16.4437V16.4467C51.7722 15.8961 50.8631 15.5693 49.8789 15.5693H4.37891C2.93144 15.5693 1.75391 14.3916 1.75391 12.9443C1.75391 11.4969 2.93155 10.3193 4.37891 10.3193ZM52.5039 49.6943C52.5039 51.1416 51.3264 52.3193 49.8789 52.3193H4.37891C2.93144 52.3193 1.75391 51.1416 1.75391 49.6943V16.4419C2.48563 16.9924 3.39475 17.3193 4.37891 17.3193H49.8789C51.3263 17.3193 52.5039 18.4969 52.5039 19.9443V27.8193H39.7073C39.0438 27.8193 38.5039 28.3591 38.5039 29.0226V40.6159C38.5039 41.2794 39.0438 41.8193 39.7073 41.8193H52.5039V49.6943ZM54.2539 40.0693H40.2539V29.5693H53.3662C53.3705 29.5693 53.3746 29.5699 53.3789 29.5699C53.3832 29.5699 53.3873 29.5694 53.3916 29.5693H54.2539V40.0693Z" fill="black" fill-opacity="0.2"/>
<path d="M47.2539 33.9441C46.7707 33.9441 46.3789 34.3359 46.3789 34.8191C46.3789 35.3015 45.9864 35.6941 45.5039 35.6941C45.0215 35.6941 44.6289 35.3015 44.6289 34.8191C44.6289 34.3366 45.0215 33.9441 45.5039 33.9441C45.9871 33.9441 46.3789 33.5523 46.3789 33.0691C46.3789 32.5859 45.9871 32.1941 45.5039 32.1941C44.0564 32.1941 42.8789 33.3717 42.8789 34.8191C42.8789 36.2665 44.0564 37.4441 45.5039 37.4441C46.9514 37.4441 48.1289 36.2665 48.1289 34.8191C48.1289 34.3359 47.7371 33.9441 47.2539 33.9441Z" fill="#587E27"/>
<path d="M47.2539 33.9441C46.7707 33.9441 46.3789 34.3359 46.3789 34.8191C46.3789 35.3015 45.9864 35.6941 45.5039 35.6941C45.0215 35.6941 44.6289 35.3015 44.6289 34.8191C44.6289 34.3366 45.0215 33.9441 45.5039 33.9441C45.9871 33.9441 46.3789 33.5523 46.3789 33.0691C46.3789 32.5859 45.9871 32.1941 45.5039 32.1941C44.0564 32.1941 42.8789 33.3717 42.8789 34.8191C42.8789 36.2665 44.0564 37.4441 45.5039 37.4441C46.9514 37.4441 48.1289 36.2665 48.1289 34.8191C48.1289 34.3359 47.7371 33.9441 47.2539 33.9441Z" fill="black" fill-opacity="0.2"/>
</g>
<defs>
<clipPath id="clip0">
<rect width="56" height="56" fill="white" transform="translate(0.00390625)"/>
</clipPath>
</defs>
</svg>
