<svg width="56" height="56" viewBox="0 0 56 56" fill="none" xmlns="http://www.w3.org/2000/svg">
<g clip-path="url(#clip0)">
<path d="M53.2973 10.605H49.344C49.3579 10.5119 49.3674 10.4174 49.3674 10.3205V4.13438C49.3674 3.07289 48.5038 2.20927 47.4424 2.20927H39.0467C37.9852 2.20927 37.1217 3.07289 37.1217 4.13438V10.3206C37.1217 10.4175 37.1312 10.512 37.1451 10.6051H35.2039C35.2178 10.512 35.2273 10.4176 35.2273 10.3207V4.57625C35.2273 3.51487 34.3637 2.65125 33.3023 2.65125H27.9178C27.4647 2.65125 27.0975 3.01842 27.0975 3.47156C27.0975 3.9247 27.4647 4.29188 27.9178 4.29188H33.3023C33.4591 4.29188 33.5867 4.41941 33.5867 4.57625V10.3206C33.5867 10.4775 33.459 10.605 33.3023 10.605H22.6973C22.5405 10.605 22.4129 10.4775 22.4129 10.3206V4.57625C22.4129 4.41941 22.5406 4.29188 22.6973 4.29188H24.0896C24.5427 4.29188 24.91 3.9247 24.91 3.47156C24.91 3.01842 24.5427 2.65125 24.0896 2.65125H22.6973C21.6358 2.65125 20.7723 3.51487 20.7723 4.57625V10.3206C20.7723 10.4174 20.7818 10.5119 20.7957 10.605H18.8545C18.8684 10.5119 18.8779 10.4174 18.8779 10.3205V1.925C18.8779 0.863625 18.0143 0 16.9529 0H8.55731C7.49582 0 6.63231 0.863625 6.63231 1.925V10.3206C6.63231 10.4175 6.64182 10.512 6.65571 10.6051H2.70235C1.76271 10.6051 0.998291 11.3695 0.998291 12.3092V14.0767C0.998291 15.0163 1.76271 15.7807 2.70235 15.7807H3.09731V38.0144C3.09731 38.4675 3.46459 38.8347 3.91762 38.8347C4.37065 38.8347 4.73793 38.4675 4.73793 38.0144V15.7806H6.63231V54.2959C6.63231 54.3309 6.60387 54.3594 6.56887 54.3594H4.80137C4.76637 54.3594 4.73793 54.3309 4.73793 54.2959V41.8425C4.73793 41.3894 4.37065 41.0222 3.91762 41.0222C3.46459 41.0222 3.09731 41.3894 3.09731 41.8425V54.2959C3.09731 55.2356 3.86173 56 4.80137 56H6.56887C7.50851 56 8.27293 55.2356 8.27293 54.2959V51.3517H47.7267V54.2959C47.7267 55.2356 48.4911 56 49.4307 56H51.1982C52.1379 56 52.9023 55.2356 52.9023 54.2959V24.1642C52.9023 23.7111 52.535 23.3439 52.082 23.3439C51.629 23.3439 51.2617 23.7111 51.2617 24.1642V54.2959C51.2617 54.3309 51.2332 54.3594 51.1982 54.3594H49.4307C49.3957 54.3594 49.3673 54.3309 49.3673 54.2959V15.7806H51.2617V20.336C51.2617 20.7891 51.629 21.1563 52.082 21.1563C52.535 21.1563 52.9023 20.7891 52.9023 20.336V15.7806H53.2973C54.2369 15.7806 55.0013 15.0162 55.0013 14.0766V12.3091C55.0013 11.3694 54.2369 10.605 53.2973 10.605ZM38.7623 4.13438C38.7623 3.97753 38.8899 3.84989 39.0467 3.84989H47.4423C47.5991 3.84989 47.7267 3.97753 47.7267 4.13438V10.3206C47.7267 10.4775 47.599 10.6051 47.4423 10.6051H39.0467C38.8898 10.6051 38.7623 10.4775 38.7623 10.3206V4.13438ZM11.8078 1.64062H13.7022V3.82583L13.0431 3.57864C12.8574 3.50897 12.6527 3.50897 12.4669 3.57864L11.8078 3.82583V1.64062ZM8.27282 1.925C8.27282 1.76816 8.40046 1.64062 8.5572 1.64062H10.1672V5.00959C10.1672 5.27866 10.2991 5.53066 10.5203 5.68378C10.7414 5.83702 11.0235 5.87213 11.2756 5.77763L12.755 5.22277L14.2344 5.77763C14.3278 5.81262 14.4254 5.82991 14.5224 5.82991C14.6871 5.82991 14.8505 5.78025 14.9896 5.68378C15.2108 5.53066 15.3427 5.27866 15.3427 5.00959V1.64062H16.9529C17.1098 1.64062 17.2373 1.76816 17.2373 1.925V10.3206C17.2373 10.4775 17.1097 10.6051 16.9529 10.6051H8.55731C8.40046 10.6051 8.27293 10.4775 8.27293 10.3206V1.925H8.27282ZM47.7267 49.711H8.27293V47.8167H47.7267V49.711ZM8.27293 45.9013V37.5036C8.27348 37.3473 8.40079 37.2202 8.5572 37.2202H14.7436C14.9004 37.2202 15.0279 37.3478 15.0279 37.5047V45.9003C15.0279 46.0343 14.9345 46.1461 14.8097 46.176H8.49113C8.36656 46.1461 8.27348 46.0347 8.27293 45.9013ZM22.4129 45.9002V37.4959C22.4129 37.3391 22.5406 37.2116 22.6973 37.2116H33.3023C33.4591 37.2116 33.5867 37.3391 33.5867 37.4959V45.9002C33.5867 46.0342 33.4933 46.146 33.3684 46.1759H22.6311C22.5063 46.146 22.4129 46.0342 22.4129 45.9002ZM47.7267 45.9013C47.7261 46.0347 47.6331 46.1461 47.5085 46.176H38.9806C38.8557 46.1461 38.7623 46.0342 38.7623 45.9003V37.5047C38.7623 37.3478 38.8899 37.2202 39.0467 37.2202H40.6567V40.5892C40.6567 40.8582 40.7886 41.1102 41.0097 41.2634C41.2308 41.4165 41.5131 41.4517 41.765 41.3572L43.2445 40.8025L44.724 41.3572C44.8174 41.3922 44.915 41.4095 45.012 41.4095C45.1767 41.4095 45.3401 41.3598 45.4792 41.2634C45.7004 41.1102 45.8323 40.8582 45.8323 40.5892V37.2202H47.4423C47.5987 37.2202 47.726 37.3473 47.7266 37.5036V45.9013H47.7267ZM42.2973 39.4054V37.2202H44.1917V39.4054L43.5325 39.1582C43.3468 39.0885 43.1422 39.0885 42.9564 39.1582L42.2973 39.4054ZM47.7267 35.603C47.6336 35.5891 47.5392 35.5796 47.4424 35.5796H39.0467C37.9852 35.5796 37.1217 36.4432 37.1217 37.5047V45.9003C37.1217 45.9942 37.1308 46.0858 37.1438 46.176H35.2052C35.2182 46.0857 35.2273 45.9942 35.2273 45.9003V37.4959C35.2273 36.4346 34.3637 35.5709 33.3023 35.5709H22.6973C21.6358 35.5709 20.7723 36.4346 20.7723 37.4959V45.9002C20.7723 45.994 20.7814 46.0857 20.7944 46.1759H16.6465C16.6595 46.0856 16.6686 45.994 16.6686 45.9002V37.5046C16.6686 36.4431 15.805 35.5795 14.7436 35.5795H8.5572C8.4604 35.5795 8.3659 35.589 8.27293 35.6029V33.6766H47.7267V35.603ZM47.7267 32.0359H8.27293V30.1416H47.7267V32.0359ZM10.5203 23.5882C10.7414 23.7415 11.0237 23.7766 11.2755 23.6821L12.755 23.1273L14.2345 23.6821C14.3279 23.7171 14.4255 23.7344 14.5225 23.7344C14.6872 23.7344 14.8506 23.6847 14.9898 23.5882C15.2109 23.4351 15.3428 23.1831 15.3428 22.9141V19.5451H16.9529C17.1098 19.5451 17.2373 19.6727 17.2373 19.8296V28.2252C17.2373 28.3591 17.1441 28.4709 17.0193 28.5009H8.49081C8.36645 28.4709 8.27348 28.3595 8.27293 28.2262V19.8285C8.27348 19.6722 8.40079 19.5451 8.5572 19.5451H10.1672V22.9141C10.1672 23.1831 10.2992 23.4351 10.5203 23.5882ZM11.8078 21.7304V19.5452H13.7022V21.7304L13.043 21.4832C12.8573 21.4135 12.6527 21.4135 12.4669 21.4832L11.8078 21.7304ZM22.4129 28.2252V22.4807C22.4129 22.3239 22.5406 22.1963 22.6973 22.1963H33.3023C33.4591 22.1963 33.5867 22.3239 33.5867 22.4807V28.2252C33.5867 28.3591 33.4935 28.4709 33.3687 28.5009H22.6308C22.5061 28.4709 22.4129 28.359 22.4129 28.2252ZM47.7267 28.2262C47.7261 28.3595 47.6332 28.4709 47.5088 28.5009H38.9803C38.8556 28.4709 38.7623 28.359 38.7623 28.2252V19.8296C38.7623 19.6727 38.8899 19.5451 39.0467 19.5451H47.4423C47.5987 19.5451 47.726 19.6722 47.7266 19.8285V28.2262H47.7267ZM47.7267 17.9279C47.6336 17.914 47.5392 17.9045 47.4424 17.9045H39.0467C37.9852 17.9045 37.1217 18.7681 37.1217 19.8296V28.2252C37.1217 28.319 37.1308 28.4107 37.1438 28.5009H35.2052C35.2182 28.4106 35.2273 28.319 35.2273 28.2252V22.4807C35.2273 21.4193 34.3637 20.5557 33.3023 20.5557H22.6973C21.6358 20.5557 20.7723 21.4193 20.7723 22.4807V28.2252C20.7723 28.319 20.7814 28.4107 20.7944 28.5009H18.8558C18.8689 28.4106 18.8779 28.319 18.8779 28.2252V19.8296C18.8779 18.7681 18.0143 17.9045 16.9529 17.9045H14.6347C14.598 17.8994 14.5607 17.8959 14.5226 17.8959C14.4846 17.8959 14.4473 17.8994 14.4105 17.9045H11.0997C11.063 17.8994 11.0257 17.8959 10.9876 17.8959C10.9496 17.8959 10.9123 17.8994 10.8755 17.9045H8.5572C8.4604 17.9045 8.3659 17.914 8.27293 17.9279V15.7806H47.7267V17.9279ZM53.3607 14.0766C53.3607 14.1116 53.3323 14.14 53.2973 14.14H2.70235C2.66735 14.14 2.63892 14.1116 2.63892 14.0766V12.3091C2.63892 12.2741 2.66735 12.2456 2.70235 12.2456H53.2973C53.3323 12.2456 53.3607 12.2741 53.3607 12.3091V14.0766Z" fill="#587E27"/>
<path d="M53.2973 10.605H49.344C49.3579 10.5119 49.3674 10.4174 49.3674 10.3205V4.13438C49.3674 3.07289 48.5038 2.20927 47.4424 2.20927H39.0467C37.9852 2.20927 37.1217 3.07289 37.1217 4.13438V10.3206C37.1217 10.4175 37.1312 10.512 37.1451 10.6051H35.2039C35.2178 10.512 35.2273 10.4176 35.2273 10.3207V4.57625C35.2273 3.51487 34.3637 2.65125 33.3023 2.65125H27.9178C27.4647 2.65125 27.0975 3.01842 27.0975 3.47156C27.0975 3.9247 27.4647 4.29188 27.9178 4.29188H33.3023C33.4591 4.29188 33.5867 4.41941 33.5867 4.57625V10.3206C33.5867 10.4775 33.459 10.605 33.3023 10.605H22.6973C22.5405 10.605 22.4129 10.4775 22.4129 10.3206V4.57625C22.4129 4.41941 22.5406 4.29188 22.6973 4.29188H24.0896C24.5427 4.29188 24.91 3.9247 24.91 3.47156C24.91 3.01842 24.5427 2.65125 24.0896 2.65125H22.6973C21.6358 2.65125 20.7723 3.51487 20.7723 4.57625V10.3206C20.7723 10.4174 20.7818 10.5119 20.7957 10.605H18.8545C18.8684 10.5119 18.8779 10.4174 18.8779 10.3205V1.925C18.8779 0.863625 18.0143 0 16.9529 0H8.55731C7.49582 0 6.63231 0.863625 6.63231 1.925V10.3206C6.63231 10.4175 6.64182 10.512 6.65571 10.6051H2.70235C1.76271 10.6051 0.998291 11.3695 0.998291 12.3092V14.0767C0.998291 15.0163 1.76271 15.7807 2.70235 15.7807H3.09731V38.0144C3.09731 38.4675 3.46459 38.8347 3.91762 38.8347C4.37065 38.8347 4.73793 38.4675 4.73793 38.0144V15.7806H6.63231V54.2959C6.63231 54.3309 6.60387 54.3594 6.56887 54.3594H4.80137C4.76637 54.3594 4.73793 54.3309 4.73793 54.2959V41.8425C4.73793 41.3894 4.37065 41.0222 3.91762 41.0222C3.46459 41.0222 3.09731 41.3894 3.09731 41.8425V54.2959C3.09731 55.2356 3.86173 56 4.80137 56H6.56887C7.50851 56 8.27293 55.2356 8.27293 54.2959V51.3517H47.7267V54.2959C47.7267 55.2356 48.4911 56 49.4307 56H51.1982C52.1379 56 52.9023 55.2356 52.9023 54.2959V24.1642C52.9023 23.7111 52.535 23.3439 52.082 23.3439C51.629 23.3439 51.2617 23.7111 51.2617 24.1642V54.2959C51.2617 54.3309 51.2332 54.3594 51.1982 54.3594H49.4307C49.3957 54.3594 49.3673 54.3309 49.3673 54.2959V15.7806H51.2617V20.336C51.2617 20.7891 51.629 21.1563 52.082 21.1563C52.535 21.1563 52.9023 20.7891 52.9023 20.336V15.7806H53.2973C54.2369 15.7806 55.0013 15.0162 55.0013 14.0766V12.3091C55.0013 11.3694 54.2369 10.605 53.2973 10.605ZM38.7623 4.13438C38.7623 3.97753 38.8899 3.84989 39.0467 3.84989H47.4423C47.5991 3.84989 47.7267 3.97753 47.7267 4.13438V10.3206C47.7267 10.4775 47.599 10.6051 47.4423 10.6051H39.0467C38.8898 10.6051 38.7623 10.4775 38.7623 10.3206V4.13438ZM11.8078 1.64062H13.7022V3.82583L13.0431 3.57864C12.8574 3.50897 12.6527 3.50897 12.4669 3.57864L11.8078 3.82583V1.64062ZM8.27282 1.925C8.27282 1.76816 8.40046 1.64062 8.5572 1.64062H10.1672V5.00959C10.1672 5.27866 10.2991 5.53066 10.5203 5.68378C10.7414 5.83702 11.0235 5.87213 11.2756 5.77763L12.755 5.22277L14.2344 5.77763C14.3278 5.81262 14.4254 5.82991 14.5224 5.82991C14.6871 5.82991 14.8505 5.78025 14.9896 5.68378C15.2108 5.53066 15.3427 5.27866 15.3427 5.00959V1.64062H16.9529C17.1098 1.64062 17.2373 1.76816 17.2373 1.925V10.3206C17.2373 10.4775 17.1097 10.6051 16.9529 10.6051H8.55731C8.40046 10.6051 8.27293 10.4775 8.27293 10.3206V1.925H8.27282ZM47.7267 49.711H8.27293V47.8167H47.7267V49.711ZM8.27293 45.9013V37.5036C8.27348 37.3473 8.40079 37.2202 8.5572 37.2202H14.7436C14.9004 37.2202 15.0279 37.3478 15.0279 37.5047V45.9003C15.0279 46.0343 14.9345 46.1461 14.8097 46.176H8.49113C8.36656 46.1461 8.27348 46.0347 8.27293 45.9013ZM22.4129 45.9002V37.4959C22.4129 37.3391 22.5406 37.2116 22.6973 37.2116H33.3023C33.4591 37.2116 33.5867 37.3391 33.5867 37.4959V45.9002C33.5867 46.0342 33.4933 46.146 33.3684 46.1759H22.6311C22.5063 46.146 22.4129 46.0342 22.4129 45.9002ZM47.7267 45.9013C47.7261 46.0347 47.6331 46.1461 47.5085 46.176H38.9806C38.8557 46.1461 38.7623 46.0342 38.7623 45.9003V37.5047C38.7623 37.3478 38.8899 37.2202 39.0467 37.2202H40.6567V40.5892C40.6567 40.8582 40.7886 41.1102 41.0097 41.2634C41.2308 41.4165 41.5131 41.4517 41.765 41.3572L43.2445 40.8025L44.724 41.3572C44.8174 41.3922 44.915 41.4095 45.012 41.4095C45.1767 41.4095 45.3401 41.3598 45.4792 41.2634C45.7004 41.1102 45.8323 40.8582 45.8323 40.5892V37.2202H47.4423C47.5987 37.2202 47.726 37.3473 47.7266 37.5036V45.9013H47.7267ZM42.2973 39.4054V37.2202H44.1917V39.4054L43.5325 39.1582C43.3468 39.0885 43.1422 39.0885 42.9564 39.1582L42.2973 39.4054ZM47.7267 35.603C47.6336 35.5891 47.5392 35.5796 47.4424 35.5796H39.0467C37.9852 35.5796 37.1217 36.4432 37.1217 37.5047V45.9003C37.1217 45.9942 37.1308 46.0858 37.1438 46.176H35.2052C35.2182 46.0857 35.2273 45.9942 35.2273 45.9003V37.4959C35.2273 36.4346 34.3637 35.5709 33.3023 35.5709H22.6973C21.6358 35.5709 20.7723 36.4346 20.7723 37.4959V45.9002C20.7723 45.994 20.7814 46.0857 20.7944 46.1759H16.6465C16.6595 46.0856 16.6686 45.994 16.6686 45.9002V37.5046C16.6686 36.4431 15.805 35.5795 14.7436 35.5795H8.5572C8.4604 35.5795 8.3659 35.589 8.27293 35.6029V33.6766H47.7267V35.603ZM47.7267 32.0359H8.27293V30.1416H47.7267V32.0359ZM10.5203 23.5882C10.7414 23.7415 11.0237 23.7766 11.2755 23.6821L12.755 23.1273L14.2345 23.6821C14.3279 23.7171 14.4255 23.7344 14.5225 23.7344C14.6872 23.7344 14.8506 23.6847 14.9898 23.5882C15.2109 23.4351 15.3428 23.1831 15.3428 22.9141V19.5451H16.9529C17.1098 19.5451 17.2373 19.6727 17.2373 19.8296V28.2252C17.2373 28.3591 17.1441 28.4709 17.0193 28.5009H8.49081C8.36645 28.4709 8.27348 28.3595 8.27293 28.2262V19.8285C8.27348 19.6722 8.40079 19.5451 8.5572 19.5451H10.1672V22.9141C10.1672 23.1831 10.2992 23.4351 10.5203 23.5882ZM11.8078 21.7304V19.5452H13.7022V21.7304L13.043 21.4832C12.8573 21.4135 12.6527 21.4135 12.4669 21.4832L11.8078 21.7304ZM22.4129 28.2252V22.4807C22.4129 22.3239 22.5406 22.1963 22.6973 22.1963H33.3023C33.4591 22.1963 33.5867 22.3239 33.5867 22.4807V28.2252C33.5867 28.3591 33.4935 28.4709 33.3687 28.5009H22.6308C22.5061 28.4709 22.4129 28.359 22.4129 28.2252ZM47.7267 28.2262C47.7261 28.3595 47.6332 28.4709 47.5088 28.5009H38.9803C38.8556 28.4709 38.7623 28.359 38.7623 28.2252V19.8296C38.7623 19.6727 38.8899 19.5451 39.0467 19.5451H47.4423C47.5987 19.5451 47.726 19.6722 47.7266 19.8285V28.2262H47.7267ZM47.7267 17.9279C47.6336 17.914 47.5392 17.9045 47.4424 17.9045H39.0467C37.9852 17.9045 37.1217 18.7681 37.1217 19.8296V28.2252C37.1217 28.319 37.1308 28.4107 37.1438 28.5009H35.2052C35.2182 28.4106 35.2273 28.319 35.2273 28.2252V22.4807C35.2273 21.4193 34.3637 20.5557 33.3023 20.5557H22.6973C21.6358 20.5557 20.7723 21.4193 20.7723 22.4807V28.2252C20.7723 28.319 20.7814 28.4107 20.7944 28.5009H18.8558C18.8689 28.4106 18.8779 28.319 18.8779 28.2252V19.8296C18.8779 18.7681 18.0143 17.9045 16.9529 17.9045H14.6347C14.598 17.8994 14.5607 17.8959 14.5226 17.8959C14.4846 17.8959 14.4473 17.8994 14.4105 17.9045H11.0997C11.063 17.8994 11.0257 17.8959 10.9876 17.8959C10.9496 17.8959 10.9123 17.8994 10.8755 17.9045H8.5572C8.4604 17.9045 8.3659 17.914 8.27293 17.9279V15.7806H47.7267V17.9279ZM53.3607 14.0766C53.3607 14.1116 53.3323 14.14 53.2973 14.14H2.70235C2.66735 14.14 2.63892 14.1116 2.63892 14.0766V12.3091C2.63892 12.2741 2.66735 12.2456 2.70235 12.2456H53.2973C53.3323 12.2456 53.3607 12.2741 53.3607 12.3091V14.0766Z" fill="black" fill-opacity="0.2"/>
</g>
<defs>
<clipPath id="clip0">
<rect width="56" height="56" fill="white"/>
</clipPath>
</defs>
</svg>
