<svg width="50" height="48" viewBox="0 0 50 48" fill="none" xmlns="http://www.w3.org/2000/svg">
<path d="M0.000392127 29.2614C0.224634 28.944 0.511491 28.7889 0.92645 28.752C2.05431 28.6514 3.00607 28.0581 3.549 27.1767C3.40498 27.136 3.26605 27.1049 3.13326 27.0575C2.69169 26.8999 2.23107 26.7766 1.81598 26.5675C0.565236 25.9372 0.236897 24.8842 0.916145 23.7982C1.65357 22.6192 2.93158 22.3458 4.05031 23.1427C4.92028 23.7624 5.33902 24.6347 5.46047 25.6619C5.47403 25.777 5.49425 25.8912 5.63057 26.0228C5.67193 25.8871 5.72776 25.7539 5.75254 25.6154C6.51058 21.3899 8.79918 18.2024 12.5453 16.0028C13.0279 15.7195 13.4642 15.7874 13.6897 16.1689C13.9184 16.5556 13.7835 16.9324 13.275 17.2324C10.7857 18.7013 8.86897 20.6776 7.88656 23.3815C6.45553 27.3206 6.53367 31.2337 8.46549 35.0166C9.59701 37.2321 11.3705 38.8825 13.5728 40.0695C14.2859 40.4538 14.6348 40.9549 14.7612 41.7323C14.9988 43.193 15.3315 44.6389 15.6031 46.0947C15.6688 46.4461 15.8278 46.5795 16.1882 46.5743C17.1807 46.5598 18.1738 46.5552 19.1661 46.5762C19.5608 46.5845 19.714 46.421 19.7752 46.0628C19.9093 45.2781 20.0736 44.4985 20.2208 43.7159C20.393 42.7998 20.7915 42.4644 21.7279 42.552C24.283 42.791 26.8275 42.7445 29.3685 42.3826C30.0946 42.2793 30.5912 42.6777 30.7416 43.4289C30.9136 44.2878 31.0934 45.146 31.2315 46.0104C31.2963 46.4161 31.4565 46.5884 31.8939 46.5771C32.8533 46.5519 33.8146 46.5486 34.7738 46.5784C35.2212 46.5923 35.3677 46.3964 35.4397 46.0086C35.7507 44.3332 36.0895 42.6628 36.3984 40.987C36.4874 40.5046 36.738 40.1856 37.173 39.9601C39.6366 38.6831 41.6971 36.9751 43.1227 34.5921C43.4346 34.0707 43.9192 33.768 44.4989 33.5903C45.4601 33.2956 46.4194 32.9955 47.3784 32.6944C48.2607 32.4174 48.5338 32.0554 48.5355 31.1632C48.5375 30.1751 48.5398 29.1871 48.5345 28.199C48.5304 27.4714 48.2436 27.0805 47.5386 26.8469C46.9541 26.6531 46.3668 26.4662 45.7759 26.2921C44.8969 26.033 44.3272 25.4809 44.0485 24.6249C43.6292 23.3374 42.9792 22.1684 42.1302 21.1045C42.0501 21.0042 41.9668 20.9061 41.8804 20.811C41.8627 20.7914 41.8244 20.7896 41.7613 20.7677C41.6977 20.9051 41.6266 21.0423 41.5695 21.1847C40.8869 22.8915 39.5464 23.5947 37.7441 23.5858C34.4157 23.569 31.9952 21.2601 31.9402 18.0092C31.9257 17.1553 32.0372 16.2994 32.0953 15.3733C31.7658 15.2978 31.3789 15.1983 30.9866 15.1281C30.9019 15.1131 30.7693 15.1797 30.7067 15.2499C30.2684 15.7405 29.8736 16.2726 29.4039 16.7314C28.9478 17.1766 28.4188 17.55 27.8849 17.9851C28.271 18.1048 28.64 18.2116 29.0034 18.3336C29.5192 18.5067 29.724 18.8403 29.5905 19.2661C29.4636 19.6709 29.0678 19.8466 28.5522 19.6828C26.6183 19.0685 24.6358 18.7564 22.6046 18.7478C20.6232 18.7395 18.6833 19.0176 16.79 19.5958C16.635 19.6432 16.4792 19.6905 16.3207 19.7242C15.9092 19.8116 15.6153 19.6506 15.4616 19.278C15.3155 18.9239 15.5001 18.5305 15.8943 18.384C16.3 18.2333 16.722 18.1244 17.1941 17.9798C17.0536 17.8701 16.9624 17.7911 16.8637 17.7229C13.5213 15.4156 11.9356 11.4429 12.8299 7.6148C13.7471 3.68925 16.947 0.757197 21.0117 0.118206C25.0908 -0.523085 29.2509 1.48983 31.2386 5.06675C31.5718 5.6664 31.5187 6.08132 31.0796 6.30986C30.663 6.52677 30.3084 6.34601 29.9662 5.7723C28.2315 2.86375 25.6412 1.39006 22.2015 1.44767C18.3003 1.51295 14.8914 4.4321 14.1815 8.24561C13.4672 12.0831 15.6386 15.9862 19.2852 17.3918C19.5136 17.4798 19.795 17.4975 20.0419 17.4683C21.6984 17.2733 23.3508 17.2784 25.008 17.4646C25.2975 17.4972 25.6345 17.4529 25.8971 17.3333C28.9397 15.9485 30.6408 13.6176 30.9664 10.3395C31.0063 9.93775 31.0804 9.56703 31.5565 9.46138C32.0517 9.35152 32.4411 9.67945 32.4299 10.2132C32.4067 11.3247 32.132 12.3858 31.7182 13.4158C31.6773 13.5176 31.6391 13.6205 31.5794 13.7758C32.2923 13.8779 32.8846 14.2178 33.6771 13.8306C35.536 12.9224 37.4665 12.1506 39.5173 11.7283C39.6761 11.6956 39.8371 11.6719 39.998 11.6516C41.6033 11.4486 42.3188 11.9747 42.5673 13.5748C42.835 15.2976 42.6596 17.0043 42.3511 18.7075C42.3157 18.9029 42.3826 19.1867 42.5148 19.3297C43.8206 20.7434 44.8167 22.331 45.4166 24.1478C45.554 24.5639 45.8129 24.8204 46.2413 24.9447C46.8641 25.1255 47.4836 25.3193 48.0977 25.5265C49.272 25.9226 49.9814 26.8823 49.9924 28.0934C50.0024 29.193 50.0027 30.2927 49.9923 31.3923C49.9808 32.6008 49.2744 33.5609 48.0927 33.9546C47.0626 34.2979 46.0156 34.5931 44.9912 34.9508C44.7233 35.0444 44.4302 35.2437 44.2863 35.4762C42.7947 37.8859 40.7124 39.6677 38.22 41.019C37.9391 41.1713 37.7984 41.3461 37.7406 41.6646C37.4506 43.2628 37.1352 44.8567 36.8185 46.4501C36.618 47.4583 35.9579 47.9875 34.9027 47.9944C33.8449 48.0013 32.7871 48.0026 31.7294 47.9938C30.7283 47.9855 30.0697 47.467 29.8621 46.5106C29.6736 45.6418 29.5132 44.7671 29.3402 43.8946C28.0345 43.9695 26.7585 44.0708 25.4805 44.1078C24.2171 44.1444 22.9519 44.1159 21.6326 44.1159C21.4991 44.7968 21.3434 45.576 21.1937 46.3563C20.9834 47.4519 20.3375 47.9902 19.2069 47.9952C18.2142 47.9997 17.2215 47.9979 16.2289 47.9957C15.0288 47.9931 14.3855 47.4676 14.164 46.3263C13.8757 44.841 13.5897 43.3552 13.277 41.8747C13.2378 41.6893 13.0797 41.4718 12.913 41.3769C8.95115 39.1233 6.4674 35.8413 5.73115 31.3846C5.52191 30.1182 5.51161 28.8205 5.40242 27.441C5.22892 27.3233 5.10891 27.4916 4.96215 27.7181C4.19746 28.8977 3.2037 29.8021 1.77633 30.1497C1.52599 30.2106 1.26327 30.2248 1.00563 30.2552C0.551147 30.3087 0.216937 30.1326 0 29.7395C0.000391347 29.5802 0.000392127 29.4209 0.000392127 29.2614ZM41.2788 15.4078C41.2233 14.8385 41.1936 14.2656 41.1061 13.7012C40.9986 13.0075 40.8662 12.926 40.1672 13.0561C38.0269 13.4543 36.0529 14.3142 34.094 15.2031C33.8699 15.3048 33.6355 15.6127 33.6032 15.8507C33.4903 16.6819 33.3681 17.5307 33.4243 18.3614C33.5538 20.2779 34.7688 21.6726 36.6894 22.0239C39.2127 22.4856 39.8399 21.8113 40.4682 20.0068C40.9866 18.518 41.2124 16.9803 41.2788 15.4078ZM4.03388 25.8768C3.87656 25.0508 3.63575 24.4694 2.95871 24.1757C2.51388 23.9828 2.31208 24.3071 2.12241 24.6103C1.92412 24.9274 2.1061 25.1381 2.37926 25.2543C2.87758 25.4662 3.39324 25.6387 4.03388 25.8768Z" fill="#587E27"/>
<path d="M0.000392127 29.2614C0.224634 28.944 0.511491 28.7889 0.92645 28.752C2.05431 28.6514 3.00607 28.0581 3.549 27.1767C3.40498 27.136 3.26605 27.1049 3.13326 27.0575C2.69169 26.8999 2.23107 26.7766 1.81598 26.5675C0.565236 25.9372 0.236897 24.8842 0.916145 23.7982C1.65357 22.6192 2.93158 22.3458 4.05031 23.1427C4.92028 23.7624 5.33902 24.6347 5.46047 25.6619C5.47403 25.777 5.49425 25.8912 5.63057 26.0228C5.67193 25.8871 5.72776 25.7539 5.75254 25.6154C6.51058 21.3899 8.79918 18.2024 12.5453 16.0028C13.0279 15.7195 13.4642 15.7874 13.6897 16.1689C13.9184 16.5556 13.7835 16.9324 13.275 17.2324C10.7857 18.7013 8.86897 20.6776 7.88656 23.3815C6.45553 27.3206 6.53367 31.2337 8.46549 35.0166C9.59701 37.2321 11.3705 38.8825 13.5728 40.0695C14.2859 40.4538 14.6348 40.9549 14.7612 41.7323C14.9988 43.193 15.3315 44.6389 15.6031 46.0947C15.6688 46.4461 15.8278 46.5795 16.1882 46.5743C17.1807 46.5598 18.1738 46.5552 19.1661 46.5762C19.5608 46.5845 19.714 46.421 19.7752 46.0628C19.9093 45.2781 20.0736 44.4985 20.2208 43.7159C20.393 42.7998 20.7915 42.4644 21.7279 42.552C24.283 42.791 26.8275 42.7445 29.3685 42.3826C30.0946 42.2793 30.5912 42.6777 30.7416 43.4289C30.9136 44.2878 31.0934 45.146 31.2315 46.0104C31.2963 46.4161 31.4565 46.5884 31.8939 46.5771C32.8533 46.5519 33.8146 46.5486 34.7738 46.5784C35.2212 46.5923 35.3677 46.3964 35.4397 46.0086C35.7507 44.3332 36.0895 42.6628 36.3984 40.987C36.4874 40.5046 36.738 40.1856 37.173 39.9601C39.6366 38.6831 41.6971 36.9751 43.1227 34.5921C43.4346 34.0707 43.9192 33.768 44.4989 33.5903C45.4601 33.2956 46.4194 32.9955 47.3784 32.6944C48.2607 32.4174 48.5338 32.0554 48.5355 31.1632C48.5375 30.1751 48.5398 29.1871 48.5345 28.199C48.5304 27.4714 48.2436 27.0805 47.5386 26.8469C46.9541 26.6531 46.3668 26.4662 45.7759 26.2921C44.8969 26.033 44.3272 25.4809 44.0485 24.6249C43.6292 23.3374 42.9792 22.1684 42.1302 21.1045C42.0501 21.0042 41.9668 20.9061 41.8804 20.811C41.8627 20.7914 41.8244 20.7896 41.7613 20.7677C41.6977 20.9051 41.6266 21.0423 41.5695 21.1847C40.8869 22.8915 39.5464 23.5947 37.7441 23.5858C34.4157 23.569 31.9952 21.2601 31.9402 18.0092C31.9257 17.1553 32.0372 16.2994 32.0953 15.3733C31.7658 15.2978 31.3789 15.1983 30.9866 15.1281C30.9019 15.1131 30.7693 15.1797 30.7067 15.2499C30.2684 15.7405 29.8736 16.2726 29.4039 16.7314C28.9478 17.1766 28.4188 17.55 27.8849 17.9851C28.271 18.1048 28.64 18.2116 29.0034 18.3336C29.5192 18.5067 29.724 18.8403 29.5905 19.2661C29.4636 19.6709 29.0678 19.8466 28.5522 19.6828C26.6183 19.0685 24.6358 18.7564 22.6046 18.7478C20.6232 18.7395 18.6833 19.0176 16.79 19.5958C16.635 19.6432 16.4792 19.6905 16.3207 19.7242C15.9092 19.8116 15.6153 19.6506 15.4616 19.278C15.3155 18.9239 15.5001 18.5305 15.8943 18.384C16.3 18.2333 16.722 18.1244 17.1941 17.9798C17.0536 17.8701 16.9624 17.7911 16.8637 17.7229C13.5213 15.4156 11.9356 11.4429 12.8299 7.6148C13.7471 3.68925 16.947 0.757197 21.0117 0.118206C25.0908 -0.523085 29.2509 1.48983 31.2386 5.06675C31.5718 5.6664 31.5187 6.08132 31.0796 6.30986C30.663 6.52677 30.3084 6.34601 29.9662 5.7723C28.2315 2.86375 25.6412 1.39006 22.2015 1.44767C18.3003 1.51295 14.8914 4.4321 14.1815 8.24561C13.4672 12.0831 15.6386 15.9862 19.2852 17.3918C19.5136 17.4798 19.795 17.4975 20.0419 17.4683C21.6984 17.2733 23.3508 17.2784 25.008 17.4646C25.2975 17.4972 25.6345 17.4529 25.8971 17.3333C28.9397 15.9485 30.6408 13.6176 30.9664 10.3395C31.0063 9.93775 31.0804 9.56703 31.5565 9.46138C32.0517 9.35152 32.4411 9.67945 32.4299 10.2132C32.4067 11.3247 32.132 12.3858 31.7182 13.4158C31.6773 13.5176 31.6391 13.6205 31.5794 13.7758C32.2923 13.8779 32.8846 14.2178 33.6771 13.8306C35.536 12.9224 37.4665 12.1506 39.5173 11.7283C39.6761 11.6956 39.8371 11.6719 39.998 11.6516C41.6033 11.4486 42.3188 11.9747 42.5673 13.5748C42.835 15.2976 42.6596 17.0043 42.3511 18.7075C42.3157 18.9029 42.3826 19.1867 42.5148 19.3297C43.8206 20.7434 44.8167 22.331 45.4166 24.1478C45.554 24.5639 45.8129 24.8204 46.2413 24.9447C46.8641 25.1255 47.4836 25.3193 48.0977 25.5265C49.272 25.9226 49.9814 26.8823 49.9924 28.0934C50.0024 29.193 50.0027 30.2927 49.9923 31.3923C49.9808 32.6008 49.2744 33.5609 48.0927 33.9546C47.0626 34.2979 46.0156 34.5931 44.9912 34.9508C44.7233 35.0444 44.4302 35.2437 44.2863 35.4762C42.7947 37.8859 40.7124 39.6677 38.22 41.019C37.9391 41.1713 37.7984 41.3461 37.7406 41.6646C37.4506 43.2628 37.1352 44.8567 36.8185 46.4501C36.618 47.4583 35.9579 47.9875 34.9027 47.9944C33.8449 48.0013 32.7871 48.0026 31.7294 47.9938C30.7283 47.9855 30.0697 47.467 29.8621 46.5106C29.6736 45.6418 29.5132 44.7671 29.3402 43.8946C28.0345 43.9695 26.7585 44.0708 25.4805 44.1078C24.2171 44.1444 22.9519 44.1159 21.6326 44.1159C21.4991 44.7968 21.3434 45.576 21.1937 46.3563C20.9834 47.4519 20.3375 47.9902 19.2069 47.9952C18.2142 47.9997 17.2215 47.9979 16.2289 47.9957C15.0288 47.9931 14.3855 47.4676 14.164 46.3263C13.8757 44.841 13.5897 43.3552 13.277 41.8747C13.2378 41.6893 13.0797 41.4718 12.913 41.3769C8.95115 39.1233 6.4674 35.8413 5.73115 31.3846C5.52191 30.1182 5.51161 28.8205 5.40242 27.441C5.22892 27.3233 5.10891 27.4916 4.96215 27.7181C4.19746 28.8977 3.2037 29.8021 1.77633 30.1497C1.52599 30.2106 1.26327 30.2248 1.00563 30.2552C0.551147 30.3087 0.216937 30.1326 0 29.7395C0.000391347 29.5802 0.000392127 29.4209 0.000392127 29.2614ZM41.2788 15.4078C41.2233 14.8385 41.1936 14.2656 41.1061 13.7012C40.9986 13.0075 40.8662 12.926 40.1672 13.0561C38.0269 13.4543 36.0529 14.3142 34.094 15.2031C33.8699 15.3048 33.6355 15.6127 33.6032 15.8507C33.4903 16.6819 33.3681 17.5307 33.4243 18.3614C33.5538 20.2779 34.7688 21.6726 36.6894 22.0239C39.2127 22.4856 39.8399 21.8113 40.4682 20.0068C40.9866 18.518 41.2124 16.9803 41.2788 15.4078ZM4.03388 25.8768C3.87656 25.0508 3.63575 24.4694 2.95871 24.1757C2.51388 23.9828 2.31208 24.3071 2.12241 24.6103C1.92412 24.9274 2.1061 25.1381 2.37926 25.2543C2.87758 25.4662 3.39324 25.6387 4.03388 25.8768Z" fill="black" fill-opacity="0.2"/>
<path d="M23.3674 14.3093C23.1895 14.4985 23.0114 14.6877 22.8335 14.877C22.6713 14.7076 22.5092 14.5382 22.347 14.3689C22.3799 14.3275 22.4126 14.2861 22.4455 14.2447C22.1157 14.185 21.7625 14.179 21.4615 14.0532C20.9923 13.8571 20.5389 13.6075 20.1199 13.3226C19.9606 13.2143 19.8188 12.9343 19.8412 12.753C19.8707 12.5152 20.0248 12.2402 20.2155 12.095C20.3181 12.0168 20.6529 12.1215 20.8077 12.2389C21.2893 12.604 21.7699 12.9415 22.4653 12.9702C22.4653 12.0423 22.4733 11.1245 22.4531 10.2074C22.451 10.115 22.2929 9.99734 22.1811 9.94152C21.8927 9.79755 21.5805 9.69842 21.2939 9.55151C20.3809 9.08344 19.9491 8.32232 20.0408 7.36882C20.1367 6.37328 20.6867 5.73059 21.6466 5.41952C21.8917 5.34006 22.1469 5.29088 22.3187 5.15176C22.5046 4.96653 22.6906 4.78142 22.8765 4.59619C23.0328 4.75945 23.1889 4.92271 23.4378 5.18281C23.8001 5.27708 24.3351 5.38963 24.8503 5.55966C25.2084 5.6777 25.4006 5.94674 25.2883 6.34761C25.1727 6.75985 24.8835 6.89615 24.469 6.74362C24.0846 6.60221 23.6957 6.47229 23.2358 6.31171C23.2358 7.19112 23.2288 7.95288 23.2446 8.71425C23.2466 8.80904 23.3554 8.91673 23.4403 8.99018C23.5092 9.04984 23.6172 9.06517 23.7066 9.10311C25.0784 9.68641 25.6675 10.5473 25.5623 11.8143C25.4544 13.1141 24.7852 13.8102 23.2932 14.1747C23.3179 14.2196 23.3427 14.2645 23.3674 14.3093ZM23.1699 10.3498C23.1699 11.2269 23.1699 12.058 23.1699 12.8904C23.793 12.8511 24.16 12.5252 24.261 11.939C24.3828 11.231 24.0365 10.7043 23.1699 10.3498ZM22.5257 8.60362C22.5257 7.87981 22.5257 7.15714 22.5257 6.43205C21.755 6.51598 21.3544 6.84582 21.323 7.4028C21.2893 8.00232 21.7584 8.47255 22.5257 8.60362Z" fill="#587E27"/>
<path d="M23.3674 14.3093C23.1895 14.4985 23.0114 14.6877 22.8335 14.877C22.6713 14.7076 22.5092 14.5382 22.347 14.3689C22.3799 14.3275 22.4126 14.2861 22.4455 14.2447C22.1157 14.185 21.7625 14.179 21.4615 14.0532C20.9923 13.8571 20.5389 13.6075 20.1199 13.3226C19.9606 13.2143 19.8188 12.9343 19.8412 12.753C19.8707 12.5152 20.0248 12.2402 20.2155 12.095C20.3181 12.0168 20.6529 12.1215 20.8077 12.2389C21.2893 12.604 21.7699 12.9415 22.4653 12.9702C22.4653 12.0423 22.4733 11.1245 22.4531 10.2074C22.451 10.115 22.2929 9.99734 22.1811 9.94152C21.8927 9.79755 21.5805 9.69842 21.2939 9.55151C20.3809 9.08344 19.9491 8.32232 20.0408 7.36882C20.1367 6.37328 20.6867 5.73059 21.6466 5.41952C21.8917 5.34006 22.1469 5.29088 22.3187 5.15176C22.5046 4.96653 22.6906 4.78142 22.8765 4.59619C23.0328 4.75945 23.1889 4.92271 23.4378 5.18281C23.8001 5.27708 24.3351 5.38963 24.8503 5.55966C25.2084 5.6777 25.4006 5.94674 25.2883 6.34761C25.1727 6.75985 24.8835 6.89615 24.469 6.74362C24.0846 6.60221 23.6957 6.47229 23.2358 6.31171C23.2358 7.19112 23.2288 7.95288 23.2446 8.71425C23.2466 8.80904 23.3554 8.91673 23.4403 8.99018C23.5092 9.04984 23.6172 9.06517 23.7066 9.10311C25.0784 9.68641 25.6675 10.5473 25.5623 11.8143C25.4544 13.1141 24.7852 13.8102 23.2932 14.1747C23.3179 14.2196 23.3427 14.2645 23.3674 14.3093ZM23.1699 10.3498C23.1699 11.2269 23.1699 12.058 23.1699 12.8904C23.793 12.8511 24.16 12.5252 24.261 11.939C24.3828 11.231 24.0365 10.7043 23.1699 10.3498ZM22.5257 8.60362C22.5257 7.87981 22.5257 7.15714 22.5257 6.43205C21.755 6.51598 21.3544 6.84582 21.323 7.4028C21.2893 8.00232 21.7584 8.47255 22.5257 8.60362Z" fill="black" fill-opacity="0.2"/>
<path d="M39.6008 28.4291C38.3715 28.4269 37.3645 27.5325 37.231 26.324C37.1783 25.8473 37.4137 25.4881 37.8215 25.423C38.2787 25.3502 38.5874 25.6005 38.6754 26.1154C38.7716 26.6777 39.094 26.994 39.582 27.0047C40.0899 27.0159 40.4279 26.6952 40.5257 26.1094C40.6071 25.6222 40.9035 25.3712 41.3427 25.4175C41.764 25.462 42.0097 25.7962 41.9784 26.2819C41.901 27.4802 40.8479 28.4311 39.6008 28.4291Z" fill="#587E27"/>
<path d="M39.6008 28.4291C38.3715 28.4269 37.3645 27.5325 37.231 26.324C37.1783 25.8473 37.4137 25.4881 37.8215 25.423C38.2787 25.3502 38.5874 25.6005 38.6754 26.1154C38.7716 26.6777 39.094 26.994 39.582 27.0047C40.0899 27.0159 40.4279 26.6952 40.5257 26.1094C40.6071 25.6222 40.9035 25.3712 41.3427 25.4175C41.764 25.462 42.0097 25.7962 41.9784 26.2819C41.901 27.4802 40.8479 28.4311 39.6008 28.4291Z" fill="black" fill-opacity="0.2"/>
</svg>
