<svg width="57" height="56" viewBox="0 0 57 56" fill="none" xmlns="http://www.w3.org/2000/svg">
<g clip-path="url(#clip0)">
<path d="M53.8994 28.3777H49.1916V15.6575C49.1916 13.9649 47.8146 12.588 46.1221 12.588H39.0378V9.53837C39.0378 7.89742 37.7028 6.5625 36.0619 6.5625H3.97197C2.33113 6.5625 0.996094 7.89742 0.996094 9.53837V10.8505C0.996094 11.3037 1.36338 11.6709 1.81641 11.6709C2.26944 11.6709 2.63672 11.3037 2.63672 10.8505V9.53837C2.63672 8.80217 3.23577 8.20312 3.97197 8.20312H36.0618C36.798 8.20312 37.3971 8.80217 37.3971 9.53837V35.3742H2.63672V14.6967C2.63672 14.2436 2.26944 13.8764 1.81641 13.8764C1.36338 13.8764 0.996094 14.2436 0.996094 14.6967V42.5031C0.996094 44.1441 2.33113 45.479 3.97197 45.479H5.85716C6.26961 47.7277 8.24383 49.4372 10.6099 49.4372C12.976 49.4372 14.9503 47.7277 15.3627 45.479H28.4119C28.865 45.479 29.2322 45.1118 29.2322 44.6587C29.2322 44.2055 28.865 43.8384 28.4119 43.8384H15.381C15.0125 41.5371 13.0133 39.7732 10.6098 39.7732C8.20631 39.7732 6.20727 41.5372 5.83878 43.8385H3.97197C3.23577 43.8385 2.63672 43.2394 2.63672 42.5032V37.0148H37.3971V43.8385H32.1745C31.7215 43.8385 31.3542 44.2057 31.3542 44.6588C31.3542 45.1119 31.7215 45.4791 32.1745 45.4791H42.813C43.2255 47.7279 45.1997 49.4373 47.5657 49.4373C49.9317 49.4373 51.906 47.7279 52.3185 45.4791H53.9265C55.6191 45.4791 56.996 44.1021 56.996 42.4096V31.4745C56.9961 29.7668 55.6069 28.3777 53.8994 28.3777ZM10.6098 41.414C12.3696 41.414 13.8012 42.8456 13.8012 44.6053C13.8012 46.365 12.3696 47.7968 10.6098 47.7968C8.85009 47.7968 7.41849 46.365 7.41849 44.6053C7.41849 42.8456 8.8502 41.414 10.6098 41.414ZM47.5658 47.7966C45.806 47.7966 44.3744 46.3649 44.3744 44.6052C44.3744 42.8455 45.806 41.4139 47.5658 41.4139C49.3255 41.4139 50.7571 42.8455 50.7571 44.6052C50.7571 46.3649 49.3255 47.7966 47.5658 47.7966ZM55.3555 35.9221H53.1725C52.7202 35.9221 52.3521 35.5542 52.3521 35.1018C52.3521 34.6494 52.7201 34.2815 53.1725 34.2815H55.3555V35.9221ZM55.3555 32.6409H53.1725C51.8155 32.6409 50.7115 33.7449 50.7115 35.1018C50.7115 36.4587 51.8154 37.5628 53.1725 37.5628H55.3555V42.4095C55.3555 43.1974 54.7144 43.8384 53.9266 43.8384H52.3369C51.9685 41.5371 49.9693 39.7732 47.5658 39.7732C45.1623 39.7732 43.1632 41.5371 42.7947 43.8384H39.0377V14.2286H46.122C46.91 14.2286 47.5509 14.8695 47.5509 15.6575V15.8485H42.0589C41.6058 15.8485 41.2385 16.2157 41.2385 16.6689V29.198C41.2385 29.6511 41.6058 30.0183 42.0589 30.0183H53.8993C54.7022 30.0183 55.3554 30.6716 55.3554 31.4744V32.6409H55.3555ZM47.551 17.4892V28.3777H42.8793V17.4892H47.551Z" fill="#587E27"/>
<path d="M53.8994 28.3777H49.1916V15.6575C49.1916 13.9649 47.8146 12.588 46.1221 12.588H39.0378V9.53837C39.0378 7.89742 37.7028 6.5625 36.0619 6.5625H3.97197C2.33113 6.5625 0.996094 7.89742 0.996094 9.53837V10.8505C0.996094 11.3037 1.36338 11.6709 1.81641 11.6709C2.26944 11.6709 2.63672 11.3037 2.63672 10.8505V9.53837C2.63672 8.80217 3.23577 8.20312 3.97197 8.20312H36.0618C36.798 8.20312 37.3971 8.80217 37.3971 9.53837V35.3742H2.63672V14.6967C2.63672 14.2436 2.26944 13.8764 1.81641 13.8764C1.36338 13.8764 0.996094 14.2436 0.996094 14.6967V42.5031C0.996094 44.1441 2.33113 45.479 3.97197 45.479H5.85716C6.26961 47.7277 8.24383 49.4372 10.6099 49.4372C12.976 49.4372 14.9503 47.7277 15.3627 45.479H28.4119C28.865 45.479 29.2322 45.1118 29.2322 44.6587C29.2322 44.2055 28.865 43.8384 28.4119 43.8384H15.381C15.0125 41.5371 13.0133 39.7732 10.6098 39.7732C8.20631 39.7732 6.20727 41.5372 5.83878 43.8385H3.97197C3.23577 43.8385 2.63672 43.2394 2.63672 42.5032V37.0148H37.3971V43.8385H32.1745C31.7215 43.8385 31.3542 44.2057 31.3542 44.6588C31.3542 45.1119 31.7215 45.4791 32.1745 45.4791H42.813C43.2255 47.7279 45.1997 49.4373 47.5657 49.4373C49.9317 49.4373 51.906 47.7279 52.3185 45.4791H53.9265C55.6191 45.4791 56.996 44.1021 56.996 42.4096V31.4745C56.9961 29.7668 55.6069 28.3777 53.8994 28.3777ZM10.6098 41.414C12.3696 41.414 13.8012 42.8456 13.8012 44.6053C13.8012 46.365 12.3696 47.7968 10.6098 47.7968C8.85009 47.7968 7.41849 46.365 7.41849 44.6053C7.41849 42.8456 8.8502 41.414 10.6098 41.414ZM47.5658 47.7966C45.806 47.7966 44.3744 46.3649 44.3744 44.6052C44.3744 42.8455 45.806 41.4139 47.5658 41.4139C49.3255 41.4139 50.7571 42.8455 50.7571 44.6052C50.7571 46.3649 49.3255 47.7966 47.5658 47.7966ZM55.3555 35.9221H53.1725C52.7202 35.9221 52.3521 35.5542 52.3521 35.1018C52.3521 34.6494 52.7201 34.2815 53.1725 34.2815H55.3555V35.9221ZM55.3555 32.6409H53.1725C51.8155 32.6409 50.7115 33.7449 50.7115 35.1018C50.7115 36.4587 51.8154 37.5628 53.1725 37.5628H55.3555V42.4095C55.3555 43.1974 54.7144 43.8384 53.9266 43.8384H52.3369C51.9685 41.5371 49.9693 39.7732 47.5658 39.7732C45.1623 39.7732 43.1632 41.5371 42.7947 43.8384H39.0377V14.2286H46.122C46.91 14.2286 47.5509 14.8695 47.5509 15.6575V15.8485H42.0589C41.6058 15.8485 41.2385 16.2157 41.2385 16.6689V29.198C41.2385 29.6511 41.6058 30.0183 42.0589 30.0183H53.8993C54.7022 30.0183 55.3554 30.6716 55.3554 31.4744V32.6409H55.3555ZM47.551 17.4892V28.3777H42.8793V17.4892H47.551Z" fill="black" fill-opacity="0.2"/>
<path d="M43.9554 32.6401H42.0588C41.6058 32.6401 41.2385 33.0073 41.2385 33.4604C41.2385 33.9136 41.6058 34.2808 42.0588 34.2808H43.9554C44.4084 34.2808 44.7757 33.9136 44.7757 33.4604C44.7757 33.0073 44.4084 32.6401 43.9554 32.6401Z" fill="#587E27"/>
<path d="M43.9554 32.6401H42.0588C41.6058 32.6401 41.2385 33.0073 41.2385 33.4604C41.2385 33.9136 41.6058 34.2808 42.0588 34.2808H43.9554C44.4084 34.2808 44.7757 33.9136 44.7757 33.4604C44.7757 33.0073 44.4084 32.6401 43.9554 32.6401Z" fill="black" fill-opacity="0.2"/>
<path d="M24.8284 19.9553C25.2814 19.9553 25.6487 19.5882 25.6487 19.135C25.6487 18.6819 25.2814 18.3147 24.8284 18.3147H21.5491C21.096 18.3147 20.7288 18.6819 20.7288 19.135V25.6957C20.7288 26.1488 21.096 26.516 21.5491 26.516H24.8284C25.2814 26.516 25.6487 26.1488 25.6487 25.6957C25.6487 25.2425 25.2814 24.8753 24.8284 24.8753H22.3694V23.2357H24.8284C25.2814 23.2357 25.6487 22.8685 25.6487 22.4154C25.6487 21.9622 25.2814 21.5951 24.8284 21.5951H22.3694V19.9553H24.8284Z" fill="#587E27"/>
<path d="M24.8284 19.9553C25.2814 19.9553 25.6487 19.5882 25.6487 19.135C25.6487 18.6819 25.2814 18.3147 24.8284 18.3147H21.5491C21.096 18.3147 20.7288 18.6819 20.7288 19.135V25.6957C20.7288 26.1488 21.096 26.516 21.5491 26.516H24.8284C25.2814 26.516 25.6487 26.1488 25.6487 25.6957C25.6487 25.2425 25.2814 24.8753 24.8284 24.8753H22.3694V23.2357H24.8284C25.2814 23.2357 25.6487 22.8685 25.6487 22.4154C25.6487 21.9622 25.2814 21.5951 24.8284 21.5951H22.3694V19.9553H24.8284Z" fill="black" fill-opacity="0.2"/>
<path d="M31.2794 19.9553C31.7324 19.9553 32.0997 19.5882 32.0997 19.135C32.0997 18.6819 31.7324 18.3147 31.2794 18.3147H28.0001C27.5471 18.3147 27.1798 18.6819 27.1798 19.135V25.6957C27.1798 26.1488 27.5471 26.516 28.0001 26.516H31.2794C31.7324 26.516 32.0997 26.1488 32.0997 25.6957C32.0997 25.2425 31.7324 24.8753 31.2794 24.8753H28.8204V23.2357H31.2794C31.7324 23.2357 32.0997 22.8685 32.0997 22.4154C32.0997 21.9622 31.7324 21.5951 31.2794 21.5951H28.8204V19.9553H31.2794Z" fill="#587E27"/>
<path d="M31.2794 19.9553C31.7324 19.9553 32.0997 19.5882 32.0997 19.135C32.0997 18.6819 31.7324 18.3147 31.2794 18.3147H28.0001C27.5471 18.3147 27.1798 18.6819 27.1798 19.135V25.6957C27.1798 26.1488 27.5471 26.516 28.0001 26.516H31.2794C31.7324 26.516 32.0997 26.1488 32.0997 25.6957C32.0997 25.2425 31.7324 24.8753 31.2794 24.8753H28.8204V23.2357H31.2794C31.7324 23.2357 32.0997 22.8685 32.0997 22.4154C32.0997 21.9622 31.7324 21.5951 31.2794 21.5951H28.8204V19.9553H31.2794Z" fill="black" fill-opacity="0.2"/>
<path d="M12.0334 19.9553C12.4865 19.9553 12.8537 19.5882 12.8537 19.135C12.8537 18.6819 12.4865 18.3147 12.0334 18.3147H8.75415C8.30112 18.3147 7.93384 18.6819 7.93384 19.135V25.6957C7.93384 26.1488 8.30112 26.516 8.75415 26.516C9.20718 26.516 9.57446 26.1488 9.57446 25.6957V23.2357H12.0334C12.4865 23.2357 12.8537 22.8685 12.8537 22.4154C12.8537 21.9622 12.4865 21.5951 12.0334 21.5951H9.57446V19.9553H12.0334Z" fill="#587E27"/>
<path d="M12.0334 19.9553C12.4865 19.9553 12.8537 19.5882 12.8537 19.135C12.8537 18.6819 12.4865 18.3147 12.0334 18.3147H8.75415C8.30112 18.3147 7.93384 18.6819 7.93384 19.135V25.6957C7.93384 26.1488 8.30112 26.516 8.75415 26.516C9.20718 26.516 9.57446 26.1488 9.57446 25.6957V23.2357H12.0334C12.4865 23.2357 12.8537 22.8685 12.8537 22.4154C12.8537 21.9622 12.4865 21.5951 12.0334 21.5951H9.57446V19.9553H12.0334Z" fill="black" fill-opacity="0.2"/>
<path d="M19.1975 22.4129V19.1326C19.1975 18.6794 18.8302 18.3123 18.3772 18.3123H15.0979C14.6449 18.3123 14.2776 18.6794 14.2776 19.1326V25.6932C14.2776 26.1464 14.6449 26.5135 15.0979 26.5135C15.5509 26.5135 15.9182 26.1464 15.9182 25.6932V23.4844L17.6947 26.1483C17.8527 26.3854 18.1128 26.5136 18.378 26.5136C18.5344 26.5136 18.6924 26.469 18.8323 26.3757C19.2092 26.1243 19.311 25.615 19.0597 25.2381L17.7227 23.2333H18.3772C18.8302 23.2333 19.1975 22.866 19.1975 22.4129ZM17.5569 21.5926H15.9182V19.9529H17.5569V21.5926Z" fill="#587E27"/>
<path d="M19.1975 22.4129V19.1326C19.1975 18.6794 18.8302 18.3123 18.3772 18.3123H15.0979C14.6449 18.3123 14.2776 18.6794 14.2776 19.1326V25.6932C14.2776 26.1464 14.6449 26.5135 15.0979 26.5135C15.5509 26.5135 15.9182 26.1464 15.9182 25.6932V23.4844L17.6947 26.1483C17.8527 26.3854 18.1128 26.5136 18.378 26.5136C18.5344 26.5136 18.6924 26.469 18.8323 26.3757C19.2092 26.1243 19.311 25.615 19.0597 25.2381L17.7227 23.2333H18.3772C18.8302 23.2333 19.1975 22.866 19.1975 22.4129ZM17.5569 21.5926H15.9182V19.9529H17.5569V21.5926Z" fill="black" fill-opacity="0.2"/>
</g>
<defs>
<clipPath id="clip0">
<rect width="56" height="56" fill="white" transform="translate(0.996094)"/>
</clipPath>
</defs>
</svg>
