<svg width="56" height="56" viewBox="0 0 56 56" fill="none" xmlns="http://www.w3.org/2000/svg">
<path d="M36.4013 3.93788C37.11 4.14711 37.5823 4.59555 37.9798 5.15105C38.6277 6.0565 39.3051 6.94492 39.9907 7.82724C40.106 7.97566 40.3101 8.1221 40.4995 8.15979C42.4281 8.54357 43.6151 9.82518 43.6457 11.6185C43.6633 12.649 43.6489 13.68 43.6489 14.7789C44.2835 14.7789 44.8809 14.8021 45.4755 14.775C48.2154 14.6502 49.1656 15.2105 48.9769 17.977C48.9662 18.133 48.9755 18.2904 48.9596 18.4459C48.9187 18.8479 48.6712 19.0829 48.227 19.0959C47.7817 19.1088 47.49 18.8885 47.4585 18.4878C47.4157 17.9426 47.4211 17.3935 47.4236 16.8461C47.4257 16.3913 47.1801 16.1896 46.6937 16.1897C41.5855 16.191 36.4774 16.1911 31.3691 16.1929C31.3029 16.1929 31.2367 16.2108 31.1401 16.2247C31.1401 18.7806 31.1401 21.3247 31.1401 23.9337C31.3308 23.9337 31.5145 23.9337 31.6983 23.9337C36.6167 23.9337 41.535 23.9341 46.4534 23.9334C47.2946 23.9333 47.4183 23.8214 47.4217 23.0708C47.4236 22.648 47.4073 22.2246 47.4292 21.8026C47.4556 21.2957 47.7357 21.0258 48.1937 21.0212C48.6756 21.0164 48.9597 21.2959 48.9708 21.8318C48.9828 22.4107 48.985 22.991 48.9532 23.5689C48.9136 24.2871 48.5086 24.8274 47.7974 25.1175C47.4472 25.2603 47.3723 25.432 47.3726 25.746C47.3806 33.7007 47.3647 41.6554 47.3942 49.61C47.3987 50.7979 46.9886 51.6407 45.7246 52.0625C43.6529 52.0625 41.5811 52.0625 39.5093 52.0625C39.1851 51.8157 38.874 51.5617 39.0655 51.1177C39.252 50.6851 39.6559 50.6492 40.0912 50.6506C41.6795 50.6556 43.2678 50.6529 44.856 50.6524C45.6992 50.6521 45.8245 50.5421 45.8245 49.7944C45.8249 41.8211 45.8248 33.8479 45.8248 25.8746C45.8248 25.7083 45.8248 25.5421 45.8248 25.3845C40.8799 25.3845 36.0064 25.3845 31.1483 25.3845C31.1483 33.827 31.1483 42.229 31.1483 50.6525C32.742 50.6525 34.2944 50.6566 35.8467 50.6499C36.2873 50.6479 36.6917 50.697 36.8682 51.1258C37.0493 51.5657 36.7471 51.8278 36.4016 52.0624C27.5274 52.0624 18.6532 52.0624 9.779 52.0624C9.33661 51.7367 8.78133 51.4776 8.48603 51.0651C8.22905 50.7063 8.18565 50.1744 8.18472 49.7188C8.16815 41.7614 8.17063 33.804 8.17964 25.8467C8.18006 25.4878 8.13055 25.2598 7.70525 25.0908C6.98549 24.8047 6.59116 24.228 6.58319 23.5216C6.55709 21.2193 6.5546 18.9163 6.58195 16.6141C6.59324 15.6624 7.37308 14.9294 8.41984 14.8217C8.91484 14.7708 9.41865 14.7849 9.91852 14.7802C10.5491 14.774 11.1797 14.7786 11.8489 14.7786C11.8489 13.6601 11.832 12.6129 11.8527 11.5664C11.8871 9.83147 13.1112 8.51443 14.9504 8.16421C15.1555 8.12511 15.3826 7.97792 15.5057 7.82048C16.1947 6.93985 16.8684 6.04869 17.5198 5.14485C17.9184 4.59188 18.3779 4.12793 19.1022 3.9375C19.3784 3.9375 19.6547 3.9375 19.9309 3.9375C20.6396 4.17643 21.0967 4.66398 21.5301 5.20162C22.9349 6.94455 24.3698 8.66755 25.7795 10.4074C25.9741 10.6475 26.1762 10.7485 26.5075 10.7399C27.335 10.7185 28.1641 10.7177 28.9914 10.7403C29.3264 10.7494 29.5229 10.6385 29.7156 10.4012C31.1368 8.6496 32.5817 6.91391 33.998 5.15914C34.4228 4.63287 34.8781 4.16487 35.573 3.9375C35.8489 3.93788 36.1251 3.93788 36.4013 3.93788ZM9.72783 25.3693C9.72783 25.5501 9.72783 25.6745 9.72783 25.7989C9.72783 33.8183 9.72721 41.8378 9.72907 49.8572C9.72928 50.53 9.86921 50.6522 10.609 50.6524C15.0625 50.6533 19.5162 50.6532 23.9698 50.6516C24.1184 50.6516 24.267 50.6336 24.4191 50.6237C24.4191 42.1872 24.4191 33.7855 24.4191 25.3694C19.5197 25.3693 14.6586 25.3693 9.72783 25.3693ZM24.4229 16.2162C24.2725 16.204 24.1874 16.1909 24.1022 16.1909C19.047 16.1898 13.9916 16.1883 8.93639 16.1915C8.28643 16.1918 8.12298 16.3531 8.12236 16.9579C8.12008 18.9774 8.12122 20.997 8.12154 23.0165C8.12164 23.8227 8.24334 23.9335 9.13577 23.9335C14.0358 23.9339 18.9358 23.9337 23.8358 23.9337C24.0203 23.9337 24.2048 23.9337 24.4229 23.9337C24.4229 21.3355 24.4229 18.7942 24.4229 16.2162ZM26.0495 25.3668C26.0495 33.8211 26.0495 42.2202 26.0495 50.6169C27.2325 50.6169 28.3771 50.6169 29.5157 50.6169C29.5157 42.1808 29.5157 33.7808 29.5157 25.3668C28.3462 25.3668 27.2134 25.3668 26.0495 25.3668ZM42.0953 14.7548C42.0953 13.7508 42.0978 12.7847 42.0947 11.8186C42.0887 9.95733 40.5165 9.04813 38.6483 9.8295C37.0233 10.5092 35.4024 11.1968 33.7802 11.8818C32.937 12.2378 32.9474 12.2383 32.9741 13.0555C32.9924 13.6136 32.9777 14.1726 32.9777 14.7546C36.0299 14.7548 39.0224 14.7548 42.0953 14.7548ZM22.5654 14.7561C22.5654 14.03 22.5159 13.3418 22.5873 12.664C22.6208 12.3467 22.5532 12.2287 22.2577 12.1062C20.6301 11.4316 19.0118 10.7386 17.3879 10.0565C17.0294 9.90592 16.6707 9.74801 16.296 9.63822C15.0037 9.25943 13.5998 9.97171 13.4739 11.187C13.3525 12.3594 13.4476 13.5505 13.4476 14.7561C16.4543 14.7561 19.4474 14.7561 22.5654 14.7561ZM26.0496 16.2139C26.0496 18.8067 26.0496 21.3469 26.0496 23.8965C27.2312 23.8965 28.3745 23.8965 29.5165 23.8965C29.5165 21.3187 29.5165 18.7785 29.5165 16.2139C28.3505 16.2139 27.2203 16.2139 26.0496 16.2139ZM24.0777 14.7402C26.5587 14.7402 28.9771 14.7402 31.4273 14.7402C31.4273 14.2501 31.4308 13.7985 31.4266 13.3469C31.4187 12.5187 31.0216 12.1547 30.0957 12.1458C29.1649 12.1369 28.2341 12.1435 27.3032 12.1437C26.631 12.1438 25.9583 12.1305 25.2866 12.1484C24.5569 12.168 24.1228 12.4934 24.0852 13.0739C24.05 13.617 24.0777 14.1635 24.0777 14.7402ZM38.4723 8.32908C37.812 7.44854 37.1749 6.59311 36.5308 5.74199C36.1331 5.21638 35.9007 5.21206 35.4821 5.72066C34.3777 7.06251 33.277 8.40681 32.1754 9.75054C31.8795 10.1116 31.5858 10.474 31.2913 10.8355C31.5929 11.1164 31.8707 11.1464 32.2413 10.9869C34.1713 10.1559 36.1135 9.34825 38.0506 8.53088C38.188 8.47298 38.3191 8.40277 38.4723 8.32908ZM24.2062 10.8365C22.7611 9.07332 21.3337 7.32729 19.8995 5.58587C19.6507 5.28377 19.346 5.24721 19.0949 5.57271C18.3967 6.47815 17.7183 7.39628 17.0153 8.33171C17.1955 8.41546 17.3294 8.48276 17.4678 8.54122C19.3893 9.35229 21.3149 10.1553 23.23 10.9784C23.5901 11.1333 23.8794 11.1325 24.2062 10.8365Z" fill="#587E27"/>
<path d="M36.4013 3.93788C37.11 4.14711 37.5823 4.59555 37.9798 5.15105C38.6277 6.0565 39.3051 6.94492 39.9907 7.82724C40.106 7.97566 40.3101 8.1221 40.4995 8.15979C42.4281 8.54357 43.6151 9.82518 43.6457 11.6185C43.6633 12.649 43.6489 13.68 43.6489 14.7789C44.2835 14.7789 44.8809 14.8021 45.4755 14.775C48.2154 14.6502 49.1656 15.2105 48.9769 17.977C48.9662 18.133 48.9755 18.2904 48.9596 18.4459C48.9187 18.8479 48.6712 19.0829 48.227 19.0959C47.7817 19.1088 47.49 18.8885 47.4585 18.4878C47.4157 17.9426 47.4211 17.3935 47.4236 16.8461C47.4257 16.3913 47.1801 16.1896 46.6937 16.1897C41.5855 16.191 36.4774 16.1911 31.3691 16.1929C31.3029 16.1929 31.2367 16.2108 31.1401 16.2247C31.1401 18.7806 31.1401 21.3247 31.1401 23.9337C31.3308 23.9337 31.5145 23.9337 31.6983 23.9337C36.6167 23.9337 41.535 23.9341 46.4534 23.9334C47.2946 23.9333 47.4183 23.8214 47.4217 23.0708C47.4236 22.648 47.4073 22.2246 47.4292 21.8026C47.4556 21.2957 47.7357 21.0258 48.1937 21.0212C48.6756 21.0164 48.9597 21.2959 48.9708 21.8318C48.9828 22.4107 48.985 22.991 48.9532 23.5689C48.9136 24.2871 48.5086 24.8274 47.7974 25.1175C47.4472 25.2603 47.3723 25.432 47.3726 25.746C47.3806 33.7007 47.3647 41.6554 47.3942 49.61C47.3987 50.7979 46.9886 51.6407 45.7246 52.0625C43.6529 52.0625 41.5811 52.0625 39.5093 52.0625C39.1851 51.8157 38.874 51.5617 39.0655 51.1177C39.252 50.6851 39.6559 50.6492 40.0912 50.6506C41.6795 50.6556 43.2678 50.6529 44.856 50.6524C45.6992 50.6521 45.8245 50.5421 45.8245 49.7944C45.8249 41.8211 45.8248 33.8479 45.8248 25.8746C45.8248 25.7083 45.8248 25.5421 45.8248 25.3845C40.8799 25.3845 36.0064 25.3845 31.1483 25.3845C31.1483 33.827 31.1483 42.229 31.1483 50.6525C32.742 50.6525 34.2944 50.6566 35.8467 50.6499C36.2873 50.6479 36.6917 50.697 36.8682 51.1258C37.0493 51.5657 36.7471 51.8278 36.4016 52.0624C27.5274 52.0624 18.6532 52.0624 9.779 52.0624C9.33661 51.7367 8.78133 51.4776 8.48603 51.0651C8.22905 50.7063 8.18565 50.1744 8.18472 49.7188C8.16815 41.7614 8.17063 33.804 8.17964 25.8467C8.18006 25.4878 8.13055 25.2598 7.70525 25.0908C6.98549 24.8047 6.59116 24.228 6.58319 23.5216C6.55709 21.2193 6.5546 18.9163 6.58195 16.6141C6.59324 15.6624 7.37308 14.9294 8.41984 14.8217C8.91484 14.7708 9.41865 14.7849 9.91852 14.7802C10.5491 14.774 11.1797 14.7786 11.8489 14.7786C11.8489 13.6601 11.832 12.6129 11.8527 11.5664C11.8871 9.83147 13.1112 8.51443 14.9504 8.16421C15.1555 8.12511 15.3826 7.97792 15.5057 7.82048C16.1947 6.93985 16.8684 6.04869 17.5198 5.14485C17.9184 4.59188 18.3779 4.12793 19.1022 3.9375C19.3784 3.9375 19.6547 3.9375 19.9309 3.9375C20.6396 4.17643 21.0967 4.66398 21.5301 5.20162C22.9349 6.94455 24.3698 8.66755 25.7795 10.4074C25.9741 10.6475 26.1762 10.7485 26.5075 10.7399C27.335 10.7185 28.1641 10.7177 28.9914 10.7403C29.3264 10.7494 29.5229 10.6385 29.7156 10.4012C31.1368 8.6496 32.5817 6.91391 33.998 5.15914C34.4228 4.63287 34.8781 4.16487 35.573 3.9375C35.8489 3.93788 36.1251 3.93788 36.4013 3.93788ZM9.72783 25.3693C9.72783 25.5501 9.72783 25.6745 9.72783 25.7989C9.72783 33.8183 9.72721 41.8378 9.72907 49.8572C9.72928 50.53 9.86921 50.6522 10.609 50.6524C15.0625 50.6533 19.5162 50.6532 23.9698 50.6516C24.1184 50.6516 24.267 50.6336 24.4191 50.6237C24.4191 42.1872 24.4191 33.7855 24.4191 25.3694C19.5197 25.3693 14.6586 25.3693 9.72783 25.3693ZM24.4229 16.2162C24.2725 16.204 24.1874 16.1909 24.1022 16.1909C19.047 16.1898 13.9916 16.1883 8.93639 16.1915C8.28643 16.1918 8.12298 16.3531 8.12236 16.9579C8.12008 18.9774 8.12122 20.997 8.12154 23.0165C8.12164 23.8227 8.24334 23.9335 9.13577 23.9335C14.0358 23.9339 18.9358 23.9337 23.8358 23.9337C24.0203 23.9337 24.2048 23.9337 24.4229 23.9337C24.4229 21.3355 24.4229 18.7942 24.4229 16.2162ZM26.0495 25.3668C26.0495 33.8211 26.0495 42.2202 26.0495 50.6169C27.2325 50.6169 28.3771 50.6169 29.5157 50.6169C29.5157 42.1808 29.5157 33.7808 29.5157 25.3668C28.3462 25.3668 27.2134 25.3668 26.0495 25.3668ZM42.0953 14.7548C42.0953 13.7508 42.0978 12.7847 42.0947 11.8186C42.0887 9.95733 40.5165 9.04813 38.6483 9.8295C37.0233 10.5092 35.4024 11.1968 33.7802 11.8818C32.937 12.2378 32.9474 12.2383 32.9741 13.0555C32.9924 13.6136 32.9777 14.1726 32.9777 14.7546C36.0299 14.7548 39.0224 14.7548 42.0953 14.7548ZM22.5654 14.7561C22.5654 14.03 22.5159 13.3418 22.5873 12.664C22.6208 12.3467 22.5532 12.2287 22.2577 12.1062C20.6301 11.4316 19.0118 10.7386 17.3879 10.0565C17.0294 9.90592 16.6707 9.74801 16.296 9.63822C15.0037 9.25943 13.5998 9.97171 13.4739 11.187C13.3525 12.3594 13.4476 13.5505 13.4476 14.7561C16.4543 14.7561 19.4474 14.7561 22.5654 14.7561ZM26.0496 16.2139C26.0496 18.8067 26.0496 21.3469 26.0496 23.8965C27.2312 23.8965 28.3745 23.8965 29.5165 23.8965C29.5165 21.3187 29.5165 18.7785 29.5165 16.2139C28.3505 16.2139 27.2203 16.2139 26.0496 16.2139ZM24.0777 14.7402C26.5587 14.7402 28.9771 14.7402 31.4273 14.7402C31.4273 14.2501 31.4308 13.7985 31.4266 13.3469C31.4187 12.5187 31.0216 12.1547 30.0957 12.1458C29.1649 12.1369 28.2341 12.1435 27.3032 12.1437C26.631 12.1438 25.9583 12.1305 25.2866 12.1484C24.5569 12.168 24.1228 12.4934 24.0852 13.0739C24.05 13.617 24.0777 14.1635 24.0777 14.7402ZM38.4723 8.32908C37.812 7.44854 37.1749 6.59311 36.5308 5.74199C36.1331 5.21638 35.9007 5.21206 35.4821 5.72066C34.3777 7.06251 33.277 8.40681 32.1754 9.75054C31.8795 10.1116 31.5858 10.474 31.2913 10.8355C31.5929 11.1164 31.8707 11.1464 32.2413 10.9869C34.1713 10.1559 36.1135 9.34825 38.0506 8.53088C38.188 8.47298 38.3191 8.40277 38.4723 8.32908ZM24.2062 10.8365C22.7611 9.07332 21.3337 7.32729 19.8995 5.58587C19.6507 5.28377 19.346 5.24721 19.0949 5.57271C18.3967 6.47815 17.7183 7.39628 17.0153 8.33171C17.1955 8.41546 17.3294 8.48276 17.4678 8.54122C19.3893 9.35229 21.3149 10.1553 23.23 10.9784C23.5901 11.1333 23.8794 11.1325 24.2062 10.8365Z" fill="black" fill-opacity="0.2"/>
</svg>
