<svg width="57" height="56" viewBox="0 0 57 56" fill="none" xmlns="http://www.w3.org/2000/svg">
<g clip-path="url(#clip0)">
<path d="M20.0364 26.2476C20.0364 25.7834 20.8728 25.3211 22.1182 25.972C22.7597 26.3072 23.3031 25.1799 22.7482 24.7661C21.814 24.0714 18.5006 24.0435 18.5006 26.3954C18.5006 28.7163 21.6211 28.4845 21.6211 29.6833C21.6211 30.3094 20.5407 30.6383 19.6574 29.9687C19.3546 29.7399 18.9403 29.3108 18.5203 29.8948C17.2042 31.7216 23.1567 32.9817 23.1567 29.5257C23.1567 27.0404 20.0364 27.2373 20.0364 26.2476Z" fill="#587E27"/>
<path d="M20.0364 26.2476C20.0364 25.7834 20.8728 25.3211 22.1182 25.972C22.7597 26.3072 23.3031 25.1799 22.7482 24.7661C21.814 24.0714 18.5006 24.0435 18.5006 26.3954C18.5006 28.7163 21.6211 28.4845 21.6211 29.6833C21.6211 30.3094 20.5407 30.6383 19.6574 29.9687C19.3546 29.7399 18.9403 29.3108 18.5203 29.8948C17.2042 31.7216 23.1567 32.9817 23.1567 29.5257C23.1567 27.0404 20.0364 27.2373 20.0364 26.2476Z" fill="black" fill-opacity="0.2"/>
<path d="M29.1222 30.8722L27.2813 24.8676C27.0667 24.1723 25.4791 24.1967 25.2733 24.8676L23.4423 30.8722C23.2825 31.5075 24.7259 31.9102 24.9091 31.325L25.2438 30.0945H27.3208L27.6554 31.325C27.8418 31.9204 29.2764 31.4953 29.1222 30.8722ZM25.5587 28.9134L26.2771 26.2754L26.9956 28.9134H25.5587Z" fill="#587E27"/>
<path d="M29.1222 30.8722L27.2813 24.8676C27.0667 24.1723 25.4791 24.1967 25.2733 24.8676L23.4423 30.8722C23.2825 31.5075 24.7259 31.9102 24.9091 31.325L25.2438 30.0945H27.3208L27.6554 31.325C27.8418 31.9204 29.2764 31.4953 29.1222 30.8722ZM25.5587 28.9134L26.2771 26.2754L26.9956 28.9134H25.5587Z" fill="black" fill-opacity="0.2"/>
<path d="M33.4928 30.2723H31.2483V24.8779C31.2483 24.714 31.168 24.5958 31.0071 24.5235C30.5526 24.3199 29.7126 24.3968 29.7126 24.8779V31.1386C29.7126 31.4907 30.0988 31.6109 30.3819 31.6109H33.4926C34.0758 31.6112 34.0931 30.2723 33.4928 30.2723Z" fill="#587E27"/>
<path d="M33.4928 30.2723H31.2483V24.8779C31.2483 24.714 31.168 24.5958 31.0071 24.5235C30.5526 24.3199 29.7126 24.3968 29.7126 24.8779V31.1386C29.7126 31.4907 30.0988 31.6109 30.3819 31.6109H33.4926C34.0758 31.6112 34.0931 30.2723 33.4928 30.2723Z" fill="black" fill-opacity="0.2"/>
<path d="M38.7295 30.2751H36.0914V28.6016H37.5681C38.1765 28.6016 38.188 27.4203 37.5681 27.4203H36.0914V25.7567H38.7295V25.7568C39.3416 25.7568 39.3575 24.418 38.7295 24.418H35.2251C34.9423 24.418 34.5558 24.5378 34.5558 24.8905V31.1412C34.5558 31.4934 34.942 31.6136 35.2251 31.6136H38.7295C39.3428 31.6137 39.3513 30.2751 38.7295 30.2751Z" fill="#587E27"/>
<path d="M38.7295 30.2751H36.0914V28.6016H37.5681C38.1765 28.6016 38.188 27.4203 37.5681 27.4203H36.0914V25.7567H38.7295V25.7568C39.3416 25.7568 39.3575 24.418 38.7295 24.418H35.2251C34.9423 24.418 34.5558 24.5378 34.5558 24.8905V31.1412C34.5558 31.4934 34.942 31.6136 35.2251 31.6136H38.7295C39.3428 31.6137 39.3513 30.2751 38.7295 30.2751Z" fill="black" fill-opacity="0.2"/>
<path d="M28.9922 0C28.539 0 28.1719 0.367281 28.1719 0.820312V4.69241C28.1719 5.14544 28.539 5.51272 28.9922 5.51272C29.4453 5.51272 29.8125 5.14544 29.8125 4.69241V0.820312C29.8125 0.367281 29.4453 0 28.9922 0Z" fill="#587E27"/>
<path d="M28.9922 0C28.539 0 28.1719 0.367281 28.1719 0.820312V4.69241C28.1719 5.14544 28.539 5.51272 28.9922 5.51272C29.4453 5.51272 29.8125 5.14544 29.8125 4.69241V0.820312C29.8125 0.367281 29.4453 0 28.9922 0Z" fill="black" fill-opacity="0.2"/>
<path d="M28.9922 50.4875C28.539 50.4875 28.1719 50.8547 28.1719 51.3079V55.18C28.1719 55.6331 28.539 56.0003 28.9922 56.0003C29.4453 56.0003 29.8125 55.633 29.8125 55.18V51.308C29.8125 50.8547 29.4453 50.4875 28.9922 50.4875Z" fill="#587E27"/>
<path d="M28.9922 50.4875C28.539 50.4875 28.1719 50.8547 28.1719 51.3079V55.18C28.1719 55.6331 28.539 56.0003 28.9922 56.0003C29.4453 56.0003 29.8125 55.633 29.8125 55.18V51.308C29.8125 50.8547 29.4453 50.4875 28.9922 50.4875Z" fill="black" fill-opacity="0.2"/>
<path d="M18.0486 7.40569L16.1126 4.05236C15.886 3.66003 15.3843 3.52561 14.9919 3.75213C14.5996 3.97864 14.4652 4.48034 14.6917 4.87278L16.6277 8.22611C16.8547 8.61899 17.3566 8.75265 17.7484 8.52635C18.1408 8.29983 18.2753 7.79802 18.0486 7.40569Z" fill="#587E27"/>
<path d="M18.0486 7.40569L16.1126 4.05236C15.886 3.66003 15.3843 3.52561 14.9919 3.75213C14.5996 3.97864 14.4652 4.48034 14.6917 4.87278L16.6277 8.22611C16.8547 8.61899 17.3566 8.75265 17.7484 8.52635C18.1408 8.29983 18.2753 7.79802 18.0486 7.40569Z" fill="black" fill-opacity="0.2"/>
<path d="M43.2924 51.1283L41.3564 47.775C41.1299 47.3826 40.6279 47.2484 40.2357 47.4748C39.8434 47.7013 39.709 48.203 39.9355 48.5954L41.8715 51.9487C42.0984 52.3415 42.6002 52.4753 42.9922 52.249C43.3845 52.0225 43.519 51.5208 43.2924 51.1283Z" fill="#587E27"/>
<path d="M43.2924 51.1283L41.3564 47.775C41.1299 47.3826 40.6279 47.2484 40.2357 47.4748C39.8434 47.7013 39.709 48.203 39.9355 48.5954L41.8715 51.9487C42.0984 52.3415 42.6002 52.4753 42.9922 52.249C43.3845 52.0225 43.519 51.5208 43.2924 51.1283Z" fill="black" fill-opacity="0.2"/>
<path d="M9.21732 15.636L5.86399 13.7C5.47134 13.4732 4.96985 13.6079 4.74334 14.0002C4.51682 14.3925 4.65124 14.8942 5.04357 15.1209L8.3969 17.0569C8.78977 17.2838 9.29126 17.1487 9.51755 16.7567C9.74407 16.3642 9.60965 15.8625 9.21732 15.636Z" fill="#587E27"/>
<path d="M9.21732 15.636L5.86399 13.7C5.47134 13.4732 4.96985 13.6079 4.74334 14.0002C4.51682 14.3925 4.65124 14.8942 5.04357 15.1209L8.3969 17.0569C8.78977 17.2838 9.29126 17.1487 9.51755 16.7567C9.74407 16.3642 9.60965 15.8625 9.21732 15.636Z" fill="black" fill-opacity="0.2"/>
<path d="M52.9407 40.8795L49.5874 38.9436C49.1948 38.717 48.6931 38.8514 48.4667 39.2438C48.2402 39.6361 48.3746 40.1379 48.767 40.3645L52.1203 42.3004C52.5132 42.5271 53.0146 42.3922 53.2409 42.0002C53.4675 41.6077 53.333 41.106 52.9407 40.8795Z" fill="#587E27"/>
<path d="M52.9407 40.8795L49.5874 38.9436C49.1948 38.717 48.6931 38.8514 48.4667 39.2438C48.2402 39.6361 48.3746 40.1379 48.767 40.3645L52.1203 42.3004C52.5132 42.5271 53.0146 42.3922 53.2409 42.0002C53.4675 41.6077 53.333 41.106 52.9407 40.8795Z" fill="black" fill-opacity="0.2"/>
<path d="M42.9922 3.7522C42.5996 3.52557 42.0978 3.65999 41.8715 4.05243L39.9355 7.40575C39.709 7.79808 39.8434 8.29978 40.2357 8.52641C40.6285 8.75314 41.1301 8.61828 41.3564 8.22617L43.2924 4.87285C43.519 4.48041 43.3845 3.97871 42.9922 3.7522Z" fill="#587E27"/>
<path d="M42.9922 3.7522C42.5996 3.52557 42.0978 3.65999 41.8715 4.05243L39.9355 7.40575C39.709 7.79808 39.8434 8.29978 40.2357 8.52641C40.6285 8.75314 41.1301 8.61828 41.3564 8.22617L43.2924 4.87285C43.519 4.48041 43.3845 3.97871 42.9922 3.7522Z" fill="black" fill-opacity="0.2"/>
<path d="M17.7484 47.4748C17.3557 47.2483 16.854 47.3826 16.6277 47.775L14.6917 51.1284C14.4652 51.5207 14.5996 52.0224 14.9919 52.249C15.3848 52.4758 15.8863 52.3408 16.1126 51.9488L18.0486 48.5955C18.2753 48.2031 18.1408 47.7013 17.7484 47.4748Z" fill="#587E27"/>
<path d="M17.7484 47.4748C17.3557 47.2483 16.854 47.3826 16.6277 47.775L14.6917 51.1284C14.4652 51.5207 14.5996 52.0224 14.9919 52.249C15.3848 52.4758 15.8863 52.3408 16.1126 51.9488L18.0486 48.5955C18.2753 48.2031 18.1408 47.7013 17.7484 47.4748Z" fill="black" fill-opacity="0.2"/>
<path d="M53.2409 14.0002C53.0145 13.6078 52.5126 13.4733 52.1203 13.6999L48.767 15.636C48.3746 15.8625 48.2402 16.3642 48.4667 16.7566C48.6933 17.1493 49.1953 17.2834 49.5874 17.0569L52.9407 15.1208C53.333 14.8943 53.4675 14.3926 53.2409 14.0002Z" fill="#587E27"/>
<path d="M53.2409 14.0002C53.0145 13.6078 52.5126 13.4733 52.1203 13.6999L48.767 15.636C48.3746 15.8625 48.2402 16.3642 48.4667 16.7566C48.6933 17.1493 49.1953 17.2834 49.5874 17.0569L52.9407 15.1208C53.333 14.8943 53.4675 14.3926 53.2409 14.0002Z" fill="black" fill-opacity="0.2"/>
<path d="M9.51755 39.2437C9.29104 38.8513 8.78912 38.7171 8.3969 38.9435L5.04357 40.8794C4.65124 41.106 4.51682 41.6077 4.74334 42.0001C4.96985 42.3926 5.47177 42.5267 5.86399 42.3003L9.21732 40.3644C9.60965 40.1378 9.74418 39.6361 9.51755 39.2437Z" fill="#587E27"/>
<path d="M9.51755 39.2437C9.29104 38.8513 8.78912 38.7171 8.3969 38.9435L5.04357 40.8794C4.65124 41.106 4.51682 41.6077 4.74334 42.0001C4.96985 42.3926 5.47177 42.5267 5.86399 42.3003L9.21732 40.3644C9.60965 40.1378 9.74418 39.6361 9.51755 39.2437Z" fill="black" fill-opacity="0.2"/>
<path d="M5.6847 27.1797H1.8125C1.35936 27.1797 0.992188 27.5469 0.992188 28C0.992188 28.4531 1.35936 28.8203 1.8125 28.8203H5.68459C6.13773 28.8203 6.50491 28.4531 6.50491 28C6.50491 27.5469 6.13784 27.1797 5.6847 27.1797Z" fill="#587E27"/>
<path d="M5.6847 27.1797H1.8125C1.35936 27.1797 0.992188 27.5469 0.992188 28C0.992188 28.4531 1.35936 28.8203 1.8125 28.8203H5.68459C6.13773 28.8203 6.50491 28.4531 6.50491 28C6.50491 27.5469 6.13784 27.1797 5.6847 27.1797Z" fill="black" fill-opacity="0.2"/>
<path d="M56.1718 27.1797H52.2998C51.8467 27.1797 51.4795 27.5469 51.4795 28C51.4795 28.4531 51.8467 28.8203 52.2998 28.8203H56.1718C56.6249 28.8203 56.9921 28.4531 56.9921 28C56.9921 27.5469 56.6248 27.1797 56.1718 27.1797Z" fill="#587E27"/>
<path d="M56.1718 27.1797H52.2998C51.8467 27.1797 51.4795 27.5469 51.4795 28C51.4795 28.4531 51.8467 28.8203 52.2998 28.8203H56.1718C56.6249 28.8203 56.9921 28.4531 56.9921 28C56.9921 27.5469 56.6248 27.1797 56.1718 27.1797Z" fill="black" fill-opacity="0.2"/>
<path d="M49.0911 29.0992C48.6415 29.0574 48.2399 29.3874 48.197 29.8385C47.2661 39.6523 38.9752 47.2944 28.9922 47.2944C18.3542 47.2944 9.69957 38.6398 9.69957 28.0018C9.69957 17.3637 18.3542 8.70909 28.9922 8.70909C38.9812 8.70909 47.2666 16.3566 48.197 26.1651C48.2399 26.6163 48.6413 26.9464 49.0911 26.9044C49.5422 26.8615 49.873 26.4612 49.8304 26.0101C48.8197 15.3578 39.826 7.06836 28.9922 7.06836C17.4496 7.06836 8.05884 16.4591 8.05884 28.0018C8.05884 39.5443 17.4496 48.9351 28.9922 48.9351C39.8339 48.9351 48.8206 40.6376 49.8305 29.9934C49.8731 29.5424 49.5422 29.1421 49.0911 29.0992Z" fill="#587E27"/>
<path d="M49.0911 29.0992C48.6415 29.0574 48.2399 29.3874 48.197 29.8385C47.2661 39.6523 38.9752 47.2944 28.9922 47.2944C18.3542 47.2944 9.69957 38.6398 9.69957 28.0018C9.69957 17.3637 18.3542 8.70909 28.9922 8.70909C38.9812 8.70909 47.2666 16.3566 48.197 26.1651C48.2399 26.6163 48.6413 26.9464 49.0911 26.9044C49.5422 26.8615 49.873 26.4612 49.8304 26.0101C48.8197 15.3578 39.826 7.06836 28.9922 7.06836C17.4496 7.06836 8.05884 16.4591 8.05884 28.0018C8.05884 39.5443 17.4496 48.9351 28.9922 48.9351C39.8339 48.9351 48.8206 40.6376 49.8305 29.9934C49.8731 29.5424 49.5422 29.1421 49.0911 29.0992Z" fill="black" fill-opacity="0.2"/>
<path d="M28.992 10.3743C19.298 10.3743 11.3667 18.2682 11.3667 27.9997C11.3667 37.7029 19.2622 45.6251 28.992 45.6251C38.7229 45.6251 46.6174 37.7013 46.6174 27.9997C46.6173 18.294 38.7196 10.3743 28.992 10.3743ZM14.9293 35.5932H43.0548C36.9963 46.7681 20.9872 46.767 14.9293 35.5932ZM14.1578 33.9525C13.398 32.0684 13.0073 30.0516 13.0073 27.9997C13.0073 25.2209 13.8209 22.7205 14.1578 22.0469H26.8187C27.2718 22.0469 27.639 21.6797 27.639 21.2266C27.639 20.7735 27.2718 20.4063 26.8187 20.4063H14.9294C20.9878 9.2313 36.9969 9.23228 43.0548 20.4063H30.647C30.1939 20.4063 29.8267 20.7735 29.8267 21.2266C29.8267 21.6797 30.1939 22.0469 30.647 22.0469H43.826C43.8891 22.173 44.9765 24.6973 44.9765 27.9997C44.9765 30.047 44.5868 32.0663 43.8261 33.9525H14.1578Z" fill="#587E27"/>
<path d="M28.992 10.3743C19.298 10.3743 11.3667 18.2682 11.3667 27.9997C11.3667 37.7029 19.2622 45.6251 28.992 45.6251C38.7229 45.6251 46.6174 37.7013 46.6174 27.9997C46.6173 18.294 38.7196 10.3743 28.992 10.3743ZM14.9293 35.5932H43.0548C36.9963 46.7681 20.9872 46.767 14.9293 35.5932ZM14.1578 33.9525C13.398 32.0684 13.0073 30.0516 13.0073 27.9997C13.0073 25.2209 13.8209 22.7205 14.1578 22.0469H26.8187C27.2718 22.0469 27.639 21.6797 27.639 21.2266C27.639 20.7735 27.2718 20.4063 26.8187 20.4063H14.9294C20.9878 9.2313 36.9969 9.23228 43.0548 20.4063H30.647C30.1939 20.4063 29.8267 20.7735 29.8267 21.2266C29.8267 21.6797 30.1939 22.0469 30.647 22.0469H43.826C43.8891 22.173 44.9765 24.6973 44.9765 27.9997C44.9765 30.047 44.5868 32.0663 43.8261 33.9525H14.1578Z" fill="black" fill-opacity="0.2"/>
</g>
<defs>
<clipPath id="clip0">
<rect width="56" height="56" fill="white" transform="translate(0.992188)"/>
</clipPath>
</defs>
</svg>
