<svg width="18" height="18" viewBox="0 0 18 18" fill="none" xmlns="http://www.w3.org/2000/svg">
<path fill-rule="evenodd" clip-rule="evenodd" d="M9.00021 6.42456C9.4736 6.42456 9.85735 6.80832 9.85735 7.2817V14.1366C9.85735 14.61 9.4736 14.9938 9.00021 14.9938C8.52682 14.9938 8.14307 14.61 8.14307 14.1366V7.2817C8.14307 6.80832 8.52682 6.42456 9.00021 6.42456Z" fill="#272C20"/>
<path fill-rule="evenodd" clip-rule="evenodd" d="M5.5715 8.99561C6.04489 8.99561 6.42864 9.37936 6.42864 9.85275V14.1368C6.42864 14.6102 6.04489 14.9939 5.5715 14.9939C5.09811 14.9939 4.71436 14.6102 4.71436 14.1368V9.85275C4.71436 9.37936 5.09811 8.99561 5.5715 8.99561Z" fill="#272C20"/>
<path fill-rule="evenodd" clip-rule="evenodd" d="M12.4289 8.99561C12.9023 8.99561 13.2861 9.37936 13.2861 9.85275V14.1368C13.2861 14.6102 12.9023 14.9939 12.4289 14.9939C11.9555 14.9939 11.5718 14.6102 11.5718 14.1368V9.85275C11.5718 9.37936 11.9555 8.99561 12.4289 8.99561Z" fill="#272C20"/>
<path fill-rule="evenodd" clip-rule="evenodd" d="M3.00021 5.56909C3.4736 5.56909 3.85735 5.95285 3.85735 6.42623V15.8492H14.1431V6.42623C14.1431 5.95285 14.5268 5.56909 15.0002 5.56909C15.4736 5.56909 15.8574 5.95285 15.8574 6.42623V15.8498C15.8574 16.7965 15.0891 17.5635 14.1431 17.5635H3.85735C2.91135 17.5635 2.14307 16.7965 2.14307 15.8498V6.42623C2.14307 5.95285 2.52682 5.56909 3.00021 5.56909Z" fill="#272C20"/>
<path fill-rule="evenodd" clip-rule="evenodd" d="M0.428711 3.85543C0.428711 3.38205 0.812467 2.99829 1.28585 2.99829H16.7144C17.1878 2.99829 17.5716 3.38205 17.5716 3.85543C17.5716 4.32882 17.1878 4.71258 16.7144 4.71258H1.28585C0.812467 4.71258 0.428711 4.32882 0.428711 3.85543Z" fill="#272C20"/>
<path fill-rule="evenodd" clip-rule="evenodd" d="M5.57178 2.1422C5.57178 1.19545 6.34006 0.428467 7.28606 0.428467H10.7146C11.6606 0.428467 12.4289 1.19545 12.4289 2.1422V3.85536C12.4289 4.32875 12.0452 4.71251 11.5718 4.71251C11.0984 4.71251 10.7146 4.32875 10.7146 3.85536V2.14275H7.28606V3.85536C7.28606 4.32875 6.90231 4.71251 6.42892 4.71251C5.95553 4.71251 5.57178 4.32875 5.57178 3.85536V2.1422Z" fill="#272C20"/>
</svg>
