<svg width="28" height="28" viewBox="0 0 28 28" fill="none" xmlns="http://www.w3.org/2000/svg">
<path fill-rule="evenodd" clip-rule="evenodd" d="M4.5 6.25V21.75H23.5V6.25H4.5ZM2.5 6.125C2.5 5.08947 3.33947 4.25 4.375 4.25H23.625C24.6605 4.25 25.5 5.08947 25.5 6.125V21.875C25.5 22.9105 24.6605 23.75 23.625 23.75H4.375C3.33947 23.75 2.5 22.9105 2.5 21.875V6.125Z" fill="#272C20"/>
<path fill-rule="evenodd" clip-rule="evenodd" d="M2.5 8.75C2.5 8.19772 2.94772 7.75 3.5 7.75H24.5C25.0523 7.75 25.5 8.19772 25.5 8.75C25.5 9.30229 25.0523 9.75 24.5 9.75H3.5C2.94772 9.75 2.5 9.30229 2.5 8.75Z" fill="#272C20"/>
<path fill-rule="evenodd" clip-rule="evenodd" d="M9.62506 11.25C10.1773 11.25 10.6251 11.6977 10.6251 12.25C10.6251 13.1451 10.9806 14.0035 11.6136 14.6365C12.2465 15.2694 13.105 15.625 14.0001 15.625C14.8952 15.625 15.7536 15.2694 16.3865 14.6365C17.0195 14.0035 17.3751 13.1451 17.3751 12.25C17.3751 11.6977 17.8228 11.25 18.3751 11.25C18.9273 11.25 19.3751 11.6977 19.3751 12.25C19.3751 13.6755 18.8088 15.0427 17.8008 16.0507C16.7928 17.0587 15.4256 17.625 14.0001 17.625C12.5745 17.625 11.2074 17.0587 10.1994 16.0507C9.19135 15.0427 8.62506 13.6755 8.62506 12.25C8.62506 11.6977 9.07278 11.25 9.62506 11.25Z" fill="#272C20"/>
</svg>
