<svg width="28" height="28" viewBox="0 0 28 28" fill="none" xmlns="http://www.w3.org/2000/svg">
<path fill-rule="evenodd" clip-rule="evenodd" d="M22.7071 5.29289C23.0976 5.68342 23.0976 6.31658 22.7071 6.70711L6.70711 22.7071C6.31658 23.0976 5.68342 23.0976 5.29289 22.7071C4.90237 22.3166 4.90237 21.6834 5.29289 21.2929L21.2929 5.29289C21.6834 4.90237 22.3166 4.90237 22.7071 5.29289Z" fill="#272C20"/>
<path fill-rule="evenodd" clip-rule="evenodd" d="M5.29289 5.29289C5.68342 4.90237 6.31658 4.90237 6.70711 5.29289L22.7071 21.2929C23.0976 21.6834 23.0976 22.3166 22.7071 22.7071C22.3166 23.0976 21.6834 23.0976 21.2929 22.7071L5.29289 6.70711C4.90237 6.31658 4.90237 5.68342 5.29289 5.29289Z" fill="#272C20"/>
</svg>
