<svg width="27" height="24" viewBox="0 0 27 24" fill="none" xmlns="http://www.w3.org/2000/svg">
<path fill-rule="evenodd" clip-rule="evenodd" d="M22.3217 5.8139C22.6634 5.47219 23.2174 5.47219 23.5591 5.8139C25.2001 7.45484 26.122 9.68044 26.122 12.0011C26.122 14.3217 25.2001 16.5473 23.5591 18.1883C23.2174 18.53 22.6634 18.53 22.3217 18.1883C21.98 17.8466 21.98 17.2925 22.3217 16.9508C23.6345 15.6381 24.372 13.8576 24.372 12.0011C24.372 10.1446 23.6345 8.36409 22.3217 7.05134C21.98 6.70963 21.98 6.15561 22.3217 5.8139Z" fill="white"/>
<path fill-rule="evenodd" clip-rule="evenodd" d="M7.74902 6.75122C8.23227 6.75122 8.62402 7.14297 8.62402 7.62622V16.3762C8.62402 16.8595 8.23227 17.2512 7.74902 17.2512C7.26577 17.2512 6.87402 16.8595 6.87402 16.3762V7.62622C6.87402 7.14297 7.26577 6.75122 7.74902 6.75122Z" fill="white"/>
<path fill-rule="evenodd" clip-rule="evenodd" d="M19.2289 8.90765C19.5706 8.56594 20.1247 8.56594 20.4664 8.90765C21.2868 9.72812 21.7478 10.8409 21.7478 12.0012C21.7478 13.1616 21.2868 14.2744 20.4664 15.0948C20.1247 15.4365 19.5706 15.4365 19.2289 15.0948C18.8872 14.7531 18.8872 14.1991 19.2289 13.8574C19.7212 13.3651 19.9978 12.6974 19.9978 12.0012C19.9978 11.305 19.7212 10.6374 19.2289 10.1451C18.8872 9.80338 18.8872 9.24936 19.2289 8.90765Z" fill="white"/>
<path fill-rule="evenodd" clip-rule="evenodd" d="M3.66142 1.72756C4.01899 1.40249 4.57239 1.42884 4.89745 1.78642L22.3975 21.0364C22.7225 21.394 22.6962 21.9474 22.3386 22.2725C21.981 22.5975 21.4276 22.5712 21.1026 22.2136L3.60256 2.96359C3.27749 2.60602 3.30384 2.05263 3.66142 1.72756Z" fill="white"/>
<path fill-rule="evenodd" clip-rule="evenodd" d="M9.18692 6.50849C9.48361 6.88995 9.41489 7.43969 9.03344 7.73638L8.2872 8.31679C8.13361 8.43625 7.94458 8.50111 7.75 8.50111L2.5 8.50111V15.5011H7.75C7.94458 15.5011 8.13361 15.566 8.2872 15.6854L14.75 20.712V14.8873C14.75 14.4041 15.1418 14.0123 15.625 14.0123C16.1082 14.0123 16.5 14.4041 16.5 14.8873V22.5011C16.5 22.8353 16.3096 23.1403 16.0094 23.2871C15.7092 23.434 15.3516 23.397 15.0878 23.1918L7.44978 17.2511H2.5C2.03587 17.2511 1.59075 17.0667 1.26256 16.7385C0.934375 16.4104 0.75 15.9652 0.75 15.5011V8.50111C0.75 8.03698 0.934374 7.59186 1.26256 7.26367C1.59075 6.93548 2.03587 6.75111 2.5 6.75111H7.44978L7.95904 6.35501C8.34049 6.05833 8.89023 6.12704 9.18692 6.50849Z" fill="white"/>
<path fill-rule="evenodd" clip-rule="evenodd" d="M16.009 0.715204C16.3092 0.862033 16.4996 1.16704 16.4996 1.50123V9.68434C16.4996 10.1676 16.1078 10.5593 15.6246 10.5593C15.1413 10.5593 14.7496 10.1676 14.7496 9.68434V3.29026L11.8038 5.58134C11.4224 5.87802 10.8726 5.8093 10.576 5.42784C10.2793 5.04638 10.348 4.49664 10.7295 4.19996L15.0874 0.810538C15.3512 0.605368 15.7088 0.568375 16.009 0.715204Z" fill="white"/>
</svg>
