<svg width="24" height="24" viewBox="0 0 24 24" fill="none" xmlns="http://www.w3.org/2000/svg">
<path d="M12.7498 6.12901V3.75C12.7498 3.55109 12.6707 3.36032 12.5301 3.21967C12.3894 3.07902 12.1987 3 11.9998 3C11.8008 3 11.6101 3.07902 11.4694 3.21967C11.3288 3.36032 11.2498 3.55109 11.2498 3.75V6.12901C10.8111 6.28403 10.4313 6.57124 10.1626 6.9511C9.89401 7.33095 9.74976 7.78475 9.74976 8.25C9.74976 8.71525 9.89401 9.16905 10.1626 9.54891C10.4313 9.92876 10.8111 10.216 11.2498 10.371V20.25C11.2498 20.4489 11.3288 20.6397 11.4694 20.7803C11.6101 20.921 11.8008 21 11.9998 21C12.1987 21 12.3894 20.921 12.5301 20.7803C12.6707 20.6397 12.7498 20.4489 12.7498 20.25V10.371C13.1884 10.216 13.5682 9.92876 13.8369 9.54891C14.1055 9.16905 14.2498 8.71525 14.2498 8.25C14.2498 7.78475 14.1055 7.33095 13.8369 6.9511C13.5682 6.57124 13.1884 6.28403 12.7498 6.12901V6.12901Z" fill="#272C20"/>
<path d="M20.9998 15.75C20.9992 15.2849 20.8547 14.8314 20.5861 14.4516C20.3176 14.0719 19.9381 13.7845 19.4998 13.629L19.4999 3.75C19.4999 3.55109 19.4208 3.36032 19.2802 3.21967C19.1395 3.07902 18.9488 3 18.7499 3C18.5509 3 18.3602 3.07902 18.2195 3.21967C18.0789 3.36032 17.9999 3.55109 17.9999 3.75L17.9998 13.629C17.5611 13.784 17.1813 14.0712 16.9127 14.4511C16.644 14.8309 16.4998 15.2848 16.4998 15.75C16.4998 16.2152 16.644 16.6691 16.9127 17.0489C17.1813 17.4288 17.5611 17.716 17.9998 17.871L17.9999 20.25C17.9999 20.4489 18.0789 20.6397 18.2195 20.7803C18.3602 20.921 18.5509 21 18.7499 21C18.9488 21 19.1395 20.921 19.2802 20.7803C19.4208 20.6397 19.4999 20.4489 19.4999 20.25L19.4998 17.871C19.9381 17.7155 20.3176 17.4281 20.5861 17.0484C20.8547 16.6686 20.9992 16.2151 20.9998 15.75V15.75Z" fill="#272C20"/>
<path d="M5.99976 10.629L5.99971 3.75C5.99971 3.55109 5.9207 3.36032 5.78004 3.21967C5.63939 3.07902 5.44863 3 5.24971 3C5.0508 3 4.86004 3.07902 4.71938 3.21967C4.57873 3.36032 4.49971 3.55109 4.49971 3.75L4.49976 10.629C4.0611 10.784 3.68129 11.0712 3.41265 11.4511C3.14401 11.8309 2.99976 12.2848 2.99976 12.75C2.99976 13.2152 3.14401 13.6691 3.41265 14.0489C3.68129 14.4288 4.0611 14.716 4.49976 14.871L4.49971 20.25C4.49971 20.4489 4.57873 20.6397 4.71938 20.7803C4.86004 20.921 5.0508 21 5.24971 21C5.44863 21 5.63939 20.921 5.78004 20.7803C5.9207 20.6397 5.99971 20.4489 5.99971 20.25L5.99976 14.871C6.43842 14.716 6.81823 14.4288 7.08687 14.0489C7.35551 13.6691 7.49977 13.2152 7.49977 12.75C7.49977 12.2848 7.35551 11.8309 7.08687 11.4511C6.81823 11.0712 6.43842 10.784 5.99976 10.629V10.629Z" fill="#272C20"/>
</svg>
