<svg width="28" height="28" viewBox="0 0 28 28" fill="none" xmlns="http://www.w3.org/2000/svg">
<path d="M19.2526 3.49999C18.2339 3.49824 17.2289 3.73422 16.3175 4.18916C15.4061 4.64409 14.6134 5.30543 14.0026 6.12056C13.1752 5.01975 12.0226 4.20699 10.7079 3.79728C9.39323 3.38757 7.98298 3.40167 6.67673 3.83757C5.37048 4.27348 4.23439 5.10912 3.42921 6.22625C2.62402 7.34338 2.19053 8.68543 2.19006 10.0625C2.19006 17.9225 13.1102 24.1281 13.575 24.3884C13.7056 24.4616 13.8528 24.5 14.0026 24.5C14.1523 24.5 14.2995 24.4616 14.4301 24.3884C16.4385 23.2121 18.3235 21.8368 20.0566 20.2832C23.8776 16.8443 25.8151 13.4055 25.8151 10.0625C25.8131 8.32262 25.1211 6.65456 23.8908 5.42428C22.6605 4.194 20.9924 3.50197 19.2526 3.49999Z" fill="#272C20"/>
</svg>
