<svg width="25" height="22" viewBox="0 0 25 22" fill="none" xmlns="http://www.w3.org/2000/svg">
<path d="M12 21.6C11.8 21.6 11.7 21.6 11.5 21.5C11 21.2 0.0999756 15 0.0999756 7.10001C0.0999756 5.60001 0.599976 4.10001 1.59998 2.90001C2.59998 1.70001 3.89998 0.900005 5.49998 0.600005C6.99998 0.300005 8.59998 0.500005 9.99998 1.30001C10.8 1.70001 11.5 2.3 12.1 3.1C12.7 2.4 13.4 1.80001 14.2 1.30001C15.6 0.600005 17.1 0.300005 18.7 0.600005C20.2 0.900005 21.6 1.70001 22.6 2.90001C23.6 4.10001 24.1 5.60001 24.1 7.10001C24.1 15 13.1 21.3 12.7 21.5C12.3 21.6 12.2 21.6 12 21.6ZM6.69998 2.40001C6.39998 2.40001 6.09998 2.4 5.79998 2.50001C4.69998 2.70001 3.79998 3.3 3.09998 4.1C2.39998 4.9 1.99998 6.00001 1.99998 7.10001C1.99998 13 9.89997 18.2 11.9 19.5C14 18.2 21.8 13 21.8 7.10001C21.8 6.00001 21.4 5 20.7 4.1C20 3.3 19.1 2.70001 18 2.50001C16.9 2.3 15.8 2.50001 14.9 3.00001C14 3.50001 13.2 4.30001 12.8 5.30001C12.6 5.70001 12.3 5.9 11.9 5.9C11.5 5.9 11.1 5.70001 11 5.30001C10.6 4.30001 9.79997 3.50001 8.89997 3.00001C8.29997 2.6 7.49998 2.40001 6.69998 2.40001Z" fill="#272C20"/>
</svg>
