<svg width="28" height="28" viewBox="0 0 28 28" fill="none" xmlns="http://www.w3.org/2000/svg">
<path d="M4.8125 8.75C5.53737 8.75 6.125 8.16237 6.125 7.4375C6.125 6.71263 5.53737 6.125 4.8125 6.125C4.08763 6.125 3.5 6.71263 3.5 7.4375C3.5 8.16237 4.08763 8.75 4.8125 8.75Z" fill="#272C20"/>
<path d="M4.8125 15.3125C5.53737 15.3125 6.125 14.7249 6.125 14C6.125 13.2751 5.53737 12.6875 4.8125 12.6875C4.08763 12.6875 3.5 13.2751 3.5 14C3.5 14.7249 4.08763 15.3125 4.8125 15.3125Z" fill="#272C20"/>
<path d="M4.8125 21.8756C5.53737 21.8756 6.125 21.288 6.125 20.5631C6.125 19.8383 5.53737 19.2506 4.8125 19.2506C4.08763 19.2506 3.5 19.8383 3.5 20.5631C3.5 21.288 4.08763 21.8756 4.8125 21.8756Z" fill="#272C20"/>
<path fill-rule="evenodd" clip-rule="evenodd" d="M8.625 7.4375C8.625 6.88522 9.07272 6.4375 9.625 6.4375H23.625C24.1773 6.4375 24.625 6.88522 24.625 7.4375C24.625 7.98978 24.1773 8.4375 23.625 8.4375H9.625C9.07272 8.4375 8.625 7.98978 8.625 7.4375Z" fill="#272C20"/>
<path fill-rule="evenodd" clip-rule="evenodd" d="M8.62561 14C8.62561 13.4477 9.07333 13 9.62561 13H23.6249C24.1772 13 24.6249 13.4477 24.6249 14C24.6249 14.5523 24.1772 15 23.6249 15H9.62561C9.07333 15 8.62561 14.5523 8.62561 14Z" fill="#272C20"/>
<path fill-rule="evenodd" clip-rule="evenodd" d="M8.62561 20.5625C8.62561 20.0102 9.07333 19.5625 9.62561 19.5625H23.6249C24.1772 19.5625 24.6249 20.0102 24.6249 20.5625C24.6249 21.1148 24.1772 21.5625 23.6249 21.5625H9.62561C9.07333 21.5625 8.62561 21.1148 8.62561 20.5625Z" fill="#272C20"/>
</svg>
