<svg width="28" height="28" viewBox="0 0 28 28" fill="none" xmlns="http://www.w3.org/2000/svg">
<path fill-rule="evenodd" clip-rule="evenodd" d="M14.1141 13.0001C14.6664 13.0058 15.1094 13.4581 15.1037 14.0103L14.9876 25.2552C14.9819 25.8075 14.5296 26.2505 13.9773 26.2448C13.4251 26.2391 12.982 25.7868 12.9877 25.2346L13.1038 13.9897C13.1096 13.4374 13.5619 12.9944 14.1141 13.0001Z" fill="#272C20"/>
<path fill-rule="evenodd" clip-rule="evenodd" d="M13.0651 1.99779C13.3465 1.8387 13.6644 1.7551 13.9877 1.7551C14.311 1.7551 14.6288 1.8387 14.9103 1.99779L24.0978 7.19073C24.3868 7.35411 24.6273 7.59132 24.7947 7.87811C24.962 8.16491 25.0502 8.49099 25.0502 8.82303V19.177C25.0502 19.509 24.962 19.8351 24.7947 20.1219C24.6273 20.4087 24.3868 20.6459 24.0978 20.8093L14.9103 26.0022C14.6288 26.1613 14.311 26.2449 13.9877 26.2449C13.6644 26.2449 13.3465 26.1613 13.0651 26.0022L3.87756 20.8093C3.5885 20.6459 3.34801 20.4087 3.18068 20.1219C3.01334 19.8351 2.92517 19.509 2.92517 19.177V8.82303C2.92517 8.49099 3.01335 8.16491 3.18068 7.87811C3.34801 7.59132 3.5885 7.35411 3.87756 7.19073L13.0651 1.99779ZM4.92517 8.89596V19.104L13.9877 24.2263L23.0502 19.104V8.89596L13.9877 3.77368L4.92517 8.89596ZM14.0489 3.73905C14.049 3.73901 14.0491 3.73896 14.0492 3.73892L13.9877 3.6301L13.9262 3.73892C13.9262 3.73896 13.9263 3.73901 13.9264 3.73905L13.9262 3.73892L13.9877 3.6301L14.0492 3.73892L14.0489 3.73905Z" fill="#272C20"/>
<path fill-rule="evenodd" clip-rule="evenodd" d="M3.17275 7.89209C3.44215 7.40997 4.05137 7.23752 4.5335 7.50692L14.0981 12.8513L23.4339 7.51298C23.9134 7.23883 24.5243 7.40526 24.7984 7.8847C25.0726 8.36413 24.9061 8.97504 24.4267 9.24918L14.6001 14.8681C14.2956 15.0422 13.9221 15.0441 13.6159 14.873L3.55793 9.25284C3.0758 8.98345 2.90335 8.37422 3.17275 7.89209Z" fill="#272C20"/>
<path fill-rule="evenodd" clip-rule="evenodd" d="M8.34108 4.83539C8.61048 4.35327 9.21971 4.18082 9.70183 4.45021L19.8495 10.1204C20.1658 10.2972 20.3618 10.6311 20.3618 10.9934V16.2434C20.3618 16.7957 19.914 17.2434 19.3618 17.2434C18.8095 17.2434 18.3618 16.7957 18.3618 16.2434V11.5802L8.72626 6.19614C8.24414 5.92675 8.07169 5.31752 8.34108 4.83539Z" fill="#272C20"/>
</svg>
