<svg width="28" height="28" viewBox="0 0 28 28" fill="none" xmlns="http://www.w3.org/2000/svg">
<path fill-rule="evenodd" clip-rule="evenodd" d="M8.98607 4.54755L11.1196 9.52586L9.33968 12.2456L9.33792 12.2482C9.16067 12.5169 9.05588 12.8269 9.03373 13.148C9.01152 13.4702 9.07326 13.7927 9.21294 14.0839L10.1146 13.6515L9.2163 14.0909C10.2223 16.1476 11.8895 17.8072 13.9508 18.8038L13.9578 18.8072C14.2508 18.946 14.5749 19.0062 14.8982 18.9817C15.2205 18.9573 15.5308 18.8497 15.799 18.6695L15.8016 18.6677L18.479 16.8824L23.4523 19.0137C23.3021 20.0002 22.8093 20.9037 22.0587 21.5645C21.2826 22.2478 20.2841 22.4997 19.2501 22.4998M11.0493 13.2856C11.8497 14.8815 13.1477 16.1737 14.7472 16.9669L17.4258 15.1808C17.6853 15.0078 17.9839 14.9022 18.2945 14.8737C18.6051 14.8451 18.9179 14.8945 19.2046 15.0174L24.3245 17.2116L24.3263 17.2124C24.699 17.3712 25.0103 17.6467 25.2131 17.9974C25.4163 18.3488 25.4998 18.7567 25.4511 19.1596L25.4503 19.1662C25.2575 20.6745 24.5216 22.0609 23.3803 23.0656C22.239 24.0704 20.7706 24.6247 19.2501 24.6248C15.0397 24.6248 11.0018 22.9523 8.02468 19.9751C5.04754 16.998 3.375 12.9601 3.375 8.7498C3.37508 7.22924 3.9294 5.76079 4.93417 4.6195C5.93895 3.47821 7.32527 2.7423 8.83356 2.54954L8.84019 2.5487C9.24312 2.49993 9.65099 2.58346 10.0023 2.78666C10.3531 2.98954 10.6286 3.30076 10.7874 3.67355L10.7882 3.6753L12.9843 8.79963C13.1061 9.08382 13.1557 9.39371 13.1288 9.70172C13.1018 10.0097 12.9991 10.3063 12.8298 10.565L11.0493 13.2856ZM8.98607 4.54755C7.99959 4.69774 7.09612 5.1905 6.43532 5.94108C5.75202 6.71722 5.37505 7.7158 5.375 8.74986C5.375 12.4297 6.83683 15.9588 9.43889 18.5609C12.0409 21.163 15.5702 22.4998 19.2501 22.4998" fill="white"/>
</svg>
