<svg width="28" height="28" viewBox="0 0 28 28" fill="none" xmlns="http://www.w3.org/2000/svg">
<path fill-rule="evenodd" clip-rule="evenodd" d="M14 8.875C12.6193 8.875 11.5 9.99429 11.5 11.375C11.5 12.7557 12.6193 13.875 14 13.875C15.3807 13.875 16.5 12.7557 16.5 11.375C16.5 9.99429 15.3807 8.875 14 8.875ZM9.5 11.375C9.5 8.88972 11.5147 6.875 14 6.875C16.4853 6.875 18.5 8.88972 18.5 11.375C18.5 13.8603 16.4853 15.875 14 15.875C11.5147 15.875 9.5 13.8603 9.5 11.375Z" fill="#272C20"/>
<path fill-rule="evenodd" clip-rule="evenodd" d="M14 3.625C11.9446 3.625 9.97333 4.44152 8.51992 5.89492C7.06652 7.34833 6.25 9.31957 6.25 11.375C6.25 14.9524 8.24935 18.2221 10.3796 20.6719C11.4325 21.8828 12.488 22.8594 13.2805 23.533C13.5571 23.7681 13.8008 23.9656 14 24.1224C14.1992 23.9656 14.4429 23.7681 14.7195 23.533C15.512 22.8594 16.5675 21.8828 17.6204 20.6719C19.7507 18.2221 21.75 14.9524 21.75 11.375C21.75 9.31957 20.9335 7.34833 19.4801 5.89492C18.0267 4.44152 16.0554 3.625 14 3.625ZM14 25.375C13.4265 26.1942 13.4263 26.194 13.426 26.1938L13.4252 26.1933L13.423 26.1917L13.4163 26.187L13.3935 26.1708C13.3743 26.1571 13.347 26.1374 13.3121 26.112C13.2424 26.0611 13.1425 25.9871 13.0168 25.891C12.7654 25.6988 12.4099 25.4179 11.9852 25.0569C11.137 24.3359 10.005 23.2891 8.87039 21.9843C6.62565 19.4029 4.25 15.6726 4.25 11.375C4.25 8.78914 5.27723 6.30919 7.10571 4.48071C8.93419 2.65223 11.4141 1.625 14 1.625C16.5859 1.625 19.0658 2.65223 20.8943 4.48071C22.7228 6.30919 23.75 8.78914 23.75 11.375C23.75 15.6726 21.3743 19.4029 19.1296 21.9843C17.995 23.2891 16.863 24.3359 16.0148 25.0569C15.5901 25.4179 15.2346 25.6988 14.9832 25.891C14.8575 25.9871 14.7576 26.0611 14.6879 26.112C14.653 26.1374 14.6257 26.1571 14.6065 26.1708L14.5837 26.187L14.577 26.1917L14.5748 26.1933L14.574 26.1938C14.5737 26.194 14.5735 26.1942 14 25.375ZM14 25.375L14.5735 26.1942C14.2291 26.4353 13.7709 26.4353 13.4265 26.1942L14 25.375Z" fill="#272C20"/>
</svg>
