<svg width="19" height="18" viewBox="0 0 19 18" fill="none" xmlns="http://www.w3.org/2000/svg">
<path d="M18.1251 7.08967C18.1375 7.08786 18.1498 7.08646 18.162 7.08404C18.1752 7.08144 18.188 7.07785 18.2009 7.07456C18.2117 7.07182 18.2225 7.06947 18.2332 7.06625C18.2458 7.06245 18.2579 7.05775 18.2702 7.05331C18.281 7.04942 18.2919 7.04588 18.3025 7.04147C18.3139 7.03677 18.3247 7.03127 18.3358 7.02604C18.3469 7.02077 18.3582 7.01582 18.3691 7.00997C18.3796 7.00437 18.3895 6.99801 18.3996 6.99195C18.4105 6.98546 18.4215 6.97931 18.4321 6.97222C18.4431 6.96487 18.4534 6.9567 18.464 6.9488C18.473 6.94203 18.4823 6.93573 18.4911 6.9285C18.5086 6.91417 18.5253 6.89894 18.5414 6.88311C18.5429 6.88162 18.5445 6.88038 18.5461 6.87887C18.548 6.87694 18.5496 6.87481 18.5515 6.87287C18.5668 6.85721 18.5816 6.84105 18.5956 6.82409C18.6033 6.81466 18.6101 6.80474 18.6173 6.79503C18.6247 6.78512 18.6323 6.77547 18.6392 6.76519C18.6468 6.75387 18.6534 6.74213 18.6603 6.7305C18.6659 6.72113 18.6718 6.71198 18.677 6.70235C18.6833 6.69054 18.6886 6.67841 18.6943 6.66635C18.699 6.65618 18.7041 6.64622 18.7085 6.63581C18.7133 6.62413 18.7172 6.6122 18.7214 6.60033C18.7255 6.58909 18.7298 6.57802 18.7333 6.56654C18.7369 6.55456 18.7396 6.54239 18.7426 6.53028C18.7455 6.51865 18.7488 6.50719 18.7511 6.49536C18.7539 6.48122 18.7556 6.46693 18.7576 6.45266C18.759 6.44268 18.761 6.43289 18.7619 6.42279C18.7644 6.39796 18.7657 6.37302 18.7657 6.34806V1.84855C18.7657 1.64963 18.6867 1.45887 18.546 1.31822C18.4054 1.17756 18.2146 1.09855 18.0157 1.09855C17.8168 1.09855 17.626 1.17756 17.4854 1.31822C17.3447 1.45887 17.2657 1.64963 17.2657 1.84855V4.53786L15.364 2.63622C14.1056 1.37898 12.5027 0.523054 10.7579 0.176633C9.01315 -0.169787 7.20483 0.00885192 5.56156 0.68997C3.91828 1.37109 2.51383 2.52411 1.52573 4.00327C0.537635 5.48244 0.0102539 7.22135 0.0102539 9.00019C0.0102539 10.779 0.537635 12.5179 1.52573 13.9971C2.51383 15.4763 3.91828 16.6293 5.56156 17.3104C7.20483 17.9915 9.01315 18.1702 10.7579 17.8237C12.5027 17.4773 14.1056 16.6214 15.364 15.3642C15.4338 15.2945 15.4891 15.2118 15.5268 15.1208C15.5646 15.0298 15.5841 14.9322 15.5841 14.8337C15.5841 14.7352 15.5647 14.6376 15.527 14.5465C15.4893 14.4555 15.4341 14.3728 15.3644 14.3031C15.2947 14.2334 15.212 14.1781 15.1209 14.1405C15.0299 14.1028 14.9323 14.0834 14.8338 14.0834C14.7352 14.0835 14.6377 14.1029 14.5466 14.1407C14.4556 14.1785 14.3729 14.2338 14.3033 14.3035C13.2544 15.3524 11.918 16.0667 10.4632 16.3561C9.00833 16.6455 7.50033 16.4969 6.12989 15.9293C4.75944 15.3616 3.58811 14.4003 2.764 13.167C1.93989 11.9336 1.50002 10.4835 1.50002 9.00019C1.50002 7.51683 1.93989 6.06678 2.764 4.83341C3.58811 3.60005 4.75944 2.63875 6.12989 2.07109C7.50033 1.50343 9.00833 1.3549 10.4632 1.64429C11.918 1.93367 13.2544 2.64797 14.3033 3.69686L16.205 5.59855H13.5157C13.3168 5.59855 13.126 5.67757 12.9854 5.81822C12.8447 5.95887 12.7657 6.14963 12.7657 6.34855C12.7657 6.54746 12.8447 6.73822 12.9854 6.87888C13.126 7.01953 13.3168 7.09855 13.5157 7.09855H18.0157C18.0185 7.09855 18.0212 7.09816 18.024 7.09813C18.0458 7.09789 18.0677 7.09696 18.0894 7.09482C18.1015 7.09364 18.1132 7.09142 18.1251 7.08967Z" fill="#272C20"/>
</svg>
