<svg width="28" height="28" viewBox="0 0 28 28" fill="none" xmlns="http://www.w3.org/2000/svg">
<path fill-rule="evenodd" clip-rule="evenodd" d="M12.6875 4.5C8.16567 4.5 4.5 8.16567 4.5 12.6875C4.5 17.2093 8.16567 20.875 12.6875 20.875C17.2093 20.875 20.875 17.2093 20.875 12.6875C20.875 8.16567 17.2093 4.5 12.6875 4.5ZM2.5 12.6875C2.5 7.0611 7.0611 2.5 12.6875 2.5C18.3139 2.5 22.875 7.0611 22.875 12.6875C22.875 18.3139 18.3139 22.875 12.6875 22.875C7.0611 22.875 2.5 18.3139 2.5 12.6875Z" fill="#272C20"/>
<path fill-rule="evenodd" clip-rule="evenodd" d="M18.4766 18.4773C18.8671 18.0868 19.5003 18.0868 19.8908 18.4773L25.2065 23.793C25.597 24.1835 25.597 24.8167 25.2065 25.2072C24.816 25.5977 24.1828 25.5977 23.7923 25.2072L18.4766 19.8915C18.0861 19.501 18.0861 18.8678 18.4766 18.4773Z" fill="#272C20"/>
</svg>
