<svg width="16" height="9" viewBox="0 0 16 9" fill="none" xmlns="http://www.w3.org/2000/svg">
<path d="M13.0817 5.59547C13.5859 6.0991 14.1181 6.57289 14.5703 7.12729C14.7701 7.37367 14.9592 7.62788 15.1039 7.9138C15.3089 8.32023 15.1232 8.76748 14.767 8.79175L12.5526 8.79072C11.9815 8.83919 11.5259 8.60399 11.1428 8.20448C10.8362 7.885 10.5523 7.54499 10.2575 7.21473C10.1366 7.07976 10.0101 6.95275 9.85901 6.85234C9.55673 6.65161 9.29432 6.71306 9.12157 7.0356C8.94565 7.36368 8.90572 7.72692 8.88844 8.09253C8.86472 8.62598 8.70711 8.76624 8.18333 8.79065C7.06397 8.84466 6.00163 8.67141 5.01473 8.09372C4.14466 7.58445 3.46998 6.86546 2.8827 6.05153C1.73935 4.46665 0.86372 2.72509 0.0767661 0.934746C-0.100379 0.531381 0.0291772 0.314862 0.464217 0.307178C1.1866 0.292812 1.9089 0.293845 2.63214 0.306145C2.92575 0.310549 3.12011 0.482817 3.23349 0.766578C3.62432 1.74974 4.10256 2.68512 4.70284 3.55214C4.86271 3.78296 5.02572 4.01381 5.25781 4.17627C5.51461 4.35616 5.71013 4.29654 5.83093 4.00388C5.90758 3.81831 5.94116 3.61844 5.95844 3.41972C6.01568 2.73596 6.02322 2.05336 5.92284 1.372C5.86121 0.946773 5.6271 0.671485 5.21233 0.591031C5.00069 0.549999 5.03219 0.469423 5.13467 0.345841C5.31265 0.132693 5.48005 0 5.81377 0H8.31636C8.71034 0.0795431 8.79783 0.260619 8.85177 0.66617L8.85391 3.51007C8.84961 3.66706 8.93056 4.13299 9.20698 4.23689C9.42822 4.31088 9.57404 4.1298 9.7068 3.9863C10.306 3.33571 10.7336 2.56682 11.1157 1.77066C11.2852 1.42057 11.431 1.05702 11.5723 0.693747C11.677 0.424199 11.8412 0.291567 12.138 0.297429L14.5466 0.299615C14.6181 0.299615 14.6903 0.300679 14.7595 0.312797C15.1653 0.383563 15.2766 0.562178 15.1512 0.967638C14.9537 1.60377 14.5694 2.13391 14.1936 2.66647C13.792 3.23506 13.3624 3.78421 12.964 4.35616C12.5981 4.87855 12.6271 5.14181 13.0817 5.59547Z" fill="#272C20"/>
</svg>
