<svg width="16" height="16" viewBox="0 0 16 16" fill="none" xmlns="http://www.w3.org/2000/svg">
<path d="M10.9101 0.799805H5.08983C2.7244 0.799805 0.799988 2.72422 0.799988 5.08964V10.91C0.799988 13.2754 2.7244 15.1998 5.08983 15.1998H10.9101C13.2756 15.1998 15.2 13.2754 15.2 10.91V5.08964C15.2 2.72422 13.2755 0.799805 10.9101 0.799805ZM13.7513 10.91C13.7513 12.4791 12.4793 13.7512 10.9101 13.7512H5.08983C3.52069 13.7512 2.24863 12.4791 2.24863 10.91V5.08964C2.24863 3.52048 3.52069 2.24844 5.08983 2.24844H10.9101C12.4793 2.24844 13.7513 3.52048 13.7513 5.08964V10.91Z" fill="#272C20"/>
<path d="M7.99986 4.27588C5.94625 4.27588 4.27551 5.94662 4.27551 8.0002C4.27551 10.0538 5.94625 11.7246 7.99986 11.7246C10.0535 11.7246 11.7242 10.0538 11.7242 8.0002C11.7242 5.94659 10.0535 4.27588 7.99986 4.27588ZM7.99986 10.2759C6.74301 10.2759 5.72415 9.25708 5.72415 8.00023C5.72415 6.74338 6.74304 5.72452 7.99986 5.72452C9.25672 5.72452 10.2756 6.74338 10.2756 8.00023C10.2756 9.25706 9.25669 10.2759 7.99986 10.2759Z" fill="#272C20"/>
<path d="M11.7317 5.196C12.2245 5.196 12.6241 4.79644 12.6241 4.30356C12.6241 3.81069 12.2245 3.41113 11.7317 3.41113C11.2388 3.41113 10.8392 3.81069 10.8392 4.30356C10.8392 4.79644 11.2388 5.196 11.7317 5.196Z" fill="#272C20"/>
</svg>
