<svg width="16" height="16" viewBox="0 0 16 16" fill="none" xmlns="http://www.w3.org/2000/svg">
<path fill-rule="evenodd" clip-rule="evenodd" d="M8 16C12.4183 16 16 12.4183 16 8C16 3.58172 12.4183 0 8 0C3.58172 0 0 3.58172 0 8C0 9.43479 0.377713 10.7814 1.03913 11.9457L0 16L4.17992 15.0307C5.31507 15.6488 6.61653 16 8 16ZM8 14.7692C11.7385 14.7692 14.7692 11.7385 14.7692 8C14.7692 4.26146 11.7385 1.23077 8 1.23077C4.26146 1.23077 1.23077 4.26146 1.23077 8C1.23077 9.44347 1.68257 10.7814 2.45248 11.8801L1.84615 14.1538L4.15996 13.5754C5.25106 14.3283 6.57404 14.7692 8 14.7692Z" fill="#272C20"/>
<path d="M6.00001 4.28551C5.8098 3.90347 5.51802 3.93729 5.22324 3.93729C4.69643 3.93729 3.875 4.56831 3.875 5.74269C3.875 6.70516 4.29911 7.75873 5.72824 9.33478C7.10745 10.8558 8.91965 11.6426 10.4241 11.6158C11.9286 11.589 12.2381 10.2944 12.2381 9.85719C12.2381 9.6634 12.1179 9.56671 12.035 9.54044C11.5223 9.2944 10.5768 8.83594 10.3616 8.7498C10.1465 8.66367 10.0341 8.78017 9.96429 8.84355C9.76918 9.02949 9.38243 9.57745 9.25001 9.7007C9.11758 9.82395 8.92016 9.76157 8.838 9.71498C8.53568 9.59366 7.71596 9.22904 7.06255 8.59565C6.25447 7.8123 6.20705 7.5428 6.0548 7.30289C5.933 7.11097 6.02238 6.99322 6.06698 6.94176C6.24108 6.74087 6.48149 6.43071 6.5893 6.27658C6.69711 6.12245 6.61152 5.88844 6.56017 5.74269C6.3393 5.11587 6.15218 4.59115 6.00001 4.28551Z" fill="#272C20"/>
</svg>
