<svg width="16" height="16" viewBox="0 0 16 16" fill="none" xmlns="http://www.w3.org/2000/svg">
<path fill-rule="evenodd" clip-rule="evenodd" d="M11.6628 3.15772C11.3984 3.04823 11.115 2.99191 10.8288 2.99198C10.5426 2.99204 10.2593 3.0485 9.99492 3.1581C9.73056 3.26771 9.49039 3.42833 9.28812 3.63078L8.0505 4.86841C7.82734 5.09157 7.46553 5.09157 7.24237 4.86841C7.01922 4.64525 7.01922 4.28344 7.24238 4.06029L8.47962 2.82304C8.78796 2.51447 9.15424 2.26947 9.5572 2.10239C9.96023 1.93529 10.3922 1.84922 10.8285 1.84912C11.2649 1.84902 11.6969 1.93488 12.1 2.1018C12.5031 2.26872 12.8694 2.51343 13.1779 2.82194C13.4864 3.13046 13.7312 3.49674 13.8981 3.89985C14.065 4.30297 14.1509 4.73502 14.1508 5.17132C14.1507 5.60763 14.0646 6.03964 13.8975 6.44268C13.7304 6.84571 13.4855 7.21188 13.1768 7.52025L11.4093 9.28783C11.1008 9.59625 10.7347 9.84091 10.3317 10.0078C9.92873 10.1747 9.49683 10.2607 9.06065 10.2607C8.62447 10.2607 8.19257 10.1747 7.78959 10.0078C7.38662 9.84091 7.02047 9.59625 6.71205 9.28783C6.48889 9.06467 6.48889 8.70286 6.71205 8.47971C6.9352 8.25655 7.29701 8.25655 7.52017 8.47971C7.72247 8.682 7.96263 8.84248 8.22695 8.95196C8.49126 9.06144 8.77456 9.11779 9.06065 9.11779C9.34674 9.11779 9.63004 9.06144 9.89435 8.95196C10.1587 8.84248 10.3988 8.682 10.6011 8.47971L12.3689 6.71194C12.5714 6.50967 12.7322 6.26931 12.8418 6.00496C12.9514 5.7406 13.0078 5.45724 13.0079 5.17106C13.008 4.88488 12.9516 4.60149 12.8422 4.33708C12.7327 4.07267 12.5722 3.83243 12.3698 3.63007C12.1674 3.42771 11.9272 3.2672 11.6628 3.15772Z" fill="#272C20"/>
<path fill-rule="evenodd" clip-rule="evenodd" d="M6.93934 6.88212C6.65325 6.88212 6.36996 6.93847 6.10564 7.04795C5.84133 7.15743 5.60116 7.31791 5.39886 7.5202L3.6311 9.28797C3.42864 9.49024 3.26783 9.7306 3.15823 9.99495C3.04862 10.2593 2.99217 10.5427 2.9921 10.8289C2.99203 11.115 3.04835 11.3984 3.15784 11.6628C3.26732 11.9272 3.42783 12.1675 3.63019 12.3698C3.83255 12.5722 4.0728 12.7327 4.3372 12.8422C4.60161 12.9517 4.885 13.008 5.17118 13.0079C5.45736 13.0079 5.74072 12.9514 6.00508 12.8418C6.26944 12.7322 6.50961 12.5716 6.71187 12.3691L7.9495 11.1315C8.17265 10.9083 8.53446 10.9083 8.75762 11.1315C8.98078 11.3547 8.98078 11.7165 8.75762 11.9396L7.52037 13.1769C7.52031 13.1769 7.52043 13.1768 7.52037 13.1769C7.21204 13.4854 6.84575 13.7304 6.4428 13.8975C6.03976 14.0646 5.60775 14.1507 5.17145 14.1508C4.73514 14.1509 4.30309 14.065 3.89997 13.8981C3.49686 13.7312 3.13058 13.4865 2.82207 13.178C2.51355 12.8695 2.26884 12.5032 2.10192 12.1001C1.935 11.6969 1.84914 11.2649 1.84924 10.8286C1.84934 10.3923 1.93541 9.96027 2.10252 9.55723C2.26959 9.15428 2.5144 8.78818 2.82297 8.47985L4.59074 6.71208C4.89916 6.40366 5.26532 6.159 5.66829 5.99209C6.07126 5.82517 6.50317 5.73926 6.93934 5.73926C7.37552 5.73926 7.80743 5.82517 8.2104 5.99209C8.61338 6.159 8.97953 6.40366 9.28795 6.71208C9.51111 6.93524 9.51111 7.29705 9.28795 7.5202C9.06479 7.74336 8.70299 7.74336 8.47983 7.5202C8.27753 7.31791 8.03737 7.15743 7.77305 7.04795C7.50873 6.93847 7.22544 6.88212 6.93934 6.88212Z" fill="#272C20"/>
</svg>
