<svg width="23" height="20" viewBox="0 0 23 20" fill="none" xmlns="http://www.w3.org/2000/svg">
<path fill-rule="evenodd" clip-rule="evenodd" d="M18.9902 4.66864C19.2831 4.37575 19.7579 4.37575 20.0508 4.66864C20.7473 5.36508 21.2997 6.19188 21.6766 7.10182C22.0535 8.01176 22.2475 8.98703 22.2475 9.97195C22.2475 10.9569 22.0535 11.9321 21.6766 12.8421C21.2997 13.752 20.7473 14.5788 20.0508 15.2752C19.7579 15.5681 19.2831 15.5681 18.9902 15.2752C18.6973 14.9824 18.6973 14.5075 18.9902 14.2146C19.5473 13.6574 19.9893 12.996 20.2908 12.268C20.5923 11.5401 20.7475 10.7599 20.7475 9.97195C20.7475 9.18402 20.5923 8.4038 20.2908 7.67585C19.9893 6.94789 19.5473 6.28646 18.9902 5.7293C18.6973 5.43641 18.6973 4.96154 18.9902 4.66864Z" fill="white"/>
<path fill-rule="evenodd" clip-rule="evenodd" d="M13.5795 0.298193C13.8368 0.424046 14 0.685479 14 0.97193V18.9719C14 19.2584 13.8368 19.5198 13.5795 19.6457C13.3222 19.7715 13.0157 19.7398 12.7895 19.5639L6.24267 14.4719H2C1.60218 14.4719 1.22065 14.3139 0.93934 14.0326C0.658035 13.7513 0.5 13.3698 0.5 12.9719V6.97193C0.5 6.5741 0.658035 6.19257 0.93934 5.91127C1.22064 5.62997 1.60217 5.47193 2 5.47193H6.24267L12.7895 0.379915C13.0157 0.204052 13.3222 0.172341 13.5795 0.298193ZM12.5 2.50541L6.96046 6.81394C6.82881 6.91634 6.66678 6.97193 6.5 6.97193H2V12.9719H6.5C6.66678 12.9719 6.82881 13.0275 6.96046 13.1299L12.5 17.4384V2.50541Z" fill="white"/>
<path fill-rule="evenodd" clip-rule="evenodd" d="M6.5 5.47192C6.91421 5.47192 7.25 5.80771 7.25 6.22192V13.7219C7.25 14.1361 6.91421 14.4719 6.5 14.4719C6.08579 14.4719 5.75 14.1361 5.75 13.7219V6.22192C5.75 5.80771 6.08579 5.47192 6.5 5.47192Z" fill="white"/>
<path fill-rule="evenodd" clip-rule="evenodd" d="M16.3378 7.32026C16.6307 7.02736 17.1056 7.02736 17.3985 7.32026C17.7467 7.66848 18.0229 8.08187 18.2114 8.53684C18.3998 8.99181 18.4968 9.47945 18.4968 9.97191C18.4968 10.4644 18.3998 10.952 18.2114 11.407C18.0229 11.8619 17.7467 12.2753 17.3985 12.6236C17.1056 12.9165 16.6307 12.9165 16.3378 12.6236C16.0449 12.3307 16.0449 11.8558 16.3378 11.5629C16.5468 11.354 16.7125 11.1059 16.8256 10.8329C16.9386 10.56 16.9968 10.2674 16.9968 9.97191C16.9968 9.67643 16.9386 9.38385 16.8256 9.11087C16.7125 8.83789 16.5468 8.58985 16.3378 8.38092C16.0449 8.08802 16.0449 7.61315 16.3378 7.32026Z" fill="white"/>
</svg>
