<svg width="28" height="28" viewBox="0 0 28 28" fill="none" xmlns="http://www.w3.org/2000/svg">
<path fill-rule="evenodd" clip-rule="evenodd" d="M5.25 14.2676C5.80228 14.2676 6.25 14.7153 6.25 15.2676V22.6251H21.75V15.2677C21.75 14.7155 22.1977 14.2677 22.75 14.2677C23.3023 14.2677 23.75 14.7155 23.75 15.2677V22.7501C23.75 23.2474 23.5525 23.7243 23.2008 24.0759C22.8492 24.4276 22.3723 24.6251 21.875 24.6251H6.125C5.62772 24.6251 5.15081 24.4276 4.79917 24.0759C4.44754 23.7243 4.25 23.2474 4.25 22.7501V15.2676C4.25 14.7153 4.69772 14.2676 5.25 14.2676Z" fill="white"/>
<path fill-rule="evenodd" clip-rule="evenodd" d="M6.00431 5.375L4.82574 9.5H23.1743L21.9957 5.375H6.00431ZM4.78091 3.7531C5.1062 3.50773 5.50256 3.375 5.91002 3.375H22.09C22.4975 3.375 22.8938 3.50773 23.2191 3.7531C23.5444 3.99847 23.7809 4.34312 23.8929 4.7349L25.4615 10.2253C25.5477 10.527 25.4873 10.8517 25.2984 11.1022C25.1094 11.3527 24.8138 11.5 24.5 11.5H3.50001C3.18622 11.5 2.89062 11.3527 2.70166 11.1022C2.5127 10.8517 2.45228 10.527 2.53848 10.2253L4.10717 4.7349L5.06869 5.00962L4.10717 4.7349C4.2191 4.34312 4.45561 3.99847 4.78091 3.7531Z" fill="white"/>
<path fill-rule="evenodd" clip-rule="evenodd" d="M3.5 9.5C4.05228 9.5 4.5 9.94772 4.5 10.5V12.25C4.5 12.913 4.76339 13.5489 5.23223 14.0178C5.70107 14.4866 6.33696 14.75 7 14.75C7.66304 14.75 8.29893 14.4866 8.76777 14.0178C9.23661 13.5489 9.5 12.913 9.5 12.25V10.5C9.5 9.94772 9.94772 9.5 10.5 9.5C11.0523 9.5 11.5 9.94772 11.5 10.5V12.25C11.5 13.4435 11.0259 14.5881 10.182 15.432C9.33807 16.2759 8.19347 16.75 7 16.75C5.80653 16.75 4.66193 16.2759 3.81802 15.432C2.97411 14.5881 2.5 13.4435 2.5 12.25V10.5C2.5 9.94772 2.94772 9.5 3.5 9.5Z" fill="white"/>
<path fill-rule="evenodd" clip-rule="evenodd" d="M10.5 9.5C11.0523 9.5 11.5 9.94772 11.5 10.5V12.25C11.5 12.913 11.7634 13.5489 12.2322 14.0178C12.7011 14.4866 13.337 14.75 14 14.75C14.663 14.75 15.2989 14.4866 15.7678 14.0178C16.2366 13.5489 16.5 12.913 16.5 12.25V10.5C16.5 9.94772 16.9477 9.5 17.5 9.5C18.0523 9.5 18.5 9.94772 18.5 10.5V12.25C18.5 13.4435 18.0259 14.5881 17.182 15.432C16.3381 16.2759 15.1935 16.75 14 16.75C12.8065 16.75 11.6619 16.2759 10.818 15.432C9.97411 14.5881 9.5 13.4435 9.5 12.25V10.5C9.5 9.94772 9.94772 9.5 10.5 9.5Z" fill="white"/>
<path fill-rule="evenodd" clip-rule="evenodd" d="M17.5 9.5C18.0523 9.5 18.5 9.94772 18.5 10.5V12.25C18.5 12.913 18.7634 13.5489 19.2322 14.0178C19.7011 14.4866 20.337 14.75 21 14.75C21.663 14.75 22.2989 14.4866 22.7678 14.0178C23.2366 13.5489 23.5 12.913 23.5 12.25V10.5C23.5 9.94772 23.9477 9.5 24.5 9.5C25.0523 9.5 25.5 9.94772 25.5 10.5V12.25C25.5 13.4435 25.0259 14.5881 24.182 15.432C23.3381 16.2759 22.1935 16.75 21 16.75C19.8065 16.75 18.6619 16.2759 17.818 15.432C16.9741 14.5881 16.5 13.4435 16.5 12.25V10.5C16.5 9.94772 16.9477 9.5 17.5 9.5Z" fill="white"/>
</svg>
