<svg width="24" height="24" viewBox="0 0 24 24" fill="none" xmlns="http://www.w3.org/2000/svg">
<path fill-rule="evenodd" clip-rule="evenodd" d="M12 2.5C6.75329 2.5 2.5 6.75329 2.5 12C2.5 14.3652 3.36436 16.5286 4.79444 18.1914C5.48001 17.239 6.35037 16.4281 7.35838 15.8099C7.729 15.5826 8.1144 15.3837 8.51124 15.2141C7.35679 14.2283 6.62488 12.7621 6.62488 11.125C6.62488 8.15647 9.03135 5.75 11.9999 5.75C14.9684 5.75 17.3749 8.15647 17.3749 11.125C17.3749 12.7621 16.643 14.2283 15.4885 15.2141C15.8854 15.3837 16.2707 15.5826 16.6414 15.8099C17.6494 16.4282 18.5198 17.239 19.2054 18.1915C20.6356 16.5287 21.5 14.3653 21.5 12C21.5 6.75329 17.2467 2.5 12 2.5ZM19.6992 20.5425C22.033 18.4378 23.5 15.3902 23.5 12C23.5 5.64873 18.3513 0.5 12 0.5C5.64873 0.5 0.5 5.64873 0.5 12C0.5 15.3858 1.96316 18.4298 4.29166 20.5343C4.30254 20.5445 4.31369 20.5546 4.3251 20.5644C6.36064 22.3897 9.05066 23.5 12 23.5C14.9537 23.5 17.6472 22.3865 19.6838 20.5563C19.689 20.5518 19.6941 20.5472 19.6992 20.5425ZM17.732 19.5766C17.1802 18.7446 16.4521 18.04 15.5958 17.5148C14.5137 16.8512 13.2692 16.5 11.9999 16.5C10.7306 16.5 9.48601 16.8512 8.40399 17.5148C7.54769 18.04 6.81961 18.7446 6.26789 19.5765C7.86111 20.7837 9.84691 21.5 12 21.5C14.153 21.5 16.1388 20.7838 17.732 19.5766ZM11.9999 14.5C13.8638 14.5 15.3749 12.989 15.3749 11.125C15.3749 9.26104 13.8638 7.75 11.9999 7.75C10.1359 7.75 8.62488 9.26104 8.62488 11.125C8.62488 12.989 10.1359 14.5 11.9999 14.5Z" fill="#272C20"/>
</svg>
