<svg width="28" height="28" viewBox="0 0 28 28" fill="none" xmlns="http://www.w3.org/2000/svg">
<path fill-rule="evenodd" clip-rule="evenodd" d="M14 4.5C10.6863 4.5 8 7.18629 8 10.5C8 13.8137 10.6863 16.5 14 16.5C17.3137 16.5 20 13.8137 20 10.5C20 7.18629 17.3137 4.5 14 4.5ZM6 10.5C6 6.08172 9.58172 2.5 14 2.5C18.4183 2.5 22 6.08172 22 10.5C22 14.9183 18.4183 18.5 14 18.5C9.58172 18.5 6 14.9183 6 10.5Z" fill="#272C20"/>
<path fill-rule="evenodd" clip-rule="evenodd" d="M14.0001 18.5C12.0252 18.5 10.085 19.0197 8.37444 20.0069C6.66392 20.9941 5.24331 22.4141 4.25533 24.1242C3.97905 24.6024 3.36741 24.7661 2.8892 24.4899C2.41099 24.2136 2.24729 23.6019 2.52357 23.1237C3.68712 21.1097 5.36019 19.4374 7.3747 18.2747C9.38921 17.112 11.6742 16.5 14.0002 16.5C16.3261 16.5 18.6111 17.1121 20.6256 18.2749C22.6401 19.4376 24.3131 21.1099 25.4766 23.124C25.7529 23.6022 25.5892 24.2138 25.111 24.4901C24.6327 24.7664 24.0211 24.6026 23.7448 24.1244C22.7569 22.4143 21.3363 20.9943 19.6258 20.007C17.9153 19.0198 15.9751 18.5 14.0001 18.5Z" fill="#272C20"/>
</svg>
