<svg width="32" height="32" viewBox="0 0 32 32" fill="none" xmlns="http://www.w3.org/2000/svg">
<circle cx="16" cy="16" r="16" fill="url(#paint0_linear)"/>
<path d="M18.9102 8.7998H13.0899C10.7245 8.7998 8.80005 10.7242 8.80005 13.0896V18.91C8.80005 21.2754 10.7245 23.1998 13.0899 23.1998H18.9102C21.2756 23.1998 23.2 21.2754 23.2 18.91V13.0896C23.2 10.7242 21.2756 8.7998 18.9102 8.7998ZM21.7514 18.91C21.7514 20.4791 20.4793 21.7512 18.9102 21.7512H13.0899C11.5207 21.7512 10.2487 20.4791 10.2487 18.91V13.0896C10.2487 11.5205 11.5207 10.2484 13.0899 10.2484H18.9102C20.4793 10.2484 21.7514 11.5205 21.7514 13.0896V18.91Z" fill="white"/>
<path d="M16 12.2759C13.9464 12.2759 12.2756 13.9466 12.2756 16.0002C12.2756 18.0538 13.9464 19.7246 16 19.7246C18.0536 19.7246 19.7243 18.0538 19.7243 16.0002C19.7243 13.9466 18.0536 12.2759 16 12.2759ZM16 18.2759C14.7431 18.2759 13.7243 17.2571 13.7243 16.0002C13.7243 14.7434 14.7432 13.7245 16 13.7245C17.2568 13.7245 18.2757 14.7434 18.2757 16.0002C18.2757 17.2571 17.2568 18.2759 16 18.2759Z" fill="white"/>
<path d="M19.7318 13.196C20.2247 13.196 20.6242 12.7964 20.6242 12.3036C20.6242 11.8107 20.2247 11.4111 19.7318 11.4111C19.2389 11.4111 18.8394 11.8107 18.8394 12.3036C18.8394 12.7964 19.2389 13.196 19.7318 13.196Z" fill="white"/>
<defs>
<linearGradient id="paint0_linear" x1="16" y1="31.9069" x2="16" y2="0.248549" gradientUnits="userSpaceOnUse">
<stop stop-color="#E09B3D"/>
<stop offset="0.3" stop-color="#C74C4D"/>
<stop offset="0.6" stop-color="#C21975"/>
<stop offset="1" stop-color="#7024C4"/>
</linearGradient>
</defs>
</svg>
