<svg width="28" height="28" viewBox="0 0 28 28" fill="none" xmlns="http://www.w3.org/2000/svg">
<path d="M4.8125 8.75C5.53737 8.75 6.125 8.16237 6.125 7.4375C6.125 6.71263 5.53737 6.125 4.8125 6.125C4.08763 6.125 3.5 6.71263 3.5 7.4375C3.5 8.16237 4.08763 8.75 4.8125 8.75Z" fill="#272C20"/>
<path d="M4.8125 15.3125C5.53737 15.3125 6.125 14.7249 6.125 14C6.125 13.2751 5.53737 12.6875 4.8125 12.6875C4.08763 12.6875 3.5 13.2751 3.5 14C3.5 14.7249 4.08763 15.3125 4.8125 15.3125Z" fill="#272C20"/>
<path d="M4.8125 21.8757C5.53737 21.8757 6.125 21.2881 6.125 20.5632C6.125 19.8384 5.53737 19.2507 4.8125 19.2507C4.08763 19.2507 3.5 19.8384 3.5 20.5632C3.5 21.2881 4.08763 21.8757 4.8125 21.8757Z" fill="#272C20"/>
<path d="M9.625 7.4375H23.625" stroke="#272C20" stroke-width="2" stroke-linecap="round" stroke-linejoin="round"/>
<path d="M9.62598 14H23.6253" stroke="#272C20" stroke-width="2" stroke-linecap="round" stroke-linejoin="round"/>
<path d="M9.62598 20.5625H23.6253" stroke="#272C20" stroke-width="2" stroke-linecap="round" stroke-linejoin="round"/>
</svg>
