<svg width="96" height="20" viewBox="0 0 96 20" fill="none" xmlns="http://www.w3.org/2000/svg">
<path d="M18.4888 4.28564H11.3777V15.7142H18.4888V4.28564Z" fill="#FF5F00"/>
<path d="M11.544 10C11.544 7.71829 12.5997 5.69448 14.2223 4.38496C13.0297 3.43258 11.5244 2.85718 9.88229 2.85718C5.99194 2.85718 2.84448 6.05162 2.84448 10C2.84448 13.9484 5.99194 17.1429 9.88229 17.1429C11.5244 17.1429 13.0297 16.5675 14.2223 15.6151C12.5997 14.3254 11.544 12.2818 11.544 10Z" fill="#EB001B"/>
<path d="M25.5999 10C25.5999 13.9484 22.4525 17.1429 18.5621 17.1429C16.92 17.1429 15.4147 16.5675 14.2222 15.6151C15.8643 14.3056 16.9004 12.2818 16.9004 10C16.9004 7.71829 15.8448 5.69448 14.2222 4.38496C15.4147 3.43258 16.92 2.85718 18.5621 2.85718C22.4525 2.85718 25.5999 6.07146 25.5999 10Z" fill="#F79E1B"/>
<path d="M37.6381 13.4663V10.315C37.6381 9.10704 36.927 8.31921 35.708 8.31921C35.0984 8.31921 34.4381 8.5293 33.981 9.21208C33.6254 8.63435 33.1175 8.31921 32.3556 8.31921C31.8476 8.31921 31.3397 8.47679 30.9334 9.05452V8.42426H29.8667V13.4663H30.9334V10.6827C30.9334 9.7898 31.3905 9.36964 32.1016 9.36964C32.8127 9.36964 33.1683 9.84233 33.1683 10.6827V13.4663H34.235V10.6827C34.235 9.7898 34.7429 9.36964 35.4032 9.36964C36.1143 9.36964 36.4699 9.84233 36.4699 10.6827V13.4663H37.6381ZM53.4349 8.42426H51.708V6.90115H50.6413V8.42426H49.6762V9.42216H50.6413V11.7331C50.6413 12.8885 51.0984 13.5713 52.3175 13.5713C52.7746 13.5713 53.2826 13.4138 53.6381 13.2037L53.3334 12.2583C53.0286 12.4684 52.673 12.5209 52.4191 12.5209C51.9111 12.5209 51.708 12.2058 51.708 11.6806V9.42216H53.4349V8.42426ZM62.4762 8.31921C61.8667 8.31921 61.4603 8.63435 61.2064 9.05452V8.42426H60.1397V13.4663H61.2064V10.6302C61.2064 9.78982 61.5619 9.31713 62.2222 9.31713C62.4254 9.31713 62.6794 9.36964 62.8826 9.42216L63.1873 8.37174C62.9842 8.31922 62.6794 8.31921 62.4762 8.31921ZM48.8127 8.84442C48.3048 8.47678 47.5937 8.31921 46.8318 8.31921C45.6127 8.31921 44.8 8.94947 44.8 9.94737C44.8 10.7877 45.4095 11.2604 46.4762 11.418L46.9841 11.4705C47.5429 11.5755 47.8476 11.7331 47.8476 11.9957C47.8476 12.3633 47.4413 12.626 46.7302 12.626C46.0191 12.626 45.4603 12.3633 45.1048 12.1007L44.5969 12.9411C45.1556 13.3612 45.9175 13.5713 46.6794 13.5713C48.1016 13.5713 48.9143 12.8886 48.9143 11.9432C48.9143 11.0503 48.254 10.5776 47.2381 10.4201L46.7302 10.3675C46.273 10.315 45.9175 10.21 45.9175 9.89485C45.9175 9.5272 46.273 9.31713 46.8318 9.31713C47.4413 9.31713 48.0508 9.57973 48.3556 9.73729L48.8127 8.84442ZM77.1556 8.31921C76.5461 8.31921 76.1397 8.63435 75.8857 9.05452V8.42426H74.8191V13.4663H75.8857V10.6302C75.8857 9.78982 76.2413 9.31713 76.9016 9.31713C77.1048 9.31713 77.3588 9.36964 77.5619 9.42216L77.8667 8.37174C77.6635 8.31922 77.3588 8.31921 77.1556 8.31921ZM63.5429 10.9453C63.5429 12.4684 64.5588 13.5713 66.1334 13.5713C66.8445 13.5713 67.3524 13.4138 67.8603 12.9936L67.3524 12.1007C66.9461 12.4159 66.5397 12.5734 66.0826 12.5734C65.2191 12.5734 64.6096 11.9432 64.6096 10.9453C64.6096 9.99989 65.2191 9.36965 66.0826 9.31713C66.5397 9.31713 66.9461 9.47469 67.3524 9.78981L67.8603 8.89695C67.3524 8.47678 66.8445 8.31921 66.1334 8.31921C64.5588 8.31921 63.5429 9.42216 63.5429 10.9453ZM73.3968 10.9453V8.42426H72.3302V9.05452C71.9746 8.58183 71.4667 8.31921 70.8064 8.31921C69.435 8.31921 68.3683 9.42216 68.3683 10.9453C68.3683 12.4684 69.435 13.5713 70.8064 13.5713C71.5175 13.5713 72.0254 13.3087 72.3302 12.836V13.4663H73.3968V10.9453ZM69.4857 10.9453C69.4857 10.0524 70.0445 9.31713 70.9588 9.31713C71.8223 9.31713 72.4318 9.99989 72.4318 10.9453C72.4318 11.8381 71.8223 12.5734 70.9588 12.5734C70.0445 12.5209 69.4857 11.8381 69.4857 10.9453ZM56.7365 8.31921C55.3143 8.31921 54.2984 9.36964 54.2984 10.9453C54.2984 12.5209 55.3143 13.5713 56.7873 13.5713C57.4984 13.5713 58.2096 13.3612 58.7683 12.8886L58.2603 12.1007C57.854 12.4159 57.3461 12.626 56.8381 12.626C56.1778 12.626 55.5175 12.3108 55.3651 11.418H58.9715V10.9978C59.0222 9.36964 58.108 8.31921 56.7365 8.31921ZM56.7365 9.2646C57.3969 9.2646 57.854 9.68477 57.9556 10.4726H55.4159C55.5175 9.78981 55.9746 9.2646 56.7365 9.2646ZM83.2 10.9453V6.42847H82.1334V9.05452C81.7778 8.58183 81.2699 8.31921 80.6096 8.31921C79.2381 8.31921 78.1715 9.42216 78.1715 10.9453C78.1715 12.4684 79.2381 13.5713 80.6096 13.5713C81.3207 13.5713 81.8286 13.3087 82.1334 12.836V13.4663H83.2V10.9453ZM79.2889 10.9453C79.2889 10.0524 79.8476 9.31713 80.7619 9.31713C81.6254 9.31713 82.235 9.99989 82.235 10.9453C82.235 11.8381 81.6254 12.5734 80.7619 12.5734C79.8476 12.5209 79.2889 11.8381 79.2889 10.9453ZM43.6318 10.9453V8.42426H42.5651V9.05452C42.2096 8.58183 41.7016 8.31921 41.0413 8.31921C39.6699 8.31921 38.6032 9.42216 38.6032 10.9453C38.6032 12.4684 39.6699 13.5713 41.0413 13.5713C41.7524 13.5713 42.2603 13.3087 42.5651 12.836V13.4663H43.6318V10.9453ZM39.6699 10.9453C39.6699 10.0524 40.2286 9.31713 41.1429 9.31713C42.0064 9.31713 42.6159 9.99989 42.6159 10.9453C42.6159 11.8381 42.0064 12.5734 41.1429 12.5734C40.2286 12.5209 39.6699 11.8381 39.6699 10.9453Z" fill="black"/>
</svg>
