<svg width="54" height="32" viewBox="0 0 54 32" fill="none" xmlns="http://www.w3.org/2000/svg">
<rect x="0.666626" width="53.3333" height="32" fill="black"/>
<path d="M20.8991 21.7977C26.1819 21.7977 30.4645 17.5151 30.4645 12.2322C30.4645 6.94935 26.1819 2.66675 20.8991 2.66675C15.6162 2.66675 11.3336 6.94935 11.3336 12.2322C11.3336 17.5151 15.6162 21.7977 20.8991 21.7977Z" fill="#EE0005"/>
<path d="M32.7851 21.7979C38.0679 21.7979 42.3505 17.5153 42.3505 12.2325C42.3505 6.9496 38.0679 2.66699 32.7851 2.66699C27.5022 2.66699 23.2196 6.9496 23.2196 12.2325C23.2196 17.5153 27.5022 21.7979 32.7851 21.7979Z" fill="#F9A000"/>
<path d="M23.2196 12.2323C23.2196 15.2695 24.6355 17.9759 26.8429 19.728C29.0503 17.9758 30.4662 15.2695 30.4662 12.2323C30.4662 9.19507 29.0503 6.48874 26.8429 4.73657C24.6355 6.48889 23.2196 9.19514 23.2196 12.2323Z" fill="#FF6300"/>
<path d="M15.1081 24.6682C14.7119 24.6682 14.3158 24.8863 14.0772 25.3507C13.9197 24.9477 13.5917 24.6682 13.1819 24.6682C12.7245 24.6682 12.4238 24.9204 12.2738 25.1871V24.9409C12.2738 24.8046 12.1238 24.7092 11.9527 24.7092C11.7414 24.7092 11.5974 24.8046 11.5974 24.9409V27.7078C11.5974 28.055 12.3147 28.055 12.3147 27.7078V26.0134C12.3147 25.5492 12.629 25.303 12.9502 25.303C13.2849 25.303 13.5849 25.5832 13.5849 26.0066V27.7146C13.5849 27.8782 13.7765 27.9463 13.9401 27.9463C14.125 27.9463 14.3022 27.8782 14.3022 27.7146V25.9998C14.3022 25.556 14.6233 25.2962 14.9445 25.2962C15.2588 25.2962 15.58 25.5423 15.58 26.0134V27.7078C15.58 27.8237 15.7504 27.9463 15.9353 27.9463C16.133 27.9463 16.2966 27.8236 16.2966 27.7078V26.0134C16.2964 25.1529 15.723 24.6682 15.1081 24.6682Z" fill="white"/>
<path d="M18.0508 24.6682C17.5865 24.6682 17.0192 24.8591 17.0192 25.1052C17.0192 25.2688 17.1086 25.4673 17.279 25.4673C17.4153 25.4673 17.5388 25.262 18.0371 25.262C18.5355 25.262 18.7135 25.6514 18.7135 25.9997V26.1225H18.4128C17.4638 26.1225 16.8147 26.3277 16.8147 27.0995C16.8147 27.7146 17.2245 28.0008 17.7228 28.0008C18.1871 28.0008 18.5151 27.7486 18.7545 27.4683V27.7077C18.7545 27.8372 18.8976 27.9462 19.0824 27.9462C19.2801 27.9462 19.4308 27.8372 19.4308 27.7077V25.9929C19.4308 25.3097 19.0551 24.6682 18.0508 24.6682ZM18.7136 26.7716C18.7136 27.0995 18.3242 27.4548 17.9827 27.4548C17.7297 27.4548 17.5388 27.3184 17.5388 27.0109C17.5388 26.5739 18.0236 26.5186 18.5424 26.5186H18.7136V26.7716Z" fill="white"/>
<path d="M20.6875 25.6173C20.6875 25.4469 20.8375 25.2211 21.2405 25.2211C21.6237 25.2211 21.835 25.4196 21.9782 25.4196C22.1493 25.4196 22.2516 25.1735 22.2516 25.0712C22.2516 24.8523 21.7395 24.6682 21.2268 24.6682C20.3664 24.6682 20.0589 25.1803 20.0589 25.6514C20.0589 26.7852 21.7055 26.3618 21.7055 27.0791C21.7055 27.2631 21.5753 27.448 21.1246 27.448C20.5376 27.448 20.3937 27.1337 20.2165 27.1337C20.0726 27.1337 19.9703 27.3321 19.9703 27.4548C19.9703 27.7146 20.4695 28.0009 21.1451 28.0009C21.9169 28.0009 22.3471 27.632 22.3471 27.0518C22.3471 25.8226 20.6875 26.2187 20.6875 25.6173Z" fill="white"/>
<path d="M24.349 27.332H24.1097C23.7544 27.332 23.6318 27.2085 23.6318 26.8805V25.2415H24.4649C24.5877 25.2415 24.6634 25.112 24.6634 24.9749C24.6634 24.8386 24.5877 24.709 24.4649 24.709H23.6318V23.4585C23.6318 23.3222 23.4469 23.2268 23.2697 23.2268C23.0985 23.2268 22.9144 23.3223 22.9144 23.4585V26.8805C22.9144 27.6251 23.331 27.9463 24.1096 27.9463H24.349C24.5534 27.9463 24.6557 27.7963 24.6557 27.6388C24.6558 27.482 24.5535 27.332 24.349 27.332Z" fill="white"/>
<path d="M27.4837 27.1608C27.2989 27.1608 27.1353 27.4206 26.6505 27.4206C26.1241 27.4206 25.7621 27.1336 25.7621 26.6761V26.5186H27.2034C27.5109 26.5186 27.8253 26.4982 27.8253 25.9316C27.8253 25.1871 27.1966 24.6682 26.4657 24.6682C25.6802 24.6682 25.0448 25.2757 25.0448 25.9929V26.642C25.0448 27.4548 25.7007 28.0008 26.6301 28.0008C27.3194 28.0008 27.764 27.6865 27.764 27.482C27.764 27.3593 27.6541 27.1608 27.4837 27.1608ZM25.7621 25.8566C25.7621 25.4809 26.0832 25.2143 26.4589 25.2143C26.8482 25.2143 27.1489 25.5081 27.1489 25.8702C27.1489 26.0338 27.0944 26.0747 26.8959 26.0747H25.7621V25.8566Z" fill="white"/>
<path d="M30.1692 24.6682H29.9502C29.5473 24.6682 29.2269 24.9545 29.083 25.2416V24.9409C29.083 24.8046 28.933 24.7092 28.7551 24.7092C28.5506 24.7092 28.4066 24.8046 28.4066 24.9409V27.7078C28.4066 27.8237 28.5505 27.9463 28.7551 27.9463C28.9604 27.9463 29.124 27.8236 29.124 27.7078V26.3073C29.124 25.6854 29.5337 25.303 29.9503 25.303H30.1692C30.3124 25.303 30.4427 25.1598 30.4427 24.9819C30.4426 24.8114 30.3123 24.6682 30.1692 24.6682Z" fill="white"/>
<path d="M32.9489 27.1404C32.7921 27.1404 32.683 27.3661 32.2316 27.3661C31.7059 27.3661 31.4735 27.0927 31.4735 26.642V26.027C31.4735 25.5763 31.7128 25.3029 32.2248 25.3029C32.6626 25.3029 32.7853 25.515 32.9284 25.515C33.0996 25.515 33.2155 25.3029 33.2155 25.1666C33.2155 24.9272 32.7921 24.6682 32.1702 24.6682C31.1939 24.6682 30.7568 25.262 30.7568 26.027V26.642C30.7568 27.4207 31.1939 28.0008 32.177 28.0008C32.8057 28.0008 33.2564 27.7213 33.2564 27.482C33.2564 27.3389 33.1405 27.1404 32.9489 27.1404Z" fill="white"/>
<path d="M34.8078 24.6682C34.3435 24.6682 33.7761 24.8591 33.7761 25.1052C33.7761 25.2688 33.8655 25.4673 34.0359 25.4673C34.173 25.4673 34.2957 25.262 34.7941 25.262C35.2924 25.262 35.4705 25.6514 35.4705 25.9997V26.1225H35.1698C34.2207 26.1225 33.5717 26.3277 33.5717 27.0995C33.5717 27.7146 33.9814 28.0008 34.4798 28.0008C34.9449 28.0008 35.2721 27.7486 35.5114 27.4683V27.7077C35.5114 27.8372 35.6546 27.9462 35.8394 27.9462C36.037 27.9462 36.1878 27.8372 36.1878 27.7077V25.9929C36.1878 25.3097 35.8121 24.6682 34.8078 24.6682ZM35.4705 26.7716C35.4705 27.0995 35.0812 27.4548 34.7396 27.4548C34.4867 27.4548 34.2958 27.3184 34.2958 27.0109C34.2958 26.5739 34.7805 26.5186 35.2994 26.5186H35.4705V26.7716Z" fill="white"/>
<path d="M38.6787 24.6682H38.4606C38.0577 24.6682 37.7365 24.9545 37.5934 25.2416V24.9409C37.5934 24.8046 37.4427 24.7092 37.2654 24.7092C37.0602 24.7092 36.917 24.8046 36.917 24.9409V27.7078C36.917 27.8237 37.0602 27.9463 37.2654 27.9463C37.4699 27.9463 37.6343 27.8236 37.6343 27.7078V26.3073C37.6343 25.6854 38.0441 25.303 38.4607 25.303H38.6788C38.8227 25.303 38.9522 25.1598 38.9522 24.9819C38.9522 24.8114 38.8227 24.6682 38.6787 24.6682Z" fill="white"/>
<path d="M41.7258 22.7827C41.5213 22.7827 41.3637 22.8782 41.3637 23.0145V25.1868C41.2138 24.9202 40.9063 24.6679 40.476 24.6679C39.8065 24.6679 39.2535 25.2753 39.2535 26.0131V26.6417C39.2535 27.3522 39.8288 28.0005 40.507 28.0005C41.1852 28.0005 41.3638 27.7169 41.3638 27.7169C41.3638 27.7169 41.3637 28.0005 41.6791 28.0005C41.8426 28.0005 42.0178 27.9366 42.0178 27.7169L42.0811 23.0145C42.0811 22.8782 41.9311 22.7827 41.7258 22.7827ZM41.3638 26.7986C41.3638 26.9629 41.057 27.3659 40.6602 27.3659C40.2845 27.3659 39.9709 27.0106 39.9709 26.6418V26.0131C39.9709 25.6579 40.2845 25.3027 40.6677 25.3027C41.0085 25.3027 41.3638 25.5693 41.3638 26.0131V26.7986Z" fill="white"/>
</svg>
