<svg width="60" height="60" viewBox="0 0 60 60" fill="none" xmlns="http://www.w3.org/2000/svg">
<path d="M14.9604 20.8569C14.8282 20.8569 14.7225 20.9141 14.6432 20.9998C12.8458 23.0855 12.0793 25.3141 12.3436 27.6569C12.4758 28.8569 12.8987 30.0855 13.5595 31.3427L11.5507 29.5426C10.0705 23.5712 6.63438 20.7141 1.37447 21.0284C1.24231 21.0569 1.11015 21.1141 1.03085 21.2284C0.95156 21.3426 0.925131 21.5141 0.951563 21.6569C2.16742 26.9141 5.47139 29.7426 11.1013 30.2855L13.1102 32.0855C11.7886 31.5998 10.5727 31.3998 9.43614 31.4855C7.24231 31.6569 5.36566 32.9141 3.83262 35.2284C3.75332 35.3426 3.75332 35.4855 3.77976 35.5998C3.80619 35.7141 3.88548 35.8284 4.01764 35.8855C5.47139 36.6284 6.92513 36.9426 8.29958 36.8284C10.4405 36.6569 12.4494 35.5141 14.4053 33.2855L14.4317 33.2569L17.0485 35.5998C17.1278 35.6855 17.2335 35.7141 17.3392 35.6855C17.445 35.6855 17.5507 35.6284 17.63 35.5141C17.7621 35.3141 17.7621 35.0569 17.5771 34.8855L14.9604 32.5426C14.9604 32.5426 14.9604 32.5426 14.9868 32.5141C16.5991 29.9998 17.2599 27.6569 16.9956 25.3427C16.837 23.8569 16.2555 22.3998 15.304 20.9998C15.1983 20.9141 15.0661 20.8569 14.9604 20.8569Z" fill="#220D0D"/>
<path d="M57.8854 10.5427H16.0176V50.2856H57.8854V10.5427Z" fill="#220D0D"/>
<path d="M54.6871 32.1427H19.2422C19.1364 32.1427 19.0571 32.0569 19.0571 31.9427C19.0571 31.8284 19.1364 31.7427 19.2422 31.7427H54.6871C54.7928 31.7427 54.8721 31.8284 54.8721 31.9427C54.8721 32.0569 54.7928 32.1427 54.6871 32.1427Z" fill="white"/>
<path d="M22.4673 37.0285V37.5142L23.0488 36.9999V39.6285H23.4453V36.5142H23.0488L22.4673 37.0285Z" fill="white"/>
<path d="M26.1676 37.3715C26.1676 36.8287 25.7975 36.4858 25.3482 36.4858C24.8989 36.4858 24.5288 36.8287 24.5288 37.3715V38.743C24.5288 39.2858 24.8989 39.6287 25.3482 39.6287C25.7975 39.6287 26.1676 39.2858 26.1676 38.743V37.3715ZM25.7711 38.743C25.7711 39.0573 25.6125 39.2573 25.3482 39.2573C25.0839 39.2573 24.9253 39.0573 24.9253 38.743V37.4001C24.9253 37.0858 25.0839 36.8858 25.3482 36.8858C25.6125 36.8858 25.7711 37.0858 25.7711 37.4001V38.743Z" fill="white"/>
<path d="M27.5948 36.4858C27.1454 36.4858 26.7754 36.8287 26.7754 37.3715V38.743C26.7754 39.2858 27.1454 39.6287 27.5948 39.6287C28.0441 39.6287 28.4142 39.2858 28.4142 38.743V37.3715C28.4142 36.8287 28.0441 36.4858 27.5948 36.4858ZM28.0177 38.743C28.0177 39.0573 27.8591 39.2573 27.5948 39.2573C27.3305 39.2573 27.1719 39.0573 27.1719 38.743V37.4001C27.1719 37.0858 27.3305 36.8858 27.5948 36.8858C27.8591 36.8858 28.0177 37.0858 28.0177 37.4001V38.743Z" fill="white"/>
<path d="M30.1321 37.0858C30.1321 36.7144 29.8942 36.4858 29.577 36.4858C29.2599 36.4858 29.022 36.7144 29.022 37.0858V37.5144C29.022 37.8858 29.2599 38.1144 29.577 38.1144C29.8942 38.1144 30.1321 37.8858 30.1321 37.5144V37.0858ZM29.8149 37.5144C29.8149 37.7144 29.7356 37.8287 29.5506 37.8287C29.3656 37.8287 29.2863 37.7144 29.2863 37.5144V37.0858C29.2863 36.8858 29.3656 36.7716 29.5506 36.7716C29.7356 36.7716 29.8149 36.8858 29.8149 37.0858V37.5144Z" fill="white"/>
<path d="M31.9295 39.0571V38.6286C31.9295 38.2571 31.6916 38.0286 31.3744 38.0286C31.0572 38.0286 30.8193 38.2571 30.8193 38.6286V39.0571C30.8193 39.4286 31.0572 39.6571 31.3744 39.6571C31.6916 39.6571 31.9295 39.4286 31.9295 39.0571ZM31.1101 39.0286V38.6C31.1101 38.4 31.1894 38.2857 31.3744 38.2857C31.5594 38.2857 31.6387 38.4 31.6387 38.6V39.0286C31.6387 39.2286 31.5594 39.3428 31.3744 39.3428C31.1894 39.3428 31.1101 39.2286 31.1101 39.0286Z" fill="white"/>
<path d="M31.3215 36.5142H30.9779L29.6299 39.6285H29.9471L31.3215 36.5142Z" fill="white"/>
<path d="M34.15 37.4285L35.4716 39.6285H35.8681V36.5142H35.4452V38.6856L34.1236 36.5142H33.7007V39.6285H34.15V37.4285Z" fill="white"/>
<path d="M38.3789 39.6285H38.8546L37.7974 36.5142H37.4538L36.3965 39.6285H36.8723L37.0573 38.9999H38.1938L38.3789 39.6285ZM37.163 38.5999L37.6123 37.2284L38.0352 38.5999H37.163Z" fill="white"/>
<path d="M40.3086 39.6285V36.9427H41.1016V36.5142H39.0928V36.9427H39.8857V39.6285H40.3086Z" fill="white"/>
<path d="M43.7179 38.5713V36.5142H43.295V38.5427C43.295 38.9427 43.0571 39.1999 42.6871 39.1999C42.317 39.1999 42.1056 38.9427 42.1056 38.5427V36.5142H41.6562V38.5713C41.6562 39.1999 42.1056 39.657 42.6871 39.657C43.2686 39.6284 43.7179 39.1999 43.7179 38.5713Z" fill="white"/>
<path d="M46.6257 39.6285L45.9649 38.257C46.2821 38.1713 46.5464 37.8856 46.5464 37.4285C46.5464 36.9142 46.2028 36.5142 45.6477 36.5142H44.5376V39.6285H44.9869V38.3142H45.542L46.1499 39.6285H46.6257ZM44.9605 37.9142V36.9427H45.5949C45.8856 36.9427 46.0706 37.1142 46.0706 37.4285C46.0706 37.7427 45.8592 37.9142 45.5949 37.9142H44.9605Z" fill="white"/>
<path d="M48.0001 36.5142L46.9429 39.6285H47.4186L47.6037 38.9999H48.7402L48.9252 39.6285H49.401L48.3438 36.5142H48.0001ZM47.7358 38.5999L48.1852 37.2284L48.6345 38.5999H47.7358Z" fill="white"/>
<path d="M50.3262 36.5142H49.9033V39.6285H51.7271V39.1999H50.3262V36.5142Z" fill="white"/>
<path d="M27.0397 42.1998C27.3569 42.1998 27.5419 42.4284 27.6212 42.7427H28.0705C27.9648 42.1141 27.5683 41.7998 27.0397 41.7998C26.7489 41.7998 26.4846 41.9141 26.2732 42.1427C25.9824 42.457 25.9824 42.7998 25.9824 43.3998C25.9824 43.9998 25.9824 44.3427 26.2732 44.6569C26.4582 44.8569 26.7225 44.9998 27.0397 44.9998C27.5683 44.9998 27.9648 44.657 28.0705 44.057H27.6212C27.5419 44.3712 27.3569 44.5998 27.0397 44.5998C26.8811 44.5998 26.7225 44.5427 26.6168 44.3998C26.4846 44.2284 26.4318 44.057 26.4318 43.4284C26.4318 42.7998 26.4582 42.6284 26.6168 42.457C26.6961 42.2855 26.8547 42.1998 27.0397 42.1998Z" fill="white"/>
<path d="M29.6564 41.7715C29.3392 41.7715 29.1013 41.8858 28.8899 42.1143C28.5991 42.4286 28.5991 42.7715 28.5991 43.3715C28.5991 43.9715 28.5991 44.3143 28.8899 44.6286C29.1013 44.8286 29.3392 44.9715 29.6564 44.9715C29.9736 44.9715 30.2115 44.8572 30.4229 44.6286C30.7137 44.3143 30.6872 43.9715 30.6872 43.3715C30.6872 42.7715 30.6872 42.4286 30.4229 42.1143C30.2379 41.9143 29.9736 41.7715 29.6564 41.7715ZM30.1057 44.3143C30 44.4286 29.8414 44.5143 29.6828 44.5143C29.5242 44.5143 29.3656 44.4286 29.2599 44.3143C29.1278 44.1429 29.1013 43.9715 29.1013 43.3429C29.1013 42.7143 29.1278 42.5429 29.2599 42.3715C29.3656 42.2572 29.5242 42.1715 29.6828 42.1715C29.8414 42.1715 30 42.2572 30.1057 42.3715C30.2379 42.5429 30.2643 42.7143 30.2643 43.3429C30.2643 43.9715 30.2379 44.1715 30.1057 44.3143Z" fill="white"/>
<path d="M32.4581 43.1712L32.1409 43.1141C32.0087 43.0855 31.903 43.0284 31.8237 42.9712C31.7444 42.8855 31.718 42.7998 31.718 42.6855C31.718 42.3998 31.903 42.1998 32.2466 42.1998C32.4845 42.1998 32.6959 42.257 32.881 42.4284L33.1717 42.1427C32.9338 41.8855 32.6695 41.7998 32.273 41.7998C31.6651 41.7998 31.3215 42.1712 31.3215 42.7141C31.3215 42.9712 31.4008 43.1712 31.5329 43.3141C31.6651 43.4284 31.8501 43.5141 32.088 43.5712L32.4316 43.6284C32.5902 43.657 32.6695 43.6855 32.7488 43.7712C32.8281 43.857 32.8545 43.9712 32.8545 44.0855C32.8545 44.3998 32.6431 44.5712 32.273 44.5712C31.9823 44.5712 31.7444 44.5141 31.5329 44.2855L31.2422 44.5998C31.5065 44.9141 31.8237 44.9998 32.2466 44.9998C32.8545 44.9998 33.2774 44.6569 33.2774 44.0855C33.2774 43.8284 33.1981 43.5998 33.0396 43.457C32.881 43.2855 32.7488 43.1998 32.4581 43.1712Z" fill="white"/>
<path d="M35.2072 43.7427L34.3614 41.7998H33.9385V44.9141H34.3614V42.8284L35.0486 44.3427H35.3658L36.0266 42.8284V44.9141H36.4495V41.7998H36.0266L35.2072 43.7427Z" fill="white"/>
<path d="M37.2954 44.9141H39.1456V44.4855H37.7447V43.5712H38.9342V43.1427H37.7447V42.2284H39.1456V41.7998H37.2954V44.9141Z" fill="white"/>
<path d="M39.5947 42.2284H40.3877V44.9141H40.8106V42.2284H41.6035V41.7998H39.5947V42.2284Z" fill="white"/>
<path d="M42.6343 41.7998H42.2114V44.9141H42.6343V41.7998Z" fill="white"/>
<path d="M44.4054 42.1998C44.7226 42.1998 44.9076 42.4284 44.9869 42.7427H45.4363C45.3305 42.1141 44.9341 41.7998 44.4054 41.7998C44.1147 41.7998 43.8503 41.9141 43.6389 42.1427C43.3481 42.457 43.3481 42.7998 43.3481 43.3998C43.3481 43.9998 43.3481 44.3427 43.6389 44.6569C43.8239 44.8569 44.0882 44.9998 44.4054 44.9998C44.9341 44.9998 45.3305 44.657 45.4363 44.057H44.9869C44.9076 44.3712 44.7226 44.5998 44.4054 44.5998C44.2468 44.5998 44.0882 44.5427 43.9825 44.3998C43.8503 44.2284 43.7975 44.057 43.7975 43.4284C43.7975 42.7998 43.8239 42.6284 43.9825 42.457C44.0882 42.2855 44.2468 42.1998 44.4054 42.1998Z" fill="white"/>
<path d="M47.1543 43.1712L46.8372 43.1141C46.705 43.0855 46.5993 43.0284 46.52 42.9712C46.4407 42.8855 46.4142 42.7998 46.4142 42.6855C46.4142 42.3998 46.5993 42.1998 46.9429 42.1998C47.1808 42.1998 47.3922 42.257 47.5773 42.4284L47.868 42.1427C47.6301 41.8855 47.3658 41.7998 46.9693 41.7998C46.3614 41.7998 46.0178 42.1712 46.0178 42.7141C46.0178 42.9712 46.0971 43.1712 46.2292 43.3141C46.3614 43.4284 46.5464 43.5141 46.7843 43.5712L47.1279 43.6284C47.2865 43.657 47.3658 43.6855 47.4451 43.7712C47.5244 43.857 47.5508 43.9712 47.5508 44.0855C47.5508 44.3998 47.3394 44.5712 46.9693 44.5712C46.6786 44.5712 46.4407 44.5141 46.2292 44.2855L45.9385 44.5998C46.2028 44.9141 46.52 44.9998 46.9693 44.9998C47.5773 44.9998 48.0002 44.6569 48.0002 44.0855C48.0002 43.8284 47.9209 43.5998 47.7623 43.457C47.5773 43.2855 47.4187 43.1998 47.1543 43.1712Z" fill="white"/>
<path d="M26.0353 27.0571V26.9714C26.0353 26.8285 25.9296 26.7143 25.7974 26.7143H25.6124C25.163 26.7143 25.0309 26.6571 24.978 26.6285V24.1428C24.978 22.4 26.0353 20.8571 27.2247 20.8571C28.097 20.8571 28.5199 21.3142 28.5199 22.2285V26.6C28.467 26.6285 28.3349 26.6857 27.8855 26.6857H27.7005C27.5683 26.6857 27.4626 26.8 27.4626 26.9428V27.0285C27.4626 27.1714 27.5683 27.2857 27.7005 27.2857H30.0001C30.1322 27.2857 30.2379 27.1714 30.2379 27.0285V26.9428C30.2379 26.8 30.1322 26.6857 30.0001 26.6857H29.7622C29.3128 26.6857 29.1807 26.6285 29.1278 26.6V22.2C29.1278 20.9143 28.4142 20.1714 27.1983 20.1714C26.2996 20.1714 25.4802 20.7714 24.9252 21.7714C24.793 20.7428 24.0793 20.1714 22.9956 20.1714C22.1234 20.1714 21.304 20.7428 20.749 21.7143V20.4285C20.749 20.3428 20.7225 20.2857 20.6697 20.2285C20.6168 20.1714 20.5639 20.1428 20.4846 20.1428L19.7181 20.1714H19.5595C19.4274 20.1714 19.3216 20.2857 19.3216 20.4285V20.5142C19.3216 20.6571 19.4274 20.7714 19.5595 20.7714H19.7181C20.0089 20.7714 20.0882 20.8 20.0882 20.8285V26.5428C20.0353 26.5714 19.9031 26.6285 19.4538 26.6285H19.2159C19.0838 26.6285 18.978 26.7428 18.978 26.8857V26.9714C18.978 27.1142 19.0838 27.2285 19.2159 27.2285H21.6741C21.8062 27.2285 21.9119 27.1142 21.9119 26.9714V26.8857C21.9119 26.7428 21.8062 26.6285 21.6741 26.6285H21.3569C20.9075 26.6285 20.749 26.5714 20.7225 26.5428V24.0571C20.7225 22.3143 21.7798 20.7714 22.9692 20.7714C23.8679 20.7714 24.3172 21.2285 24.3172 22.1428V26.5142C24.2644 26.5428 24.1322 26.6 23.6829 26.6H23.4979C23.3657 26.6 23.26 26.7143 23.26 26.8571V26.9428C23.26 27.0857 23.3657 27.2 23.4979 27.2H25.7445C25.9296 27.3143 26.0353 27.2 26.0353 27.0571Z" fill="white"/>
<path d="M31.718 18.8572C31.9823 18.8572 32.1937 18.6286 32.1937 18.3429C32.1937 18.0572 31.9823 17.8286 31.718 17.8286C31.4536 17.8286 31.2422 18.0572 31.2422 18.3429C31.2422 18.6286 31.4536 18.8572 31.718 18.8572Z" fill="white"/>
<path d="M30.5548 27.3142H32.9073C33.0394 27.3142 33.1452 27.2 33.1452 27.0571V26.9714C33.1452 26.8285 33.0394 26.7142 32.9073 26.7142H32.6958C32.2465 26.7142 32.1143 26.6571 32.0615 26.6285V20.4857C32.0615 20.4 32.035 20.3428 31.9822 20.2857C31.9293 20.2285 31.8764 20.2 31.7971 20.2L31.0306 20.2285H30.872C30.7399 20.2285 30.6341 20.3428 30.6341 20.4857V20.5714C30.6341 20.7142 30.7399 20.8285 30.872 20.8285H31.0306C31.3214 20.8285 31.4007 20.8571 31.4007 20.8857V26.5999C31.3478 26.6285 31.2156 26.6857 30.7663 26.6857H30.5284C30.3963 26.6857 30.2905 26.7999 30.2905 26.9428V27.0285C30.317 27.1999 30.4227 27.3142 30.5548 27.3142Z" fill="white"/>
<path d="M36.6082 27.3714C37.639 27.3714 38.5377 27.1428 39.2778 26.7428C39.7271 27.2 40.2557 27.4571 40.7844 27.4571C40.8372 27.4571 41.8945 27.4571 41.8945 26.8571C41.8945 26.6571 41.7359 26.4857 41.5245 26.4857C41.4452 26.4857 41.3659 26.5143 41.2866 26.5714C41.1544 26.6857 40.9694 26.7428 40.7051 26.7428C40.4936 26.7428 40.1236 26.6 39.8064 26.3714C40.4672 25.8 40.8372 25.0571 40.8372 24.2571C40.8372 23.6285 40.6522 22.9714 40.3086 22.4285C40.2822 22.3714 40.2293 22.3142 40.2029 22.2571C40.3879 22.2285 40.5729 22.1714 40.7315 22.0857C41.0223 21.9142 41.2073 21.6 41.2073 21.2285C41.2073 21.1142 41.1809 21 41.1544 20.8571C41.1544 20.8285 41.1544 20.8285 41.128 20.8C41.0487 20.6285 40.9165 20.6 40.8637 20.6C40.7051 20.6 40.5729 20.7428 40.5729 20.9428C40.5729 20.9714 40.5729 21 40.5729 21.0285C40.5994 21.0857 40.5994 21.1714 40.5994 21.2C40.5994 21.3143 40.5465 21.4285 40.4408 21.4857C40.3086 21.5428 40.1764 21.6 39.9914 21.6C39.8857 21.6 39.8064 21.6 39.7007 21.5714C39.595 21.5714 39.4892 21.5428 39.3835 21.5428C39.1985 21.5428 38.9077 21.5714 38.617 21.7428C38.3262 21.9143 38.1412 22.2285 38.1412 22.6C38.1412 22.7143 38.1676 22.8285 38.1941 22.9714C38.2469 23.1142 38.3527 23.2 38.4848 23.2C38.6434 23.2 38.7756 23.0571 38.7756 22.8857C38.7756 22.8571 38.7756 22.8285 38.7491 22.8C38.7227 22.7142 38.7227 22.6571 38.7227 22.6285C38.7227 22.5428 38.7491 22.4285 38.8813 22.3428C38.987 22.2857 39.0927 22.2571 39.1985 22.2571C39.3306 22.2571 39.4628 22.3714 39.6742 22.7143C39.965 23.1714 40.15 23.7428 40.15 24.2857C40.15 24.9143 39.8593 25.4857 39.3306 25.9428C39.3042 25.9142 39.2778 25.8857 39.2513 25.8571L36.0795 21.5428C35.8152 21.1714 35.6566 20.7428 35.6566 20.3143C35.6566 19.4571 36.1853 18.8285 36.9782 18.8285C37.7447 18.8285 38.1412 19.2 38.3791 19.5428C38.5113 19.7142 38.5113 19.7714 38.5377 20.1428V20.5142C38.5377 20.6571 38.6434 20.7714 38.7756 20.7714H38.8813C38.9342 20.7714 39.0135 20.7428 39.0663 20.6857C39.1192 20.6285 39.1456 20.5714 39.1456 20.4857L39.0927 18.4571C39.0927 18.4 39.0663 18.3142 39.0135 18.2571C38.9606 18.2 38.9077 18.1714 38.8284 18.2H38.7227C38.5905 18.2 38.4848 18.3143 38.4848 18.4571V18.7143C38.1412 18.4285 37.6919 18.1428 36.9518 18.1428C35.8416 18.1428 35.0223 19.0285 35.0223 20.2857C35.0223 20.8285 35.2337 21.4285 35.6038 21.9143L35.6831 22.0285C35.5773 22.0285 35.498 22.0285 35.4716 22.0285C34.2029 22.0285 33.3042 23.1428 33.3042 24.7143C33.3571 26.2 34.7051 27.3714 36.6082 27.3714ZM35.5245 22.6C35.8152 22.6 36.3174 22.7428 36.4231 22.8857L38.8284 26.2L38.8549 26.2285C38.2469 26.5428 37.454 26.7143 36.6082 26.7143C35.1016 26.7143 33.9914 25.8285 33.9914 24.6285C33.9914 23.4285 34.6258 22.6 35.5245 22.6Z" fill="white"/>
<path d="M42.238 27.3143H44.5904C44.7225 27.3143 44.8283 27.2 44.8283 27.0571V26.9714C44.8283 26.8285 44.7225 26.7143 44.5904 26.7143H44.3789C43.9296 26.7143 43.771 26.6571 43.7446 26.6285V23.9143H44.4846C44.5375 23.9143 44.6168 24 44.6697 24.0285L46.3877 26.3714C46.8635 27.0285 47.1543 27.4 47.7093 27.4C47.9472 27.4 48.2115 27.2857 48.423 27.1143C48.5287 27.0285 48.5816 26.9143 48.5816 26.8C48.5816 26.6 48.423 26.4285 48.2115 26.4285C48.1322 26.4285 48.0529 26.4571 47.9736 26.5143C47.815 26.6571 47.7622 26.6857 47.63 26.6857C47.4714 26.6857 47.2335 26.4571 46.8899 25.9714L45.1454 23.5714L46.8635 21.2285C47.1278 20.8857 47.5243 20.8571 47.8679 20.8571C48.0001 20.8571 48.1058 20.7428 48.1058 20.6V20.5142C48.1058 20.3714 48.0001 20.2571 47.8679 20.2571H45.6476C45.5155 20.2571 45.4098 20.3714 45.4098 20.5142V20.6C45.4098 20.7428 45.5155 20.8571 45.6476 20.8571H46.2556C46.3084 20.8571 46.3349 20.8571 46.3613 20.8571L44.6961 23.1143C44.6432 23.1714 44.5375 23.2571 44.4846 23.2571H43.7446V17.4285C43.7446 17.3714 43.7181 17.2857 43.6653 17.2285C43.6124 17.1714 43.5595 17.1428 43.4802 17.1428L42.7137 17.1714H42.4494C42.3172 17.1714 42.2115 17.2857 42.2115 17.4285V17.5142C42.2115 17.6571 42.3172 17.7714 42.4494 17.7714H42.7137C43.0045 17.7714 43.0838 17.8 43.0838 17.8285V26.6C43.0309 26.6285 42.8987 26.6857 42.4494 26.6857H42.2115C42.0794 26.6857 41.9736 26.8 41.9736 26.9428V27.0285C42.0001 27.2 42.1058 27.3143 42.238 27.3143Z" fill="white"/>
<path d="M51.7532 20.2C49.9559 20.2 48.6343 21.7142 48.6343 23.7714C48.6343 25.8571 49.9559 27.3428 51.7532 27.3428C53.5506 27.3428 54.8722 25.8285 54.8722 23.7714C54.8457 21.6857 53.5506 20.2 51.7532 20.2ZM51.7532 26.7142C50.3259 26.7142 49.2686 25.4857 49.2686 23.7999C49.2686 22.1142 50.2995 20.8857 51.7532 20.8857C53.1805 20.8857 54.2378 22.1142 54.2378 23.7999C54.2114 25.4857 53.1805 26.7142 51.7532 26.7142Z" fill="white"/>
</svg>
