<svg width="60" height="60" viewBox="0 0 60 60" fill="none" xmlns="http://www.w3.org/2000/svg">
<path d="M33.7271 30.0857C33.4363 30.1428 33.2777 30.1428 33.1191 30.1714C32.194 30.3428 31.2953 29.8286 31.0839 29C30.846 28.0286 31.2953 27.1143 32.2733 26.7714C32.7491 26.6 33.2248 26.4571 33.7271 26.3714C34.1764 26.3143 34.3086 26.0571 34.3614 25.6286C34.4936 24.6 34.6257 23.6 34.8636 22.6C34.9693 22.0857 35.1808 21.5714 35.4715 21.1714C35.868 20.6286 36.5024 20.5143 37.1103 20.7428C37.7447 20.9714 38.194 21.4857 38.2204 22.2C38.2469 22.9428 38.0883 23.7143 38.009 24.4571C37.9561 24.8 37.9033 25.1428 37.7975 25.6C38.4848 25.5143 39.0927 25.4286 39.7006 25.3714C40.0442 25.3428 40.4143 25.3143 40.7579 25.4C41.498 25.5714 41.9473 26.1428 42.0002 26.9143C42.053 27.7143 41.7359 28.4 40.9958 28.6286C40.0971 28.8857 39.172 29 38.2469 29.1714C38.1147 29.2 37.9826 29.2 37.8504 29.2286C37.3746 29.2571 37.2425 29.5143 37.216 30C37.1896 31.6857 37.2953 33.3428 37.824 34.9428C38.0354 35.6 38.379 36.2286 38.8019 36.7714C39.3041 37.4 39.9914 37.4571 40.6257 37C41.8416 36.1428 42.7931 35 43.5597 33.6571C43.7711 33.2857 43.824 32.8 43.8768 32.3714C44.0883 30.2 44.5641 28.1143 45.5685 26.2286C46.335 24.7714 47.3394 23.5143 48.9517 23.2C49.5068 23.0857 50.1676 23.1143 50.6962 23.2857C52.0707 23.7143 52.5993 24.8857 52.3614 26.6C52.0178 28.9714 50.9341 30.8571 49.2953 32.4286C48.6874 33.0286 48.0002 33.5143 47.3658 34.0857C47.2072 34.2286 47.0751 34.5714 47.1015 34.7714C47.5244 37.1143 50.0354 38.0286 51.6742 36.4286C52.0971 36.0286 52.4143 35.5143 52.7579 35.0571C53.0751 34.6286 53.3923 34.2857 53.9209 34.2C55.1632 34.0286 56.0354 35.1428 55.6918 36.5143C55.4539 37.4857 54.7667 38.1714 54.1323 38.8571C51.1456 42.0857 46.9693 40.8286 45.3041 38.7428C45.1191 38.4857 44.9341 38.2286 44.6962 37.9428C44.3526 38.2857 44.009 38.6571 43.6654 38.9714C42.7667 39.8286 41.8152 40.5714 40.5729 40.8C38.6698 41.1428 37.1632 40.4 35.9473 38.8571C35.5773 38.3714 35.2601 37.8 34.9693 37.2571C34.52 36.4 34.2821 36.3714 33.6478 37.0571C32.6698 38.1143 31.5597 38.9428 30.2116 39.2857C28.2028 39.8286 26.2469 38.9714 25.4539 37.2C25.1367 36.4857 25.0574 35.6286 24.8989 34.8571C24.846 34.6 24.846 34.3143 24.8196 33.9143C24.6345 34.0571 24.5552 34.1428 24.476 34.2286C23.2601 35.3143 22.0707 36.4286 20.8548 37.5143C20.3262 38 19.6918 38.1714 18.9782 38.2286C18.7138 38.2286 18.3967 38.4857 18.1852 38.7143C16.4936 40.6 14.5905 42.2 12.3967 43.3714C11.1015 44.0571 9.77992 44.0571 8.45833 43.5143C6.68741 42.8 5.86802 41.2857 5.78873 39.3714C5.73586 38 5.94732 36.6 6.00018 35.2286C6.02661 34.7428 6.02661 34.2286 5.97375 33.7428C5.89445 33.1714 5.94732 32.6857 6.2645 32.2C6.39666 31.9714 6.52881 31.7143 6.58168 31.4571C6.92529 29.6571 7.24247 27.8571 7.58608 26.0286C7.61252 25.8571 7.61252 25.6571 7.63895 25.4C7.45392 25.4 7.32177 25.4 7.18961 25.4C6.87243 25.4 6.58168 25.4 6.29093 25.3428C4.14996 24.8857 3.46274 23.0857 4.75789 21.1714C5.12793 20.6286 5.63014 20.1428 6.13234 19.7428C8.06185 18.2571 10.1235 17.0571 12.4495 16.4571C14.1411 16.0286 15.8328 16.2571 17.4187 16.9428C19.1632 17.6857 20.1147 19.2286 20.2469 21.2C20.4055 23.5714 20.009 25.8571 18.7138 27.8571C18.5552 28.0857 18.3702 28.3143 18.1588 28.5143C17.8945 28.8 17.9209 29 18.2381 29.2C19.1632 29.8571 19.7975 30.8 20.1411 31.9428C20.2733 32.3714 20.2997 32.8286 20.4055 33.3428C20.5905 33.2 20.7226 33.0857 20.8548 32.9714C22.4671 31.4857 23.868 29.8 24.8989 27.7714C25.1632 27.2571 25.6125 26.7428 26.0883 26.4857C27.2513 25.8571 28.4671 26.7428 28.4936 28.2857C28.52 29.5714 28.335 30.8571 28.2821 32.1428C28.2293 33.0286 28.2028 33.9143 28.2557 34.8C28.3086 35.7714 28.89 36.1714 29.683 35.7143C31.1896 34.8571 32.5641 33.7428 33.357 32.0571C33.6478 31.4857 33.6213 30.8 33.7271 30.0857ZM9.06626 38.1428C9.11912 38.5714 9.14556 38.9143 9.22485 39.2571C9.38344 40 9.70062 40.2857 10.3878 40.2C10.8372 40.1428 11.313 40 11.683 39.7143C12.8724 38.8286 14.0354 37.9428 15.1456 36.9714C16.0178 36.1714 16.8108 35.2857 17.0486 33.9714C17.1808 33.2571 17.1015 32.6 16.4936 32.1714C15.8063 31.6857 15.0663 31.2857 14.2469 31.7428C12.7931 32.5428 11.3394 33.4 9.91208 34.2286C9.75348 34.3143 9.56846 34.5428 9.54203 34.7143C9.33058 35.8857 9.19842 37.0571 9.06626 38.1428ZM10.4671 28.9714C10.6786 28.9143 10.7579 28.8857 10.8372 28.8571C11.7094 28.5428 12.5817 28.2571 13.4275 27.9428C13.6125 27.8857 13.7975 27.8286 13.9561 27.7143C16.0442 26.3428 17.1279 24.3714 17.0222 21.7143C16.9958 20.8571 16.6522 20.3428 15.8856 20.0857C14.6434 19.6571 13.4275 19.6 12.2116 20.2C12.0266 20.2857 11.8152 20.5714 11.7887 20.8C11.4451 22.7143 11.1544 24.6571 10.8372 26.6C10.7843 27.3428 10.6257 28.1143 10.4671 28.9714ZM47.683 28.6286C47.6566 29.3143 47.9737 29.5714 48.3967 29.2C48.8724 28.7714 49.2689 28.2286 49.6125 27.6857C49.824 27.3714 49.9297 26.8286 49.5332 26.6286C49.2953 26.4857 48.846 26.5714 48.5817 26.7428C47.8945 27.1714 47.7887 27.9714 47.683 28.6286Z" fill="black"/>
<path d="M26.881 19.8572C27.7797 19.8572 28.4405 20.5715 28.4405 21.5143C28.4405 22.4572 27.7269 23.2 26.8282 23.2C25.9559 23.2 25.3216 22.4857 25.3216 21.5429C25.2951 20.5429 25.9559 19.8572 26.881 19.8572Z" fill="black"/>
</svg>
