<svg width="60" height="60" viewBox="0 0 60 60" fill="none" xmlns="http://www.w3.org/2000/svg">
<path d="M46.2816 19.5427C45.9908 19.5427 45.7794 19.7999 45.7529 20.1142V20.3427C45.7529 20.657 46.4402 22.1999 46.5987 22.5142C46.6516 22.6284 46.7045 22.6856 46.7838 22.6856C46.8366 22.6856 46.9159 22.6284 46.9688 22.5142C47.1009 22.1999 47.7882 20.657 47.7882 20.3427V20.1142C47.7882 19.7999 47.5503 19.5713 47.2595 19.5427H46.2816Z" fill="#648C2E"/>
<path d="M17.8676 24.3999C17.6561 24.6285 17.524 24.9428 17.4975 25.2856V32.3142C17.4975 32.5714 17.4711 32.8285 17.3918 33.0571C17.3389 33.1714 17.0482 33.2856 17.0482 33.2856H16.6781C16.4667 33.2856 16.3081 33.3999 16.3081 33.5142C16.3081 33.6285 16.5196 33.7428 16.8103 33.7428H19.9557C20.2464 33.7428 20.4579 33.6285 20.4579 33.5142C20.4579 33.3999 20.2993 33.2856 20.0878 33.2856H19.7178L19.5063 33.1714C19.3742 33.1142 19.2949 32.5999 19.2949 32.3142V23.4285C19.2949 23.1428 19.1363 23.0856 18.9248 23.2856L17.8676 24.3999Z" fill="#648C2E"/>
<path d="M17.9202 19.5427C17.6295 19.5427 17.418 19.7999 17.3916 20.1142V20.3427C17.3916 20.657 18.0788 22.1999 18.2374 22.5142C18.2903 22.6284 18.3696 22.6856 18.4224 22.6856C18.4753 22.6856 18.5546 22.6284 18.6075 22.5142C18.7396 22.1999 19.4268 20.657 19.4268 20.3427V20.1142C19.4268 19.7999 19.189 19.5713 18.9246 19.5427H17.9202Z" fill="#648C2E"/>
<path d="M9.5416 24.4285C11.9733 23.4856 12.872 22.1142 12.7663 20.2856C12.6605 18.4285 10.0174 17.3142 7.40063 18.1999C4.78389 19.0856 3.06583 21.2285 3.56803 23.057C3.80591 23.857 4.57243 24.3428 5.33895 24.1713C5.89402 24.1142 6.31693 23.657 6.34336 23.057C6.34336 22.7428 6.10547 22.8285 6.10547 22.8285C6.05261 22.8285 5.97331 22.8285 5.92045 22.8285C5.709 22.8285 5.52398 22.6856 5.47111 22.4856C5.39182 22.1999 5.55041 21.8856 5.81472 21.7999C5.92045 21.7713 6.05261 21.7713 6.15834 21.8285C6.34336 21.8856 6.50195 22.057 6.55481 22.257C6.55481 22.257 7.05702 24.257 5.25966 24.5999C4.25525 24.857 3.22442 24.257 2.85437 23.1999C2.29931 21.257 4.33455 18.857 7.42706 17.8285C10.4931 16.7999 13.7707 17.5428 14.2993 19.4856C14.8279 21.3428 12.6605 23.6285 9.77948 24.7142" fill="#648C2E"/>
<path d="M10.6251 24.2856C11.7616 24.7141 12.8453 25.8856 13.559 27.3427C14.6691 29.657 13.1097 33.1998 11.5766 33.1998H10.2286C9.99072 33.1998 9.77926 32.9713 9.77926 32.7141V23.2284V17.7713C9.77926 17.457 9.62067 17.3713 9.40922 17.5998L8.27266 18.7998C8.03477 19.057 7.90261 19.3998 7.87618 19.7713V32.2856C7.87618 32.5427 7.84975 32.7998 7.79689 33.0284C7.74402 33.1427 7.4797 33.257 7.4797 33.257H7.13609C6.95107 33.257 6.79248 33.3427 6.79248 33.4856C6.79248 33.5998 7.00393 33.7141 7.26825 33.7141H13.1625C14.9334 33.7141 16.6515 29.857 15.3828 27.1998C14.5634 25.5141 12.6339 24.4284 11.3123 23.9141" fill="#648C2E"/>
<path d="M24.5547 22.8856C22.5459 23.1142 20.9335 25.657 21.0657 28.6856C21.1978 31.7142 22.9688 34.1142 25.004 33.9999C27.0393 33.8856 28.2287 31.3428 28.2287 28.2856C28.2287 24.6856 26.5106 22.657 24.5547 22.8856ZM25.5062 33.3428C24.2111 33.4285 23.0481 31.2285 22.8895 28.4285C22.7573 25.657 23.7089 23.3428 25.004 23.257C26.2992 23.1713 27.4622 25.3713 27.6208 28.1713C27.7529 30.9713 26.8014 33.2856 25.5062 33.3428Z" fill="#648C2E"/>
<path d="M46.2289 24.3999C46.0175 24.6285 45.8853 24.9428 45.8589 25.2856V32.3142C45.8589 32.5714 45.8324 32.8285 45.7531 33.0571C45.7003 33.1714 45.4095 33.2856 45.4095 33.2856H45.0395C44.8545 33.2856 44.6694 33.3999 44.6694 33.5142C44.6694 33.6285 44.9073 33.7428 45.1716 33.7428H48.317C48.5813 33.7428 48.8192 33.6285 48.8192 33.5142C48.8192 33.3999 48.6606 33.2856 48.4492 33.2856H48.0791L47.8677 33.1714C47.7619 33.1142 47.6562 32.5999 47.6562 32.3142V23.4285C47.6562 23.1428 47.4976 23.0856 47.3126 23.2856L46.2289 24.3999Z" fill="#648C2E"/>
<path d="M52.8896 22.857C50.8808 23.0856 49.2685 25.6285 49.4007 28.657C49.5328 31.6856 51.3037 34.0856 53.339 33.9713C55.3742 33.857 56.5372 31.3142 56.5372 28.257C56.5372 24.6285 54.8192 22.5999 52.8896 22.857ZM53.8412 33.3142C52.546 33.3999 51.3566 31.1999 51.2244 28.4285C51.0923 25.657 52.0438 23.3427 53.339 23.257C54.6341 23.1713 55.7971 25.3713 55.9557 28.1713C56.0879 30.9427 55.1363 33.257 53.8412 33.3142Z" fill="#648C2E"/>
<path d="M40.9161 17.5142L36.9778 30.057L33.0659 17.5142H30.132C29.8412 17.5142 29.6033 17.6285 29.6033 17.7713C29.6033 17.8856 29.7619 17.9999 29.9734 17.9999H30.3434C30.3434 17.9999 30.6342 18.1142 30.687 18.2285C30.7663 18.457 30.7927 18.7142 30.7927 18.9713V31.1427C30.7927 31.857 30.7927 33.1142 30.0527 33.4285C29.8676 33.5142 29.7883 33.3999 29.7619 33.3142C29.7619 33.057 29.709 32.7713 29.6297 32.5427C29.524 32.1999 29.2068 31.9999 28.8897 32.057C28.4139 32.1427 28.1231 32.657 28.2024 33.1427C28.2289 33.3142 28.3082 33.4856 28.4403 33.6285C28.8368 34.1427 29.5505 34.0856 29.9734 33.9713C30.1848 33.9142 30.3963 33.8285 30.6077 33.7142C31.4007 33.1427 31.48 31.7999 31.48 31.1713V19.5999L35.8148 33.4856C35.8148 33.5427 35.8412 33.5999 35.8676 33.657V33.6856C35.9205 33.7999 35.9998 33.9713 36.132 33.9999C36.3963 34.0856 36.6077 33.8856 36.687 33.5713L36.7927 33.3142L37.4271 31.257L40.969 20.057V32.2856C40.969 32.5427 40.9425 32.7713 40.8632 33.0285C40.8104 33.1427 40.5196 33.257 40.5196 33.257H40.1496C39.9646 33.257 39.7795 33.3713 39.7795 33.4856C39.7795 33.5999 40.0174 33.7142 40.2817 33.7142H43.4271C43.7179 33.7142 43.9293 33.5999 43.9293 33.4856C43.9293 33.3713 43.7707 33.257 43.5593 33.257H43.1892C43.1892 33.257 42.8985 33.1427 42.8456 33.0285C42.7663 32.7999 42.7399 32.5427 42.7399 32.2856V18.9142C42.7399 18.657 42.7927 18.4285 42.872 18.1713C42.9249 18.057 43.2157 17.9427 43.2157 17.9427H43.5857C43.7972 17.9427 43.9557 17.8285 43.9557 17.7142C43.9557 17.5999 43.7179 17.4856 43.4535 17.4856H40.9161V17.5142Z" fill="#648C2E"/>
<path d="M54.1056 40.2571H49.665V40.5142H54.1056V40.2571Z" fill="#648C2E"/>
<path d="M11.5768 40.0857H7.13623V40.3428H11.5768V40.0857Z" fill="#648C2E"/>
<path d="M15.2247 38.9141C14.9868 38.9141 14.7753 39.0855 14.6696 39.3141C14.511 39.657 14.4581 40.0284 14.4581 40.3998C14.4581 40.657 14.4846 40.9427 14.5374 41.1998C14.5903 41.3998 14.6696 41.5713 14.8018 41.7141C14.9075 41.8284 15.0396 41.8855 15.1982 41.8855C15.3304 41.8855 15.4625 41.857 15.5947 41.7998V41.9998C15.4625 42.0855 15.304 42.1141 15.1718 42.1141C14.9868 42.1141 14.8018 42.057 14.6696 41.9141C14.511 41.7427 14.4053 41.5427 14.326 41.3141C14.2467 41.0284 14.1938 40.7141 14.2203 40.3998C14.1938 39.9713 14.2995 39.5427 14.4846 39.1713C14.6167 38.8855 14.9075 38.7141 15.1982 38.7141C15.3568 38.7141 15.5418 38.7713 15.674 38.857L15.5683 39.057C15.4625 38.9713 15.304 38.9427 15.1718 38.9427" fill="#648C2E"/>
<path d="M16.1494 42.0572V38.7429H16.3609V41.8572H17.2067V42.0572H16.1494Z" fill="#648C2E"/>
<path d="M18.74 42.0572H17.6299V38.7429H18.74V38.9715H17.8413V40.2286H18.6872V40.4286H17.8413V41.8572H18.74V42.0572Z" fill="#648C2E"/>
<path d="M20.4313 42.0572L20.167 40.8572H19.4269L19.1626 42.0572H18.9512L19.6913 38.7429H19.9027L20.6692 42.0572H20.4313ZM20.1142 40.6286L19.8499 39.4001C19.8234 39.2572 19.797 39.1429 19.7706 39.0001C19.7706 39.1429 19.7441 39.2572 19.7177 39.4001L19.4534 40.6286H20.1142Z" fill="#648C2E"/>
<path d="M22.5987 42.057H22.3344L21.145 39.0855C21.145 39.2855 21.1714 39.4855 21.1714 39.6855V42.057H20.96V38.7712H21.2243L22.3873 41.7141C22.3873 41.457 22.3873 41.257 22.3873 41.0855V38.7712H22.5723L22.5987 42.057Z" fill="#648C2E"/>
<path d="M23.4712 38.7429H23.2598V42.0572H23.4712V38.7429Z" fill="#648C2E"/>
<path d="M25.7442 42.057H25.4799L24.3169 39.0855C24.3169 39.2855 24.3433 39.4855 24.3433 39.6855V42.057H24.1318V38.7712H24.3962L25.5327 41.7141C25.5327 41.457 25.5327 41.257 25.5327 41.0855V38.7712H25.7177V42.057H25.7442Z" fill="#648C2E"/>
<path d="M27.4095 40.3998H28.0967V41.9713C27.8588 42.057 27.6209 42.1141 27.3566 42.1141C27.0394 42.1427 26.7487 41.9427 26.5637 41.657C26.3522 41.257 26.2729 40.8284 26.2993 40.3713C26.2729 39.9427 26.3786 39.4855 26.5901 39.1141C26.7751 38.8284 27.0659 38.6855 27.383 38.6855C27.6209 38.6855 27.8324 38.7713 28.0438 38.8856L27.9381 39.0855C27.7795 38.9713 27.5681 38.8856 27.383 38.8856C27.1187 38.8856 26.8808 39.0284 26.7222 39.257C26.5637 39.5998 26.4844 39.9713 26.5108 40.3713C26.4844 40.7427 26.5637 41.1427 26.7222 41.457C26.8544 41.7141 27.0923 41.857 27.3566 41.857C27.5152 41.857 27.7002 41.8284 27.8588 41.7713V40.5713H27.4359V40.3998H27.4095Z" fill="#648C2E"/>
<path d="M30.634 42.0572L30.3697 40.8572H29.6032L29.3389 42.0572H29.1274L29.8675 38.7429H30.079L30.8191 42.0572H30.634ZM30.3169 40.6286L30.0526 39.4001C30.0261 39.2572 29.9997 39.1143 29.9733 39.0001C29.9733 39.1429 29.9468 39.2572 29.9204 39.4001L29.6561 40.6286H30.3169Z" fill="#648C2E"/>
<path d="M32.3523 41.1998C32.3523 41.4284 32.2995 41.6855 32.1409 41.857C32.0087 42.0284 31.7973 42.1141 31.6123 42.1141C31.4008 42.1141 31.2158 42.0855 31.0308 41.9998V41.7713C31.1101 41.8284 31.2158 41.857 31.2951 41.8855C31.4008 41.9141 31.5065 41.9141 31.6123 41.9141C31.7708 41.9141 31.903 41.857 32.0087 41.7141C32.1145 41.5713 32.1673 41.3998 32.1673 41.2284C32.1673 41.0855 32.1409 40.9427 32.0616 40.7998C31.9559 40.657 31.8237 40.5427 31.6651 40.4855C31.533 40.4284 31.4272 40.3427 31.3215 40.2284C31.2422 40.1427 31.1894 40.057 31.1365 39.9427C31.1101 39.8284 31.0836 39.6855 31.0836 39.5427C31.0836 39.3998 31.1101 39.257 31.1629 39.1141C31.2158 38.9998 31.3215 38.8855 31.4272 38.8284C31.533 38.7713 31.6651 38.7141 31.7973 38.7141C31.9823 38.7141 32.1673 38.7713 32.3523 38.857L32.2731 39.057C32.1145 38.9713 31.9559 38.9427 31.7973 38.9427C31.6651 38.9427 31.533 38.9998 31.4272 39.1141C31.3215 39.2284 31.2686 39.3713 31.2951 39.5427C31.2951 39.6855 31.3215 39.8284 31.4008 39.9713C31.5065 40.1141 31.6387 40.2284 31.7973 40.2855C31.9823 40.3713 32.1409 40.5141 32.2466 40.657C32.2995 40.8284 32.3523 40.9998 32.3523 41.1998Z" fill="#648C2E"/>
<path d="M35.1012 39.7141C35.1277 39.9999 35.0484 40.257 34.8898 40.457C34.7048 40.6284 34.4933 40.7141 34.2554 40.6856H34.044V42.057H33.8325V38.7427H34.2554C34.4933 38.7141 34.7312 38.7999 34.9162 38.9713C35.0484 39.1999 35.1012 39.457 35.1012 39.7141ZM34.0175 40.4856H34.229C34.414 40.5141 34.599 40.4284 34.7312 40.3141C34.8369 40.1427 34.8898 39.9141 34.8898 39.7141C34.9162 39.5141 34.8634 39.3141 34.7312 39.1427C34.599 39.0284 34.414 38.9427 34.2554 38.9713H34.0175V40.4856Z" fill="#648C2E"/>
<path d="M35.5767 42.0572V38.7429H35.7617V41.8572H36.6339V42.0572H35.5767Z" fill="#648C2E"/>
<path d="M38.1673 42.0572H37.0571V38.7429H38.1673V38.9715H37.2686V40.2286H38.1144V40.4286H37.2686V41.8572H38.1673V42.0572Z" fill="#648C2E"/>
<path d="M39.8586 42.0572L39.5943 40.8572H38.8542L38.5899 42.0572H38.3784L39.1185 38.7429H39.3035L40.0965 42.0572H39.8586ZM39.5414 40.6286L39.2771 39.4001C39.2507 39.2572 39.2242 39.1143 39.1978 39.0001C39.1978 39.1429 39.1714 39.2572 39.1449 39.4001L38.9071 40.6286H39.5414Z" fill="#648C2E"/>
<path d="M41.577 41.1998C41.577 41.4284 41.4977 41.6855 41.3655 41.857C41.2333 42.0284 41.0483 42.1141 40.8369 42.1141C40.6254 42.1141 40.4404 42.0855 40.2554 41.9998V41.7713C40.3347 41.8284 40.4404 41.857 40.5197 41.8855C40.6254 41.9141 40.7311 41.9141 40.8369 41.9141C40.9955 41.9141 41.1276 41.857 41.2333 41.7141C41.3391 41.5713 41.3919 41.3998 41.3919 41.2284C41.3919 41.0855 41.3655 40.9427 41.2862 40.7998C41.1805 40.657 41.0483 40.5427 40.8897 40.457C40.7576 40.3998 40.6518 40.3141 40.5461 40.1998C40.4668 40.1141 40.414 40.0284 40.3611 39.9141C40.3347 39.7998 40.3082 39.657 40.3082 39.5141C40.3082 39.3713 40.3347 39.2284 40.414 39.0855C40.4668 38.9713 40.5725 38.857 40.6783 38.7998C40.784 38.7427 40.9162 38.6855 41.0483 38.6855C41.154 38.6855 41.2598 38.6855 41.3655 38.7141C41.4448 38.7427 41.5241 38.7713 41.577 38.7998L41.4977 38.9998C41.3655 38.9141 41.1805 38.8856 41.0219 38.8856C40.8897 38.8856 40.7576 38.9427 40.6518 39.057C40.5461 39.1713 40.4933 39.3141 40.5197 39.4855C40.5197 39.6284 40.5461 39.7713 40.6254 39.9141C40.7311 40.057 40.8633 40.1713 41.0219 40.2284C41.2069 40.3141 41.3655 40.457 41.4712 40.5998C41.5241 40.7998 41.577 40.9998 41.577 41.1998Z" fill="#648C2E"/>
<path d="M43.559 38.7429V40.9715C43.559 41.7143 43.3211 42.0858 42.8189 42.0858C42.6075 42.0858 42.3696 42.0001 42.2374 41.8001C42.1053 41.5429 42.026 41.2572 42.0524 40.9429V38.7429H42.2639V41.0001C42.2639 41.2286 42.2903 41.4572 42.396 41.6572C42.4753 41.8001 42.6339 41.8858 42.7925 41.8858C42.9511 41.8858 43.1097 41.8001 43.189 41.6572C43.2947 41.4572 43.3476 41.2286 43.3211 41.0001V38.7429H43.559Z" fill="#648C2E"/>
<path d="M44.4048 40.6284V42.0856H44.1934V38.7713H44.6163C44.8542 38.7427 45.092 38.8284 45.2771 38.9999C45.4356 39.1999 45.4885 39.4284 45.4885 39.6856C45.4885 39.8856 45.4621 40.0856 45.3828 40.257C45.3035 40.4284 45.1449 40.5427 44.9863 40.5999L45.5942 42.0856H45.3564L44.8013 40.6284H44.4048ZM44.4048 40.3999H44.6956C44.8542 40.3999 45.0127 40.3427 45.1185 40.2284C45.2242 40.057 45.2771 39.8856 45.2771 39.6856C45.3035 39.4856 45.2506 39.2856 45.1185 39.1427C44.9863 39.0284 44.8013 38.9713 44.6427 38.9713H44.4048V40.3999Z" fill="#648C2E"/>
<path d="M47.1541 42.0572H46.0439V38.7429H47.1541V38.9715H46.229V40.2286H47.1012V40.4286H46.229V41.8572H47.1541V42.0572Z" fill="#648C2E"/>
</svg>
