<svg width="54" height="20" viewBox="0 0 54 20" fill="none" xmlns="http://www.w3.org/2000/svg">
<path fill-rule="evenodd" clip-rule="evenodd" d="M15.9503 2.85718V2.86342C15.9443 2.86342 14.0397 2.85718 13.5318 4.73491C13.0662 6.45668 11.7542 11.2103 11.7179 11.3413H11.3551C11.3551 11.3413 10.0128 6.48163 9.5412 4.72867C9.03331 2.85094 7.12266 2.85718 7.12266 2.85718H2.76929V17.1429H7.12266V8.65879H7.30405H7.48544L10.0249 17.1429H13.0481L15.5875 8.66503H15.9503V17.1429H20.3037V2.85718H15.9503Z" fill="#4DB45E"/>
<path fill-rule="evenodd" clip-rule="evenodd" d="M31.8521 2.85718C31.8521 2.85718 30.5764 2.97571 29.9778 4.35437L26.8941 11.3413H26.5313V2.85718H22.178V17.1429H26.2895C26.2895 17.1429 27.6257 17.0181 28.2243 15.6457L31.2475 8.65879H31.6103V17.1429H35.9637V2.85718H31.8521Z" fill="#4DB45E"/>
<path fill-rule="evenodd" clip-rule="evenodd" d="M37.8984 9.34497V17.1428H42.2518V12.5889H46.968C49.0237 12.5889 50.7651 11.2352 51.412 9.34497H37.8984Z" fill="#4DB45E"/>
<path fill-rule="evenodd" clip-rule="evenodd" d="M46.9685 2.85718H37.2883C37.772 5.57708 39.7492 7.76048 42.3068 8.47165C42.8873 8.63384 43.4979 8.72118 44.1268 8.72118H51.588C51.6545 8.39679 51.6847 8.06616 51.6847 7.72305C51.6847 5.03434 49.5745 2.85718 46.9685 2.85718Z" fill="url(#paint0_linear_1760_47829)"/>
<defs>
<linearGradient id="paint0_linear_1760_47829" x1="37.2895" y1="5.78918" x2="51.6847" y2="5.78918" gradientUnits="userSpaceOnUse">
<stop offset="0.3" stop-color="#00B4E6"/>
<stop offset="1" stop-color="#088CCB"/>
</linearGradient>
</defs>
</svg>
