<svg width="54" height="32" viewBox="0 0 54 32" fill="none" xmlns="http://www.w3.org/2000/svg">
<path fill-rule="evenodd" clip-rule="evenodd" d="M53.6667 32V0H0.333374V32H53.6667Z" fill="#005A9C"/>
<path fill-rule="evenodd" clip-rule="evenodd" d="M14.9294 19.3313C20.5839 16.8948 28.5179 14.6867 39.0251 16.8976L39.1358 14.2182C28.0494 13.0012 20.0945 16.5508 14.9294 19.0667V19.3313Z" fill="#FBAA29"/>
<path fill-rule="evenodd" clip-rule="evenodd" d="M4.72131 21.3008H10.05V22.9146H6.73905L6.71666 24.4053H10.0164V25.9519H6.70546L6.71759 27.4425H9.98313V29.0567H4.72286L4.72131 21.3008Z" fill="white"/>
<path fill-rule="evenodd" clip-rule="evenodd" d="M11.3873 20.6511H13.327L13.3338 29.0569H11.3942L11.3873 20.6511Z" fill="white"/>
<path fill-rule="evenodd" clip-rule="evenodd" d="M19.9995 28.4174C19.3418 28.9778 18.3386 29.2581 17.4467 29.2581C15.4068 29.2581 14.4813 27.8012 14.4813 26.3553C14.4813 24.6517 15.7521 23.2058 17.5027 23.2058C19.643 23.2058 20.3118 24.7299 20.3118 26.669H16.4213C16.4213 27.1063 16.7 27.846 17.7702 27.846C18.4502 27.846 18.8292 27.6442 19.3533 27.2855L19.9995 28.4174ZM18.5725 25.5259C18.5725 24.9432 18.2938 24.4162 17.6473 24.4162C17.0341 24.4162 16.566 24.9654 16.4434 25.5259H18.5725Z" fill="white"/>
<path fill-rule="evenodd" clip-rule="evenodd" d="M26.1977 28.6751C25.6627 29.0113 24.782 29.2581 24.1355 29.2581C22.3517 29.2581 21.0697 28.2269 21.0697 26.3663C21.0697 24.4609 22.3405 23.2058 24.2581 23.2058C24.9269 23.2058 25.7296 23.4188 26.1642 23.699L25.5398 24.9767C25.2498 24.8534 24.9378 24.7524 24.6255 24.7524C23.6558 24.7524 23.0091 25.3354 23.0091 26.2656C23.0091 27.0725 23.6334 27.7115 24.4584 27.7115C24.8261 27.7115 25.1942 27.5432 25.5062 27.3865L26.1977 28.6751Z" fill="white"/>
<path fill-rule="evenodd" clip-rule="evenodd" d="M26.9148 23.4076H27.7912L27.7843 21.491H29.6575L29.6127 23.4076H31.2071L31.1735 24.8197H29.5794C29.5794 25.6041 29.5237 26.4336 29.5237 26.9155C29.5237 27.4087 29.6463 27.6439 30.0812 27.6439C30.3487 27.6439 30.5718 27.5095 30.7949 27.375L31.2183 28.6976C30.6496 29.0451 29.9586 29.2581 29.3009 29.2581C27.7289 29.2581 27.6512 28.2607 27.6512 26.9606C27.6512 26.2656 27.7068 25.571 27.7068 24.82H26.8706L26.9148 23.4076Z" fill="white"/>
<path fill-rule="evenodd" clip-rule="evenodd" d="M32.2002 23.4077H34.1398V24.2034H34.1622C34.4519 23.7214 34.8311 23.2507 35.5892 23.2507C35.8011 23.2507 36.0238 23.2733 36.2248 23.318L35.9684 25.2458C35.779 25.1899 35.5671 25.1339 35.2772 25.1339C34.6304 25.1339 34.1289 25.6831 34.1289 25.7951L34.0957 29.0565H32.156L32.2002 23.4077Z" fill="white"/>
<path fill-rule="evenodd" clip-rule="evenodd" d="M39.7383 23.2058C41.8117 23.2058 42.8818 24.5282 42.8818 26.2318C42.8818 27.9354 41.8117 29.2581 39.7383 29.2581C37.6648 29.2581 36.5944 27.9357 36.5944 26.2318C36.5944 24.5282 37.6648 23.2058 39.7383 23.2058ZM39.7383 27.7784C40.6634 27.7784 40.9422 26.9715 40.9422 26.2318C40.9422 25.4921 40.6634 24.6852 39.7383 24.6852C38.8131 24.6852 38.5343 25.4921 38.5343 26.2318C38.534 26.9715 38.8128 27.7784 39.7383 27.7784Z" fill="white"/>
<path fill-rule="evenodd" clip-rule="evenodd" d="M43.9359 23.4075H45.8756V24.024C46.3217 23.5871 47.0017 23.2058 47.6927 23.2058C48.8854 23.2058 49.5318 23.867 49.5318 25.4136C49.5318 26.568 49.5206 27.8122 49.5098 29.056H47.5701C47.5813 27.9689 47.5922 26.8708 47.5922 25.7051C47.5922 25.2456 47.4696 24.8869 46.8897 24.8869C46.5777 24.8869 46.1316 25.1559 45.8753 25.4023L45.865 29.056H43.8911L43.9359 23.4075Z" fill="white"/>
<path fill-rule="evenodd" clip-rule="evenodd" d="M20.676 11.7726L23.1274 3.64917H25.3138L22.8627 11.7726H20.676Z" fill="white"/>
<path fill-rule="evenodd" clip-rule="evenodd" d="M19.6986 3.65112L17.7315 7.09463C17.231 7.99727 16.9379 8.45296 16.7973 9.0225H16.7678C16.8023 8.30002 16.7021 7.41334 16.6928 6.91167L16.4756 3.65112H12.7945L12.7562 3.87005C13.7019 3.87005 14.2628 4.34732 14.4175 5.3244L15.1348 11.7726H17.4002L21.981 3.65112H19.6986Z" fill="white"/>
<path fill-rule="evenodd" clip-rule="evenodd" d="M36.7028 11.7721L36.6425 10.5639L33.9123 10.562L33.3539 11.7721H30.98L35.2839 3.66406H38.1979L38.9268 11.7721H36.7028ZM36.4518 6.98059C36.4272 6.38008 36.407 5.56503 36.4477 5.0718H36.4157C36.2825 5.47558 35.7111 6.68628 35.4594 7.28178L34.6459 9.06234L36.5631 9.06265L36.4518 6.98059Z" fill="white"/>
<path fill-rule="evenodd" clip-rule="evenodd" d="M27.6095 12.0038C26.0659 12.0038 25.0411 11.5112 24.3101 11.0721L25.3513 9.47293C26.008 9.84231 26.5238 10.2683 27.71 10.2683C28.0917 10.2683 28.4588 10.1688 28.6675 9.80509C28.9715 9.27652 28.5975 8.99253 27.7436 8.50618L27.322 8.23033C26.0556 7.36054 25.5078 6.53453 26.1035 5.09239C26.4855 4.17005 27.491 3.4707 29.1507 3.4707C30.2952 3.4707 31.3684 3.96832 31.9934 4.45466L30.796 5.86647C30.1857 5.37042 29.6801 5.11959 29.1009 5.11959C28.6398 5.11959 28.2889 5.2985 28.1682 5.53995C27.9405 5.99408 28.2419 6.30246 28.9074 6.71843L29.4092 7.03933C30.9463 8.01358 31.3124 9.03569 30.9273 9.99149C30.2641 11.636 28.9668 12.0038 27.6095 12.0038Z" fill="white"/>
</svg>
