<svg width="54" height="32" viewBox="0 0 54 32" fill="none" xmlns="http://www.w3.org/2000/svg">
<rect x="0.5" y="0.5" width="52.3333" height="31" fill="white" stroke="#E5E5E5"/>
<path d="M22.53 9.33325L20.2549 23.4915H23.8915L26.1652 9.33325H22.53ZM33.4993 15.1005C32.2285 14.473 31.4495 14.0494 31.4495 13.4075C31.465 12.8239 32.1083 12.2261 33.5447 12.2261C34.7262 12.1964 35.5946 12.474 36.2534 12.7503L36.5834 12.8976L37.0778 9.93534C36.3595 9.65768 35.2206 9.35174 33.8138 9.35174C30.2226 9.35174 27.6938 11.2189 27.6781 13.8894C27.6485 15.86 29.4886 16.9536 30.8657 17.6096C32.2725 18.2825 32.7514 18.7188 32.7514 19.3167C32.7358 20.2346 31.6138 20.6582 30.5669 20.6582C29.1163 20.6582 28.3371 20.4401 27.1542 19.9286L26.6753 19.7104L26.1668 22.7889C27.0211 23.1686 28.5921 23.5028 30.2228 23.5199C34.0393 23.5199 36.5227 21.6811 36.5539 18.835C36.5663 17.2738 35.596 16.078 33.4993 15.1005ZM46.4009 9.37707H43.5873C42.7203 9.37707 42.0615 9.62645 41.6861 10.5161L36.2843 23.4915H40.1008L41.152 20.6823H45.4219L45.9673 23.5028H49.3333L46.4009 9.37707ZM42.2104 17.8473C42.284 17.8544 43.6753 13.2615 43.6753 13.2615L44.7831 17.8473C44.7831 17.8473 42.9287 17.8473 42.2104 17.8473ZM17.2162 9.33325L13.6532 18.9525L13.2651 17.0555C12.6063 14.8667 10.5409 12.4882 8.23584 11.3067L11.4984 23.4774H15.3462L21.0639 9.3348H17.2162V9.33325Z" fill="#00569F"/>
<path d="M12.0665 11.1596C11.7889 10.0801 10.9034 9.35196 9.70078 9.33643H4.05811L4 9.59839C8.40167 10.6835 12.0962 14.0226 13.2948 17.1634L12.0665 11.1596Z" fill="#EFC75E"/>
</svg>
