<svg width="50" height="20" viewBox="0 0 50 20" fill="none" xmlns="http://www.w3.org/2000/svg">
<path fill-rule="evenodd" clip-rule="evenodd" d="M18.3774 16.9377L20.6084 3.09814H24.1744L21.9437 16.9377H18.3774Z" fill="#26337A"/>
<path fill-rule="evenodd" clip-rule="evenodd" d="M34.8801 3.43784C34.175 3.16008 33.0661 2.85718 31.6847 2.85718C28.159 2.85718 25.6772 4.73527 25.6566 7.42458C25.6341 9.41386 27.4276 10.5233 28.7796 11.1844C30.1692 11.8622 30.6361 12.2959 30.6306 12.9019C30.621 13.8288 29.5214 14.2535 28.4961 14.2535C27.0684 14.2535 26.3099 14.0444 25.1371 13.5277L24.6784 13.3074L24.1797 16.4053C25.0112 16.7907 26.5528 17.1253 28.1527 17.1429C31.8996 17.1429 34.3343 15.2875 34.3629 12.4157C34.3757 10.8382 33.4255 9.64256 31.3675 8.65538C30.1213 8.01361 29.3564 7.58849 29.3652 6.93896C29.366 6.36382 30.0114 5.748 31.4081 5.748C32.5745 5.7292 33.4189 5.99858 34.0769 6.27981L34.3971 6.43801L34.8801 3.43784Z" fill="#26337A"/>
<path fill-rule="evenodd" clip-rule="evenodd" d="M39.6259 12.0311C39.9214 11.2356 41.0465 8.16267 41.0465 8.16267C41.0257 8.19926 41.3404 7.36107 41.5205 6.84234L41.7611 8.03595C41.7611 8.03595 42.4454 11.3392 42.5864 12.0311C42.0312 12.0311 40.3222 12.0311 39.6259 12.0311ZM44.0266 3.1123H41.2707C40.4159 3.1123 39.776 3.35716 39.4016 4.25952L34.1057 16.9426H37.8513C37.8513 16.9426 38.4623 15.2364 38.601 14.862C39.0096 14.862 42.649 14.8692 43.1685 14.8692C43.2754 15.3521 43.6028 16.9426 43.6028 16.9426H46.9127L44.0266 3.1123Z" fill="#26337A"/>
<path fill-rule="evenodd" clip-rule="evenodd" d="M15.3862 3.10986L11.8958 12.5451L11.522 10.6272C10.8715 8.41734 8.84682 6.02215 6.58203 4.822L9.77525 16.9257L13.5494 16.9234L19.1652 3.10986H15.3862Z" fill="#26337A"/>
<path fill-rule="evenodd" clip-rule="evenodd" d="M8.6547 3.10034H2.90401L2.85669 3.38709C7.3314 4.53349 10.2921 7.30066 11.521 10.627L10.2713 4.26799C10.0557 3.39098 9.42914 3.131 8.6547 3.10034Z" fill="#EC982D"/>
</svg>
