<svg width="32" height="32" viewBox="0 0 32 32" fill="none" xmlns="http://www.w3.org/2000/svg">
<circle cx="16" cy="16" r="16" fill="#4C77A6"/>
<path d="M21.0817 17.5955C21.5859 18.0991 22.1181 18.5729 22.5703 19.1273C22.7701 19.3737 22.9592 19.6279 23.1039 19.9138C23.3089 20.3202 23.1232 20.7675 22.767 20.7917L20.5526 20.7907C19.9815 20.8392 19.5259 20.604 19.1428 20.2045C18.8362 19.885 18.5523 19.545 18.2575 19.2147C18.1366 19.0798 18.0101 18.9527 17.859 18.8523C17.5567 18.6516 17.2943 18.7131 17.1216 19.0356C16.9456 19.3637 16.9057 19.7269 16.8884 20.0925C16.8647 20.626 16.7071 20.7662 16.1833 20.7907C15.064 20.8447 14.0016 20.6714 13.0147 20.0937C12.1447 19.5844 11.47 18.8655 10.8827 18.0515C9.73935 16.4667 8.86372 14.7251 8.07677 12.9347C7.89962 12.5314 8.02918 12.3149 8.46422 12.3072C9.1866 12.2928 9.9089 12.2938 10.6321 12.3061C10.9257 12.3105 11.1201 12.4828 11.2335 12.7666C11.6243 13.7497 12.1026 14.6851 12.7028 15.5521C12.8627 15.783 13.0257 16.0138 13.2578 16.1763C13.5146 16.3562 13.7101 16.2965 13.8309 16.0039C13.9076 15.8183 13.9412 15.6184 13.9584 15.4197C14.0157 14.736 14.0232 14.0534 13.9228 13.372C13.8612 12.9468 13.6271 12.6715 13.2123 12.591C13.0007 12.55 13.0322 12.4694 13.1347 12.3458C13.3126 12.1327 13.4801 12 13.8138 12H16.3164C16.7103 12.0795 16.7978 12.2606 16.8518 12.6662L16.8539 15.5101C16.8496 15.6671 16.9306 16.133 17.207 16.2369C17.4282 16.3109 17.574 16.1298 17.7068 15.9863C18.306 15.3357 18.7336 14.5668 19.1157 13.7707C19.2852 13.4206 19.431 13.057 19.5723 12.6937C19.677 12.4242 19.8412 12.2916 20.138 12.2974L22.5466 12.2996C22.6181 12.2996 22.6903 12.3007 22.7595 12.3128C23.1653 12.3836 23.2766 12.5622 23.1512 12.9676C22.9537 13.6038 22.5694 14.1339 22.1936 14.6665C21.792 15.2351 21.3624 15.7842 20.964 16.3562C20.5981 16.8786 20.6271 17.1418 21.0817 17.5955Z" fill="white"/>
</svg>
