<svg width="16" height="16" viewBox="0 0 16 16" fill="none" xmlns="http://www.w3.org/2000/svg">
<path fill-rule="evenodd" clip-rule="evenodd" d="M8 6.99536C8.55228 6.99536 9 7.44308 9 7.99536V11.9928C9 12.545 8.55228 12.9928 8 12.9928C7.44772 12.9928 7 12.545 7 11.9928V7.99536C7 7.44308 7.44772 6.99536 8 6.99536Z" fill="white"/>
<path fill-rule="evenodd" clip-rule="evenodd" d="M5 7.99487C5.55228 7.99487 6 8.44259 6 8.99487V11.9929C6 12.5452 5.55228 12.9929 5 12.9929C4.44772 12.9929 4 12.5452 4 11.9929V8.99487C4 8.44259 4.44772 7.99487 5 7.99487Z" fill="white"/>
<path fill-rule="evenodd" clip-rule="evenodd" d="M11 7.99487C11.5523 7.99487 12 8.44259 12 8.99487V11.9929C12 12.5452 11.5523 12.9929 11 12.9929C10.4477 12.9929 10 12.5452 10 11.9929V8.99487C10 8.44259 10.4477 7.99487 11 7.99487Z" fill="white"/>
<path fill-rule="evenodd" clip-rule="evenodd" d="M2 3.99731C2.55228 3.99731 3 4.44503 3 4.99731V13.9908H13V4.99731C13 4.44503 13.4477 3.99731 14 3.99731C14.5523 3.99731 15 4.44503 15 4.99731V13.9914C15 15.096 14.1037 15.9908 13 15.9908H3C1.89633 15.9908 1 15.096 1 13.9914V4.99731C1 4.44503 1.44772 3.99731 2 3.99731Z" fill="white"/>
<path fill-rule="evenodd" clip-rule="evenodd" d="M0 3.99805C0 3.44576 0.447715 2.99805 1 2.99805H15C15.5523 2.99805 16 3.44576 16 3.99805C16 4.55033 15.5523 4.99805 15 4.99805H1C0.447715 4.99805 0 4.55033 0 3.99805Z" fill="white"/>
<path fill-rule="evenodd" clip-rule="evenodd" d="M4 1.99935C4 0.894816 4.89633 0 6 0H10C11.1037 0 12 0.894816 12 1.99935V3.99805C12 4.55033 11.5523 4.99805 11 4.99805C10.4477 4.99805 10 4.55033 10 3.99805V2H6V3.99805C6 4.55033 5.55228 4.99805 5 4.99805C4.44772 4.99805 4 4.55033 4 3.99805V1.99935Z" fill="white"/>
</svg>
