<svg width="48" height="48" viewBox="0 0 48 48" fill="none" xmlns="http://www.w3.org/2000/svg">
<path d="M14.4553 16.6272C16.7636 16.6272 18.6338 14.757 18.6338 12.4487C18.6338 10.1405 16.7636 8.27026 14.4553 8.27026C12.147 8.27026 10.2769 10.1405 10.2769 12.4487C10.2769 14.757 12.147 16.6272 14.4553 16.6272ZM14.4553 11.0559C15.2251 11.0559 15.8481 11.6789 15.8481 12.4487C15.8481 13.2185 15.2251 13.8415 14.4553 13.8415C13.6855 13.8415 13.0625 13.2186 13.0625 12.4487C13.0625 11.6789 13.6855 11.0559 14.4553 11.0559Z" fill="#75A834"/>
<path fill-rule="evenodd" clip-rule="evenodd" d="M7.49143 4.0918H38.1336C38.9028 4.0918 39.5264 4.71537 39.5263 5.4846V21.9247H36.7407L36.7408 6.8774H8.8843V29.1626H21.9094V31.9482H7.49143C6.7222 31.9482 6.09863 31.3247 6.09863 30.5554V5.4846C6.09863 4.71537 6.7222 4.0918 7.49143 4.0918Z" fill="#75A834"/>
<path d="M12.0779 25.9681C12.6218 26.512 13.5037 26.512 14.0476 25.9681L20.0269 19.9889L23.2205 23.1825C23.7644 23.7264 24.6463 23.7264 25.1902 23.1825C25.7342 22.6385 25.7342 21.7566 25.1902 21.2127L24.5664 20.5889L27.2676 16.087L31.5775 20.3969C32.1214 20.9408 33.0033 20.9408 33.5472 20.3969C34.0912 19.8529 34.0912 18.971 33.5472 18.4271L27.976 12.8558C27.3352 12.2151 26.2629 12.3471 25.7968 13.1241L22.5361 18.5585L21.0119 17.0343C20.468 16.4904 19.5861 16.4904 19.0421 17.0343L12.0779 23.9984C11.5339 24.5423 11.5339 25.4241 12.0779 25.9681Z" fill="#75A834"/>
<path d="M40 33C40 33.8138 39.3402 34.4736 38.5261 34.4736H34.4736V38.5261C34.4736 39.3402 33.8138 40 33 40C32.1859 40 31.5261 39.3402 31.5261 38.5261V34.4736H27.4736C26.6598 34.4736 26 33.8138 26 33C26 32.1859 26.6598 31.5261 27.4736 31.5261H31.5261V27.4736C31.5261 26.6598 32.1859 26 33 26C33.8138 26 34.4736 26.6598 34.4736 27.4736V31.5261H38.5261C39.3402 31.5261 40 32.1859 40 33Z" fill="#75A834"/>
</svg>
