<?xml version="1.0" standalone="no"?>
<!DOCTYPE svg PUBLIC "-//W3C//DTD SVG 20010904//EN"
 "http://www.w3.org/TR/2001/REC-SVG-20010904/DTD/svg10.dtd">
<svg version="1.0" xmlns="http://www.w3.org/2000/svg"
 width="260.000000pt" height="260.000000pt" viewBox="0 0 260.000000 260.000000"
 preserveAspectRatio="xMidYMid meet">
<metadata>
Created by potrace 1.14, written by Peter Selinger 2001-2017
</metadata>
<g transform="translate(0.000000,260.000000) scale(0.100000,-0.100000)"
fill="#000000" stroke="none">
<path d="M60 1998 c-23 -65 -31 -235 -17 -335 26 -172 147 -320 330 -403 70
-32 167 -62 167 -52 0 8 -50 82 -73 107 -40 43 -99 165 -80 165 10 0 96 -73
142 -120 24 -25 51 -62 61 -83 l17 -39 8 49 c4 26 9 64 11 83 21 170 44 230
113 297 138 134 406 160 465 45 21 -42 29 -90 28 -177 -1 -210 -68 -437 -170
-570 -127 -167 -228 -107 -218 129 4 86 31 218 58 283 6 16 12 33 13 39 8 34
87 178 128 233 52 69 51 81 -8 81 -144 0 -276 -135 -348 -355 -87 -269 -60
-517 67 -602 108 -72 336 -13 459 120 164 177 263 552 197 747 -26 78 -50 113
-103 151 -108 79 -323 81 -507 6 -85 -34 -138 -68 -201 -127 -24 -22 -46 -40
-49 -40 -3 0 -25 30 -50 66 -71 105 -197 212 -353 301 -33 18 -63 33 -67 33
-4 0 -13 -15 -20 -32z"/>
<path d="M1602 1848 c-24 -4 -58 -15 -74 -25 -62 -36 -88 -136 -49 -184 27
-33 87 -30 118 6 25 29 30 74 11 93 -10 10 -10 15 2 22 18 12 37 13 152 14 67
1 88 -2 88 -12 0 -8 -25 -62 -57 -120 -105 -199 -444 -874 -440 -878 6 -6 530
-5 561 1 102 20 164 108 142 202 -13 55 -91 65 -133 17 -25 -28 -28 -41 -13
-78 5 -14 6 -26 2 -27 -76 -10 -262 -21 -262 -14 0 19 342 720 407 835 64 113
85 150 81 150 -42 5 -506 4 -536 -2z"/>
<path d="M2345 1810 c-3 -14 -9 -54 -14 -90 -8 -55 -46 -308 -66 -445 -3 -22
-10 -64 -15 -94 -6 -34 -6 -57 -1 -61 5 -3 33 -5 62 -5 47 0 55 3 66 25 23 45
171 572 187 665 l5 30 -109 0 c-109 0 -109 0 -115 -25z"/>
<path d="M2234 1003 c-12 -2 -36 -17 -55 -32 -31 -27 -34 -33 -33 -84 0 -41 5
-62 19 -77 76 -84 206 -48 220 60 10 84 -64 149 -151 133z"/>
</g>
</svg>
