<svg width="70" height="70" viewBox="0 0 70 70" fill="none" xmlns="http://www.w3.org/2000/svg">
<path fill-rule="evenodd" clip-rule="evenodd" d="M47.3399 47.2702L47.53 47.0483C47.6211 47.1236 47.7083 47.183 47.7994 47.2226C47.8905 47.2622 47.9856 47.282 48.0926 47.282C48.1876 47.282 48.2669 47.2622 48.3223 47.2187C48.3818 47.1791 48.4095 47.1196 48.4095 47.0523C48.4095 47.0087 48.4016 46.9691 48.3778 46.9414C48.358 46.9136 48.3184 46.882 48.259 46.8582C48.1995 46.8305 48.1163 46.8067 48.0054 46.779C47.9024 46.7552 47.8153 46.7275 47.7479 46.7037C47.6806 46.676 47.6172 46.6443 47.5657 46.6047C47.5102 46.5651 47.4706 46.5136 47.4468 46.4541C47.4231 46.3947 47.4112 46.3274 47.4112 46.2442C47.4112 46.0897 47.4666 45.9669 47.5815 45.8718C47.6964 45.7768 47.843 45.7292 48.0213 45.7292C48.2669 45.7292 48.4848 45.8045 48.667 45.9511L48.5006 46.1887C48.3342 46.0659 48.1718 46.0026 48.0133 46.0026C47.9222 46.0026 47.8509 46.0224 47.7994 46.0659C47.7479 46.1055 47.7202 46.157 47.7202 46.2204C47.7202 46.268 47.7321 46.3076 47.7558 46.3353C47.7796 46.367 47.8192 46.3947 47.8826 46.4225C47.942 46.4502 48.0292 46.4739 48.1441 46.5017C48.3421 46.5492 48.4887 46.6126 48.5798 46.6918C48.6709 46.771 48.7185 46.882 48.7185 47.0285C48.7185 47.1909 48.6591 47.3217 48.5402 47.4207C48.4214 47.5158 48.2708 47.5633 48.0767 47.5633C47.7994 47.5554 47.5498 47.4603 47.3399 47.2702ZM43.9607 46.6364C43.9607 46.5096 43.9845 46.3908 44.028 46.2759C44.0756 46.161 44.139 46.0659 44.2182 45.9827C44.2974 45.8996 44.3925 45.8322 44.5114 45.7847C44.6262 45.7371 44.749 45.7134 44.8837 45.7134C45.0382 45.7134 45.169 45.7371 45.2799 45.7847C45.3908 45.8322 45.4898 45.8996 45.5849 45.9907L45.3869 46.2204C45.3076 46.1491 45.2284 46.0937 45.1492 46.0541C45.0699 46.0144 44.9788 45.9946 44.8837 45.9946C44.7728 45.9946 44.6698 46.0224 44.5827 46.0778C44.4915 46.1372 44.4202 46.2125 44.3687 46.3076C44.3172 46.4026 44.2935 46.5136 44.2935 46.6284C44.2935 46.8067 44.3529 46.9572 44.4638 47.08C44.5747 47.2028 44.7174 47.2662 44.8837 47.2662C44.9867 47.2662 45.0779 47.2464 45.1571 47.2068C45.2323 47.1672 45.3155 47.1078 45.3987 47.0325L45.6008 47.2385C45.5334 47.3058 45.47 47.3613 45.4027 47.4088C45.3393 47.4524 45.2601 47.488 45.1729 47.5158C45.0818 47.5435 44.9867 47.5554 44.8758 47.5554C44.7055 47.5554 44.551 47.5158 44.4123 47.4326C44.2737 47.3534 44.1627 47.2385 44.0835 47.0998C44.0003 46.9651 43.9607 46.8067 43.9607 46.6364ZM41.7185 45.7411H42.0314V47.5277H41.7185V45.7411ZM38.3829 46.0342V45.7411H39.8368V46.0342H39.2663V47.5316H38.9533V46.0342H38.3829ZM35.2691 47.5316V45.7451H36.5962V46.0224H35.5821V46.4938H36.4774V46.775H35.5821V47.2583H36.6081V47.5356H35.2691V47.5316ZM31.5215 47.5316V45.7451H31.8583L32.401 46.5888L32.9437 45.7451H33.2765V47.5316H32.9635V46.2482L32.401 47.0919H32.3891L31.8305 46.2521V47.5316H31.5215ZM28.2374 47.2702L28.4276 47.0483C28.5147 47.1236 28.6059 47.183 28.697 47.2226C28.7881 47.2622 28.8871 47.282 28.9941 47.282C29.0892 47.282 29.1684 47.2622 29.2239 47.2187C29.2833 47.1791 29.311 47.1196 29.311 47.0523C29.311 47.0087 29.2991 46.9691 29.2793 46.9414C29.2595 46.9136 29.2199 46.882 29.1605 46.8582C29.101 46.8305 29.0179 46.8067 28.9069 46.779C28.8039 46.7552 28.7168 46.7275 28.6494 46.7037C28.5821 46.676 28.5227 46.6443 28.4672 46.6047C28.4117 46.5651 28.3721 46.5136 28.3484 46.4541C28.3246 46.3947 28.3127 46.3274 28.3127 46.2442C28.3127 46.0897 28.3721 45.9669 28.4831 45.8718C28.5979 45.7768 28.7445 45.7292 28.9228 45.7292C29.1684 45.7292 29.3863 45.8045 29.5725 45.9511L29.4061 46.1887C29.2397 46.0659 29.0773 46.0026 28.9188 46.0026C28.8277 46.0026 28.7604 46.0224 28.7049 46.0659C28.6534 46.1055 28.6257 46.157 28.6257 46.2204C28.6257 46.268 28.6375 46.3076 28.6613 46.3353C28.6851 46.367 28.7287 46.3947 28.7881 46.4225C28.8475 46.4502 28.9347 46.4739 29.0495 46.5017C29.2476 46.5492 29.3942 46.6126 29.4853 46.6918C29.5764 46.771 29.624 46.882 29.624 47.0285C29.624 47.1909 29.5645 47.3217 29.4497 47.4207C29.3308 47.5158 29.1763 47.5633 28.9862 47.5633C28.697 47.5554 28.4474 47.4603 28.2374 47.2702ZM24.9058 46.6364C24.9058 46.7512 24.9296 46.8582 24.9811 46.9533C25.0326 47.0523 25.1039 47.1276 25.199 47.187C25.294 47.2464 25.397 47.2741 25.5119 47.2741C25.6268 47.2741 25.7298 47.2464 25.8249 47.187C25.916 47.1315 25.9873 47.0563 26.0388 46.9572C26.0903 46.8622 26.1141 46.7552 26.1141 46.6364C26.1141 46.5215 26.0863 46.4145 26.0388 46.3155C25.9873 46.2204 25.916 46.1412 25.8209 46.0857C25.7298 46.0303 25.6228 45.9986 25.508 45.9986C25.3931 45.9986 25.2861 46.0263 25.195 46.0857C25.0999 46.1452 25.0286 46.2204 24.9811 46.3195C24.9296 46.4106 24.9058 46.5215 24.9058 46.6364ZM24.573 46.6364C24.573 46.5096 24.5968 46.3947 24.6443 46.2798C24.6919 46.165 24.7553 46.0699 24.8345 45.9867C24.9177 45.9035 25.0167 45.8362 25.1316 45.7886C25.2505 45.7371 25.3772 45.7134 25.508 45.7134C25.6426 45.7134 25.7694 45.7371 25.8843 45.7847C25.9992 45.8362 26.0982 45.8996 26.1774 45.9827C26.2606 46.0659 26.324 46.165 26.3676 46.2759C26.4151 46.3868 26.4389 46.5096 26.4389 46.6364C26.4389 46.7592 26.4151 46.882 26.3676 46.9929C26.3201 47.1038 26.2567 47.2068 26.1735 47.29C26.0903 47.3732 25.9913 47.4405 25.8764 47.488C25.7575 47.5395 25.6308 47.5633 25.5 47.5633C25.3218 47.5633 25.1593 47.5197 25.0167 47.4365C24.8741 47.3534 24.7632 47.2424 24.684 47.0998C24.6126 46.9612 24.573 46.8067 24.573 46.6364ZM21.1582 46.6364C21.1582 46.5096 21.182 46.3908 21.2255 46.2759C21.2691 46.161 21.3325 46.0659 21.4157 45.9827C21.4949 45.8996 21.594 45.8322 21.7089 45.7847C21.8237 45.7371 21.9465 45.7134 22.0812 45.7134C22.2357 45.7134 22.3665 45.7371 22.4774 45.7847C22.5883 45.8322 22.6913 45.8996 22.7824 45.9907L22.5804 46.2204C22.5012 46.1491 22.4219 46.0937 22.3427 46.0541C22.2635 46.0144 22.1724 45.9946 22.0773 45.9946C21.9664 45.9946 21.8634 46.0224 21.7762 46.0778C21.6851 46.1372 21.6138 46.2125 21.5662 46.3076C21.5147 46.4026 21.491 46.5136 21.491 46.6284C21.491 46.8067 21.5464 46.9572 21.6574 47.08C21.7683 47.2028 21.9109 47.2662 22.0773 47.2662C22.1803 47.2662 22.2714 47.2464 22.3467 47.2068C22.4259 47.1672 22.5051 47.1078 22.5883 47.0325L22.7903 47.2385C22.723 47.3058 22.6596 47.3613 22.5923 47.4088C22.5289 47.4524 22.4497 47.488 22.3625 47.5158C22.2714 47.5435 22.1763 47.5554 22.0654 47.5554C21.895 47.5554 21.7405 47.5158 21.6019 47.4326C21.4632 47.3534 21.3563 47.2385 21.277 47.0998C21.1978 46.9651 21.1582 46.8067 21.1582 46.6364Z" fill="#282625"/>
<path fill-rule="evenodd" clip-rule="evenodd" d="M29.4179 21.2999C29.822 21.2999 30.1864 21.1375 30.4518 20.8721C30.7173 20.6106 30.8797 20.2422 30.8797 19.8421C30.8797 19.4381 30.7173 19.0736 30.4518 18.8122C30.1864 18.5468 29.822 18.3844 29.4218 18.3844C29.0178 18.3844 28.6533 18.5468 28.3879 18.8122C28.1264 19.0776 27.9601 19.442 27.9601 19.8421H27.964H27.9601C27.9601 20.2422 28.1264 20.6066 28.3879 20.8721C28.6533 21.1375 29.0178 21.2999 29.4179 21.2999ZM29.4218 21.8663C28.8633 21.8663 28.3562 21.6366 27.9878 21.2721C27.6233 20.9077 27.3936 20.4007 27.3936 19.8421C27.3936 19.2836 27.6233 18.7765 27.9878 18.4081C28.3522 18.0437 28.8593 17.8179 29.4179 17.8179C29.9765 17.8179 30.4835 18.0437 30.852 18.4121C31.2164 18.7765 31.4422 19.2836 31.4422 19.8421C31.4422 20.4007 31.2164 20.9077 30.848 21.2761C30.4875 21.6405 29.9804 21.8663 29.4218 21.8663ZM29.4179 20.1471C29.3347 20.1471 29.2555 20.1115 29.204 20.056C29.1485 20.0006 29.1129 19.9253 29.1129 19.8421C29.1129 19.7589 29.1485 19.6837 29.204 19.6282C29.2594 19.5727 29.3347 19.5411 29.4179 19.5411C29.5011 19.5411 29.5764 19.5767 29.6318 19.6282C29.6873 19.6837 29.7229 19.7589 29.7229 19.8421C29.7229 19.9253 29.6912 20.0045 29.6358 20.056C29.5803 20.1115 29.505 20.1471 29.4179 20.1471ZM29.4218 20.7136C29.1802 20.7136 28.9623 20.6146 28.8039 20.4561C28.6454 20.3016 28.5503 20.0838 28.5503 19.8421C28.5503 19.6005 28.6494 19.3826 28.8039 19.2281C28.9584 19.0697 29.1762 18.9746 29.4179 18.9746C29.6595 18.9746 29.8774 19.0736 30.0319 19.2281C30.1904 19.3866 30.2855 19.6005 30.2855 19.8421C30.2855 20.0838 30.1864 20.3016 30.0319 20.4601C29.8774 20.6146 29.6595 20.7136 29.4218 20.7136ZM38.4898 18.2061L39.4643 15.148L39.6228 14.6568L39.9516 15.0529L42.1542 17.6793L42.483 18.0714L41.9759 18.1388L38.7948 18.5705L38.3511 18.63L38.4898 18.2061ZM39.3256 17.4455L40.4388 16.5107L39.8486 15.8095L39.3256 17.4455ZM40.8033 16.9464L39.6901 17.8813L41.3896 17.6515L40.8033 16.9464ZM34.9759 15.556C34.2747 15.552 33.6409 15.2708 33.1853 14.8113C32.7258 14.3557 32.4445 13.7219 32.4445 13.0208C32.4445 12.3196 32.7297 11.6898 33.1853 11.2303C33.6409 10.7747 34.2747 10.4895 34.9759 10.4895H34.9799C35.6811 10.4895 36.3149 10.7747 36.7705 11.2303C37.226 11.6898 37.5113 12.3196 37.5113 13.0208C37.5113 13.7219 37.226 14.3557 36.7705 14.8113C36.307 15.2708 35.6731 15.556 34.9759 15.556ZM33.7558 14.5657L34.4847 13.306H33.0268C33.0902 13.7378 33.2883 14.122 33.5814 14.4151C33.6369 14.4666 33.6963 14.5181 33.7558 14.5657ZM36.1921 11.4798L35.4671 12.7395H36.921C36.8576 12.3117 36.6595 11.9275 36.3664 11.6343C36.3109 11.5789 36.2515 11.5274 36.1921 11.4798ZM35.4671 13.306L36.1921 14.5657C36.2515 14.5181 36.3109 14.4666 36.3624 14.4151C36.6556 14.122 36.8576 13.7378 36.921 13.306H35.4671ZM34.247 11.1946L34.9759 12.4543L35.7048 11.1946C35.479 11.1035 35.2334 11.056 34.9759 11.056H34.9719C34.7184 11.056 34.4728 11.1075 34.247 11.1946ZM34.4847 12.7395L33.7597 11.4798C33.7003 11.5274 33.6409 11.5789 33.5854 11.6343C33.2923 11.9275 33.0902 12.3117 33.0308 12.7395H34.4847ZM35.7048 14.8509L34.9759 13.5872L34.247 14.8509C34.4728 14.942 34.7184 14.9895 34.9759 14.9895C35.2334 14.9895 35.479 14.942 35.7048 14.8509ZM34.6907 28.7392H35.2572V21.6326L35.2651 21.6445L38.1927 19.1845L37.8282 18.7488L35.2572 20.9077V16.0274H34.6907V23.9896L31.5175 21.3276L31.153 21.7594L34.6907 24.7264V28.7392Z" fill="#006440"/>
<path fill-rule="evenodd" clip-rule="evenodd" d="M35.8197 56.9833L34.9403 54.7808L34.0608 56.9833L34.0569 56.9912C34.0291 57.0506 34.0093 57.114 33.9974 57.1774C33.9856 57.2368 33.9776 57.3041 33.9776 57.3715C33.9776 57.6369 34.0846 57.8785 34.2589 58.0528C34.4332 58.2271 34.6709 58.3341 34.9363 58.3341C35.2017 58.3341 35.4434 58.2271 35.6137 58.0528C35.788 57.8785 35.895 57.6408 35.895 57.3754H35.891C35.891 57.3041 35.8871 57.2407 35.8712 57.1813C35.8594 57.114 35.8395 57.0546 35.8118 56.9912L35.8197 56.9833ZM35.2017 53.9133L36.3427 56.7773C36.3862 56.8723 36.414 56.9674 36.4338 57.0664C36.4575 57.1694 36.4655 57.2724 36.4655 57.3754C36.4655 57.7993 36.2951 58.1796 36.0178 58.4569C35.7405 58.7341 35.3602 58.9045 34.9403 58.9045V58.9084V58.9045C34.5164 58.9045 34.1361 58.7341 33.8588 58.4569C33.5854 58.1796 33.4111 57.7993 33.4111 57.3794C33.4111 57.2764 33.423 57.1734 33.4428 57.0704C33.4626 56.9674 33.4943 56.8684 33.5379 56.7693L34.6749 53.9172L34.9363 53.2596L35.2017 53.9133Z" fill="#006440"/>
<path fill-rule="evenodd" clip-rule="evenodd" d="M6.19141 39.6684V32.2053H11.6702V33.5799H7.72847V35.0218H10.9056V36.3766H7.72847V38.2938H11.789V39.6684H6.19141Z" fill="#006440"/>
<path fill-rule="evenodd" clip-rule="evenodd" d="M13.7544 38.7296C12.9858 37.9928 12.6016 37.0658 12.6016 35.9369C12.6016 34.796 12.9858 33.8691 13.7425 33.1442C14.511 32.4192 15.4776 32.0548 16.6423 32.0548C17.3792 32.0548 18.0288 32.2172 18.6151 32.5222V34.0671C18.0407 33.6829 17.391 33.4928 16.6542 33.4928C15.9372 33.4928 15.3509 33.7265 14.8755 34.186C14.408 34.6455 14.1703 35.2199 14.1703 35.9329C14.1703 36.6499 14.4159 37.2362 14.8953 37.6917C15.3746 38.1512 15.9847 38.3731 16.7176 38.3731C17.5297 38.3731 18.2111 38.1592 18.7657 37.7234V39.2683C18.1596 39.6328 17.4544 39.811 16.6423 39.811C15.4776 39.8189 14.5189 39.4545 13.7544 38.7296Z" fill="#006440"/>
<path fill-rule="evenodd" clip-rule="evenodd" d="M23.5833 38.377C24.2449 38.377 24.7876 38.1433 25.2234 37.6838C25.6591 37.2242 25.8849 36.638 25.8849 35.9368C25.8849 35.2317 25.6631 34.6454 25.2234 34.1899C24.7876 33.7304 24.2409 33.4967 23.5833 33.4967C22.9217 33.4967 22.3671 33.7304 21.9313 34.1899C21.4916 34.6494 21.2777 35.2357 21.2777 35.9368C21.2777 36.638 21.4916 37.2242 21.9313 37.6838C22.3671 38.1433 22.9217 38.377 23.5833 38.377ZM20.8102 33.1877C21.5471 32.4311 22.4741 32.0587 23.5833 32.0587C24.6925 32.0587 25.6076 32.4311 26.3445 33.1877C27.0813 33.9364 27.4537 34.8514 27.4537 35.9368C27.4537 37.0143 27.0813 37.9294 26.3445 38.686C25.6116 39.4426 24.6925 39.8149 23.5833 39.8149C22.4741 39.8149 21.5471 39.4426 20.8102 38.686C20.0734 37.9294 19.7129 37.0103 19.7129 35.9368C19.7129 34.8514 20.0773 33.9324 20.8102 33.1877Z" fill="#006440"/>
<path fill-rule="evenodd" clip-rule="evenodd" d="M29.7348 38.7296C28.9663 37.9928 28.582 37.0658 28.582 35.9369C28.582 34.796 28.9663 33.8691 29.7229 33.1442C30.4915 32.4192 31.4581 32.0548 32.6228 32.0548C33.3596 32.0548 34.0093 32.2172 34.5956 32.5222V34.0671C34.0212 33.6829 33.3715 33.4928 32.6347 33.4928C31.9176 33.4928 31.3313 33.7265 30.8559 34.186C30.3845 34.6455 30.1508 35.2199 30.1508 35.9329C30.1508 36.6499 30.3964 37.2362 30.8757 37.6917C31.3551 38.1512 31.9652 38.3731 32.698 38.3731C33.5102 38.3731 34.1915 38.1592 34.7461 37.7234V39.2683C34.14 39.6328 33.4349 39.811 32.6228 39.811C31.462 39.8189 30.5034 39.4545 29.7348 38.7296Z" fill="#0F1011"/>
<path fill-rule="evenodd" clip-rule="evenodd" d="M37.5947 35.3625H39.4289C40.1221 35.3625 40.5381 35.0416 40.5381 34.4553C40.5381 33.8889 40.1221 33.5482 39.4289 33.5482H37.5947V35.3625ZM36.0576 39.6684V32.2053H39.5121C40.3004 32.2053 40.9303 32.4073 41.3898 32.8233C41.8494 33.2273 42.0831 33.7621 42.0831 34.4118C42.0831 35.4021 41.5087 36.1825 40.5381 36.4796L42.8397 39.6644H41.061L38.8861 36.6499H37.5947V39.6644H36.0576V39.6684Z" fill="#0F1011"/>
<path fill-rule="evenodd" clip-rule="evenodd" d="M46.0169 36.6736H48.2037L47.1183 34.0829L46.0169 36.6736ZM43.1924 39.6683L46.3893 32.1656H47.8591L51.06 39.6683H49.4278L48.691 37.9412H45.5336L44.7968 39.6683H43.1924Z" fill="#0F1011"/>
<path fill-rule="evenodd" clip-rule="evenodd" d="M52.0547 39.6684V32.2053H57.5216V33.5799H53.5878V35.0971H56.6263V36.4479H53.5878V39.6684H52.0547Z" fill="#0F1011"/>
<path fill-rule="evenodd" clip-rule="evenodd" d="M58.25 32.2053H64.5092V33.5799H62.1402V39.6684H60.6031V33.5799H58.25V32.2053Z" fill="#0F1011"/>
<path fill-rule="evenodd" clip-rule="evenodd" d="M35 68.2055C16.6899 68.2055 1.79457 53.3071 1.79457 34.998C1.79457 16.6889 16.6899 1.79447 35 1.79447C53.3101 1.79447 68.2054 16.6889 68.2054 34.998C68.2054 53.3071 53.3101 68.2055 35 68.2055ZM70 35.0733V34.9228C69.9604 15.659 54.2767 0 35 0C15.7035 0 0 15.7026 0 34.998C0 54.2974 15.7035 69.996 35 69.996C54.2767 70 69.9604 54.3371 70 35.0733Z" fill="#006440"/>
</svg>
