<svg width="32" height="32" viewBox="0 0 32 32" fill="none" xmlns="http://www.w3.org/2000/svg">
<path fill-rule="evenodd" clip-rule="evenodd" d="M25.951 6.04909C26.3974 6.4954 26.3974 7.21902 25.951 7.66533L7.66533 25.951C7.21902 26.3974 6.4954 26.3974 6.04909 25.951C5.60278 25.5047 5.60278 24.7811 6.04909 24.3348L24.3348 6.04909C24.7811 5.60278 25.5047 5.60278 25.951 6.04909Z" fill="#878A83"/>
<path fill-rule="evenodd" clip-rule="evenodd" d="M6.04909 6.04909C6.4954 5.60278 7.21902 5.60278 7.66533 6.04909L25.951 24.3348C26.3974 24.7811 26.3974 25.5047 25.951 25.951C25.5047 26.3974 24.7811 26.3974 24.3348 25.951L6.04909 7.66533C5.60278 7.21902 5.60278 6.4954 6.04909 6.04909Z" fill="#878A83"/>
</svg>
